<svg width="176" height="176" viewBox="0 0 176 176" fill="none" xmlns="http://www.w3.org/2000/svg">
<circle cx="88" cy="88" r="87.5" stroke="#E3F2FF"/>
<circle cx="88" cy="88" r="78.5073" stroke="#A7C9E9"/>
<circle cx="87.2336" cy="87.2336" r="66.2336" fill="#E9F4FF" stroke="#1C8CF1" stroke-width="4"/>
<path d="M89.5004 74.5274L89.0858 74.9441C89.2757 74.9858 89.4647 75.0323 89.6525 75.0834L89.5004 74.5274ZM89.5004 74.5274C89.6865 74.5733 89.8716 74.6237 90.0556 74.6784" fill="url(#paint0_linear_288_296)" stroke="#093F68"/>
<path d="M99.7963 71.3138L99.651 71.4601L88.1355 83.0476L87.9073 83.2772L87.6044 83.163C87.2075 83.0133 86.7866 82.9381 86.3628 82.9411L86.3573 82.9412C85.6033 82.9384 84.8652 83.1605 84.2365 83.5797C83.6077 83.999 83.1166 84.5965 82.8256 85.297C82.5346 85.9975 82.4569 86.7692 82.6027 87.5142C82.7484 88.2592 83.1107 88.9437 83.6435 89.481C84.1763 90.0184 84.8555 90.3845 85.5949 90.5333C86.3344 90.6822 87.1011 90.6072 87.7983 90.3178C88.4954 90.0284 89.0918 89.5374 89.5117 88.9067C89.9315 88.2759 90.1558 87.5339 90.1558 86.7746V86.7708C90.1584 86.4208 90.1115 86.0723 90.0166 85.7357L89.9373 85.4546L90.1431 85.2475L101.722 73.5965L101.85 73.4675L102.031 73.451L110.419 72.6891L110.425 72.6885L110.425 72.6886C110.765 72.6618 111.083 72.5121 111.322 72.2668L111.326 72.2629L111.326 72.2629L122.62 60.9135L122.623 60.911C122.832 60.7043 122.974 60.4396 123.033 60.1504C123.092 59.8612 123.063 59.561 122.952 59.2882C122.84 59.0154 122.65 58.7826 122.407 58.6191C122.164 58.4556 121.878 58.3688 121.586 58.3693L121.585 58.3693L115.582 58.3693H115.082V57.8693V51.774V51.7689C115.085 51.4745 115 51.1861 114.838 50.9412C114.677 50.6965 114.446 50.5065 114.176 50.3953C113.993 50.3209 113.799 50.2798 113.602 50.274L99.7963 71.3138ZM99.7963 71.3138V71.1076V64.1128V71.3138Z" fill="url(#paint1_linear_288_296)" stroke="#093F68"/>
<path d="M94.8142 63.5597C94.8109 63.7489 94.8167 63.9382 94.8314 64.1269V69.2605L92.979 71.0564C89.4466 69.5884 85.5193 69.3661 81.8399 70.4321C78.0523 71.5293 74.7662 73.9225 72.5498 77.1967C70.3334 80.4709 69.326 84.4203 69.7015 88.3616C70.077 92.3029 71.8118 95.9887 74.6064 98.7811C77.401 101.574 81.0796 103.297 85.0056 103.652C88.9317 104.007 92.8577 102.972 96.104 100.726C99.3503 98.48 101.713 95.1646 102.783 91.354C103.822 87.6536 103.579 83.7118 102.101 80.1728L104.009 78.2553L109.348 77.7662C111.358 82.9209 111.584 88.6094 109.983 93.9144C108.348 99.3375 104.903 104.028 100.23 107.199C95.5576 110.369 89.9412 111.825 84.3258 111.323C78.7105 110.82 73.4382 108.39 69.396 104.44C65.3537 100.49 62.7882 95.2608 62.1315 89.6325C61.4748 84.0042 62.7671 78.3205 65.7907 73.5375C68.8143 68.7546 73.3844 65.1645 78.732 63.3704C83.9649 61.6149 89.6303 61.6838 94.8142 63.5597Z" fill="url(#paint2_linear_288_296)" stroke="#093F68"/>
<path d="M114.834 75.7748C114.835 75.7736 114.836 75.7724 114.837 75.7712L120.182 70.4154C123.952 78.2401 124.905 87.146 122.862 95.609C120.766 104.297 115.651 111.947 108.439 117.181C101.228 122.414 92.3943 124.888 83.5293 124.157C74.6643 123.426 66.3499 119.539 60.0839 113.193C53.8178 106.848 50.0121 98.4626 49.3527 89.5471C48.6934 80.6316 51.2239 71.7727 56.4879 64.5662C61.7519 57.3598 69.4033 52.2795 78.0635 50.2398C86.5022 48.2523 95.3588 49.2789 103.117 53.1307L97.1671 59.1097C91.3968 56.8904 85.0747 56.5507 79.0971 58.1436C73.0131 59.7648 67.6067 63.3027 63.671 68.2376C59.7353 73.1725 57.4774 79.2447 57.228 85.5631C56.9787 91.8816 58.7511 98.1143 62.2856 103.347C65.82 108.579 70.9305 112.536 76.8677 114.636C82.8048 116.736 89.2556 116.869 95.2735 115.015C101.291 113.161 106.559 109.418 110.304 104.336C114.049 99.2531 116.074 93.0986 116.082 86.7752C116.087 83.2133 115.443 79.6818 114.183 76.3547C114.415 76.1787 114.632 75.9849 114.834 75.7748Z" fill="url(#paint3_linear_288_296)" stroke="#093F68"/>
<defs>
<linearGradient id="paint0_linear_288_296" x1="86.5397" y1="74.1704" x2="86.5397" y2="99.2502" gradientUnits="userSpaceOnUse">
<stop stop-color="#4498E2"/>
<stop offset="1" stop-color="white"/>
</linearGradient>
<linearGradient id="paint1_linear_288_296" x1="102.797" y1="49.7739" x2="102.797" y2="91.1079" gradientUnits="userSpaceOnUse">
<stop stop-color="#4498E2"/>
<stop offset="1" stop-color="white"/>
</linearGradient>
<linearGradient id="paint2_linear_288_296" x1="86.5016" y1="61.6016" x2="86.5016" y2="111.92" gradientUnits="userSpaceOnUse">
<stop stop-color="#4498E2"/>
<stop offset="1" stop-color="white"/>
</linearGradient>
<linearGradient id="paint3_linear_288_296" x1="86.5821" y1="48.75" x2="86.5821" y2="124.783" gradientUnits="userSpaceOnUse">
<stop stop-color="#4498E2"/>
<stop offset="1" stop-color="white"/>
</linearGradient>
</defs>
</svg>
