<svg width="176" height="176" viewBox="0 0 176 176" fill="none" xmlns="http://www.w3.org/2000/svg">
<circle cx="88" cy="88" r="87.5" stroke="#E3F2FF"/>
<circle cx="88" cy="88" r="78.5073" stroke="#A7C9E9"/>
<circle cx="87.2336" cy="87.2336" r="66.2336" fill="#E9F4FF" stroke="#1C8CF1" stroke-width="4"/>
<path d="M109.815 72.9476C109.759 72.7923 109.7 72.6473 109.635 72.4879C109.604 72.4098 109.571 72.3283 109.536 72.2406L108.628 69.9472L110.659 71.3468C118.123 76.4895 123.08 82.7991 125.08 85.6221C125.878 86.7483 125.878 88.1717 125.08 89.2982C125.08 89.2983 125.079 89.2983 125.079 89.2984L124.468 88.8647L109.815 72.9476ZM109.815 72.9476C110.745 75.5459 111.218 78.2764 111.218 81.063C111.218 94.3337 100.42 105.132 87.148 105.132C73.8768 105.132 63.0782 94.3337 63.0782 81.063C63.0782 78.2759 63.5502 75.546 64.4807 72.9482C64.5384 72.7886 64.5996 72.6378 64.6665 72.4729C64.6963 72.3993 64.7273 72.3229 64.7596 72.2416L65.674 69.9435L63.6372 71.3468C56.1734 76.4892 51.2173 82.7977 49.2168 85.6218L109.815 72.9476ZM128.231 91.5311L128.23 91.5314C124.266 97.1278 109.694 115.17 87.148 115.17C64.6089 115.17 50.0304 97.1274 46.0648 91.5305C44.3114 89.0528 44.312 85.8648 46.0653 83.3895C50.0305 77.7925 64.6064 59.75 87.148 59.75C109.689 59.75 124.266 77.7926 128.232 83.39C129.986 85.8677 129.985 89.056 128.231 91.5311ZM71.5058 68.2727L71.5057 68.2728C70.0467 70.0564 68.8922 72.0828 68.1163 74.25L68.8225 74.5028L68.1163 74.25C67.3358 76.4302 66.9398 78.7228 66.9389 81.0628V81.063C66.9389 92.2057 76.0033 101.27 87.1472 101.27C98.2911 101.27 107.355 92.2057 107.355 81.063C107.355 78.7233 106.959 76.4302 106.178 74.2499C105.403 72.0829 104.249 70.056 102.789 68.2723C101.643 66.8712 100.104 65.8421 98.3739 65.3119C94.9158 64.2506 91.168 63.612 87.1476 63.612C83.1272 63.612 79.3799 64.2506 75.921 65.3118C74.1848 65.8442 72.6572 66.8656 71.5058 68.2727Z" fill="url(#paint0_linear_288_427)" stroke="#093F68" stroke-width="1.5"/>
<path d="M74.6866 81.2087V81.2086C74.6866 80.0083 74.8554 78.8483 75.1701 77.7501C76.2166 79.8831 78.4073 81.3528 80.9452 81.3528C84.5011 81.3528 87.3822 78.4704 87.3822 74.9168C87.3822 72.3777 85.9131 70.1872 83.7788 69.1412C84.877 68.8265 86.0369 68.6577 87.2367 68.6577C94.1685 68.6577 99.7872 74.2777 99.7872 81.2082C99.7872 88.1396 94.1685 93.7587 87.2367 93.7587C80.3061 93.7587 74.6862 88.1395 74.6866 81.2087Z" fill="url(#paint1_linear_288_427)" stroke="#093F68" stroke-width="1.5"/>
<defs>
<linearGradient id="paint0_linear_288_427" x1="87.1485" y1="59" x2="87.1485" y2="115.92" gradientUnits="userSpaceOnUse">
<stop stop-color="#4E9EE4"/>
<stop offset="1" stop-color="white"/>
</linearGradient>
<linearGradient id="paint1_linear_288_427" x1="87.2369" y1="67.9077" x2="87.2369" y2="94.5087" gradientUnits="userSpaceOnUse">
<stop stop-color="#4E9EE4"/>
<stop offset="1" stop-color="white"/>
</linearGradient>
</defs>
</svg>
