<?xml version="1.0" encoding="utf-8"?>
<!-- Generator: Adobe Illustrator 25.0.1, SVG Export Plug-In . SVG Version: 6.00 Build 0)  -->
<svg version="1.1" id="Layer_1" xmlns="http://www.w3.org/2000/svg" xmlns:xlink="http://www.w3.org/1999/xlink" x="0px" y="0px"
	 viewBox="0 0 547.5 306.3" style="enable-background:new 0 0 547.5 306.3;" xml:space="preserve">
<style type="text/css">
	.st0{fill:#F1672C;}
</style>
<g>
	<path class="st0" d="M201.9,0.8c0-0.5-0.4-0.8-0.9-0.8c-0.5,0-0.9,0.4-0.9,0.8c0,0.5,0.4,0.8,0.9,0.8
		C201.5,1.7,201.9,1.3,201.9,0.8z"/>
	<path class="st0" d="M198.5,304.6c-0.5,0-0.8,0.4-0.8,0.9c0,0.5,0.4,0.8,0.8,0.8c0.5,0,0.8-0.4,0.8-0.8
		C199.3,305,198.9,304.6,198.5,304.6z"/>
	<path class="st0" d="M205.8,0.8c0-0.5-0.4-0.8-0.8-0.8c-0.5,0-0.9,0.4-0.9,0.8c0,0.5,0.4,0.8,0.9,0.8
		C205.5,1.7,205.8,1.3,205.8,0.8z"/>
	<path class="st0" d="M202.5,304.6c-0.5,0-0.9,0.4-0.9,0.9c0,0.5,0.4,0.8,0.9,0.8c0.5,0,0.8-0.4,0.8-0.8
		C203.3,305,202.9,304.6,202.5,304.6z"/>
	<path class="st0" d="M206.5,304.6c-0.5,0-0.9,0.4-0.9,0.9c0,0.5,0.4,0.8,0.9,0.8c0.5,0,0.8-0.4,0.8-0.8
		C207.3,305,206.9,304.6,206.5,304.6z"/>
	<path class="st0" d="M189.9,0.8c0-0.5-0.4-0.8-0.8-0.8s-0.8,0.4-0.8,0.8c0,0.5,0.4,0.8,0.8,0.8S189.9,1.3,189.9,0.8z"/>
	<path class="st0" d="M186.5,304.6c-0.5,0-0.9,0.4-0.9,0.9c0,0.5,0.4,0.8,0.9,0.8c0.5,0,0.8-0.4,0.8-0.8
		C187.3,305,186.9,304.6,186.5,304.6z"/>
	<path class="st0" d="M193.9,0.8c0-0.5-0.4-0.8-0.8-0.8s-0.8,0.4-0.8,0.8c0,0.5,0.4,0.8,0.8,0.8S193.9,1.3,193.9,0.8z"/>
	<path class="st0" d="M190.5,304.6c-0.5,0-0.9,0.4-0.9,0.9c0,0.5,0.4,0.8,0.9,0.8c0.5,0,0.8-0.4,0.8-0.8
		C191.3,305,190.9,304.6,190.5,304.6z"/>
	<path class="st0" d="M194.5,304.6c-0.5,0-0.9,0.4-0.9,0.9c0,0.5,0.4,0.8,0.9,0.8c0.5,0,0.8-0.4,0.8-0.8
		C195.3,305,194.9,304.6,194.5,304.6z"/>
	<path class="st0" d="M210.5,304.6c-0.5,0-0.9,0.4-0.9,0.9c0,0.5,0.4,0.8,0.9,0.8c0.5,0,0.8-0.4,0.8-0.8
		C211.3,305,210.9,304.6,210.5,304.6z"/>
	<path class="st0" d="M222.4,304.6c-0.5,0-0.8,0.4-0.8,0.9c0,0.5,0.4,0.8,0.8,0.8c0.5,0,0.9-0.4,0.9-0.8
		C223.3,305,222.9,304.6,222.4,304.6z"/>
	<path class="st0" d="M221.8,0.8c0-0.5-0.4-0.8-0.8-0.8c-0.5,0-0.9,0.4-0.9,0.8c0,0.5,0.4,0.8,0.9,0.8
		C221.5,1.7,221.8,1.3,221.8,0.8z"/>
	<path class="st0" d="M226.4,304.6c-0.5,0-0.8,0.4-0.8,0.9c0,0.5,0.4,0.8,0.8,0.8c0.5,0,0.9-0.4,0.9-0.8
		C227.3,305,226.9,304.6,226.4,304.6z"/>
	<path class="st0" d="M225.8,0.8c0-0.5-0.4-0.8-0.9-0.8c-0.5,0-0.8,0.4-0.8,0.8c0,0.5,0.4,0.8,0.8,0.8
		C225.5,1.7,225.8,1.3,225.8,0.8z"/>
	<path class="st0" d="M218.5,304.6c-0.5,0-0.9,0.4-0.9,0.9c0,0.5,0.4,0.8,0.9,0.8c0.5,0,0.8-0.4,0.8-0.8
		C219.3,305,218.9,304.6,218.5,304.6z"/>
	<path class="st0" d="M0.9,154.7c0.5,0,0.9-0.4,0.9-0.9c0-0.5-0.4-0.9-0.9-0.9c0,0,0,0,0,0c-0.5,0-0.8,0.4-0.8,0.9c0,0,0,0,0,0
		C0,154.3,0.4,154.7,0.9,154.7z"/>
	<path class="st0" d="M185.9,0.8c0-0.5-0.4-0.8-0.8-0.8s-0.8,0.4-0.8,0.8c0,0.5,0.4,0.8,0.8,0.8S185.9,1.3,185.9,0.8z"/>
	<path class="st0" d="M229.8,0.8c0-0.5-0.4-0.8-0.9-0.8c-0.5,0-0.8,0.4-0.8,0.8c0,0.5,0.4,0.8,0.8,0.8
		C229.5,1.7,229.8,1.3,229.8,0.8z"/>
	<path class="st0" d="M213.8,0.8c0-0.5-0.4-0.8-0.8-0.8c-0.5,0-0.9,0.4-0.9,0.8c0,0.5,0.4,0.8,0.9,0.8
		C213.5,1.7,213.8,1.3,213.8,0.8z"/>
	<path class="st0" d="M214.5,304.6c-0.5,0-0.9,0.4-0.9,0.9c0,0.5,0.4,0.8,0.9,0.8c0.5,0,0.8-0.4,0.8-0.8
		C215.3,305,214.9,304.6,214.5,304.6z"/>
	<path class="st0" d="M217.8,0.8c0-0.5-0.4-0.8-0.8-0.8c-0.5,0-0.9,0.4-0.9,0.8c0,0.5,0.4,0.8,0.9,0.8
		C217.5,1.7,217.8,1.3,217.8,0.8z"/>
	<path class="st0" d="M182.5,304.6c-0.5,0-0.9,0.4-0.9,0.9c0,0.5,0.4,0.8,0.9,0.8c0.5,0,0.8-0.4,0.8-0.8
		C183.3,305,182.9,304.6,182.5,304.6z"/>
	<path class="st0" d="M161,0c-0.5,0-0.8,0.4-0.8,0.8c0,0.5,0.4,0.8,0.8,0.8s0.9-0.4,0.9-0.8C161.9,0.4,161.5,0,161,0z"/>
	<path class="st0" d="M157,0c-0.5,0-0.8,0.4-0.8,0.8c0,0.5,0.4,0.8,0.8,0.8s0.9-0.4,0.9-0.8C157.9,0.4,157.5,0,157,0z"/>
	<path class="st0" d="M141,0.5C141,0.5,141,0.5,141,0.5c-0.5,0-0.9,0.4-0.9,0.8c0,0,0,0,0,0.1c0,0.5,0.5,0.8,0.9,0.8
		c0.4,0,0.8-0.4,0.8-0.9c0,0,0,0,0-0.1C141.8,0.8,141.5,0.5,141,0.5z"/>
	<path class="st0" d="M145,0.2C145,0.2,145,0.2,145,0.2c-0.5,0-0.8,0.4-0.8,0.8c0,0,0,0,0,0c0,0.5,0.4,0.8,0.9,0.8
		c0.4,0,0.8-0.4,0.8-0.9c0,0,0,0,0,0C145.9,0.6,145.5,0.2,145,0.2z"/>
	<path class="st0" d="M149,0C149,0,149,0,149,0c-0.5,0-0.8,0.4-0.8,0.8c0,0,0,0,0,0c0,0.5,0.4,0.8,0.9,0.8c0.5,0,0.8-0.4,0.8-0.9
		c0,0,0,0,0,0C149.9,0.4,149.5,0,149,0z"/>
	<path class="st0" d="M153,0c-0.5,0-0.8,0.4-0.8,0.8s0.4,0.9,0.9,0.9v0c0.5,0,0.8-0.4,0.8-0.8C153.9,0.4,153.5,0,153,0z"/>
	<path class="st0" d="M173,1.7c0.5,0,0.9-0.4,0.9-0.8c0-0.5-0.4-0.8-0.9-0.8s-0.8,0.4-0.8,0.8C172.2,1.3,172.5,1.7,173,1.7z"/>
	<path class="st0" d="M177.9,0.8c0-0.5-0.4-0.8-0.8-0.8s-0.8,0.4-0.8,0.8c0,0.5,0.4,0.8,0.8,0.8S177.9,1.3,177.9,0.8z"/>
	<path class="st0" d="M181.9,0.8c0-0.5-0.4-0.8-0.8-0.8s-0.8,0.4-0.8,0.8c0,0.5,0.4,0.8,0.8,0.8S181.9,1.3,181.9,0.8z"/>
	<path class="st0" d="M178.5,304.6c-0.5,0-0.9,0.4-0.9,0.9c0,0.5,0.4,0.8,0.9,0.8c0.5,0,0.8-0.4,0.8-0.8
		C179.3,305,178.9,304.6,178.5,304.6z"/>
	<path class="st0" d="M165,1.7c0.5,0,0.9-0.4,0.9-0.8c0-0.5-0.4-0.8-0.9-0.8s-0.8,0.4-0.8,0.8C164.2,1.3,164.5,1.7,165,1.7z"/>
	<path class="st0" d="M169,1.7c0.5,0,0.9-0.4,0.9-0.8c0-0.5-0.4-0.8-0.9-0.8s-0.8,0.4-0.8,0.8C168.2,1.3,168.5,1.7,169,1.7z"/>
	<path class="st0" d="M197.9,0.8c0-0.5-0.4-0.8-0.8-0.8s-0.8,0.4-0.8,0.8c0,0.5,0.4,0.8,0.8,0.8S197.9,1.3,197.9,0.8z"/>
	<path class="st0" d="M230.4,304.6c-0.5,0-0.8,0.4-0.8,0.9c0,0.5,0.4,0.8,0.8,0.8c0.5,0,0.9-0.4,0.9-0.8
		C231.3,305,230.9,304.6,230.4,304.6z"/>
	<path class="st0" d="M286.4,304.6c-0.5,0-0.9,0.4-0.9,0.9c0,0.5,0.4,0.8,0.9,0.8c0.5,0,0.8-0.4,0.8-0.8
		C287.3,305,286.9,304.6,286.4,304.6z"/>
	<path class="st0" d="M289.8,0.8c0-0.5-0.4-0.8-0.9-0.8s-0.9,0.4-0.9,0.8c0,0.5,0.4,0.8,0.9,0.8S289.8,1.3,289.8,0.8z"/>
	<path class="st0" d="M293.8,0.8c0-0.5-0.4-0.8-0.9-0.8s-0.9,0.4-0.9,0.8c0,0.5,0.4,0.8,0.9,0.8S293.8,1.3,293.8,0.8z"/>
	<path class="st0" d="M294.4,304.6c-0.5,0-0.9,0.4-0.9,0.9c0,0.5,0.4,0.8,0.9,0.8c0.5,0,0.8-0.4,0.8-0.8
		C295.3,305,294.9,304.6,294.4,304.6z"/>
	<path class="st0" d="M278.4,304.6c-0.5,0-0.9,0.4-0.9,0.9c0,0.5,0.4,0.8,0.9,0.8s0.8-0.4,0.8-0.8
		C279.3,305,278.9,304.6,278.4,304.6z"/>
	<path class="st0" d="M297.8,0.8c0-0.5-0.4-0.8-0.9-0.8s-0.9,0.4-0.9,0.8c0,0.5,0.4,0.8,0.9,0.8S297.8,1.3,297.8,0.8z"/>
	<path class="st0" d="M285.8,0.8c0-0.5-0.4-0.8-0.9-0.8s-0.9,0.4-0.9,0.8c0,0.5,0.4,0.8,0.9,0.8S285.8,1.3,285.8,0.8z"/>
	<path class="st0" d="M277.8,0.8c0-0.5-0.4-0.8-0.9-0.8c-0.5,0-0.9,0.4-0.9,0.8c0,0.5,0.4,0.8,0.9,0.8
		C277.5,1.7,277.8,1.3,277.8,0.8z"/>
	<path class="st0" d="M281.8,0.8c0-0.5-0.4-0.8-0.9-0.8s-0.8,0.4-0.8,0.8c0,0.5,0.4,0.8,0.8,0.8S281.8,1.3,281.8,0.8z"/>
	<path class="st0" d="M282.4,304.6c-0.5,0-0.9,0.4-0.9,0.9c0,0.5,0.4,0.8,0.9,0.8s0.8-0.4,0.8-0.8
		C283.3,305,282.9,304.6,282.4,304.6z"/>
	<path class="st0" d="M301.8,0.8c0-0.5-0.4-0.8-0.9-0.8c-0.5,0-0.8,0.4-0.8,0.8c0,0.5,0.4,0.8,0.8,0.8
		C301.4,1.7,301.8,1.3,301.8,0.8z"/>
	<path class="st0" d="M298.4,304.6c-0.5,0-0.8,0.4-0.8,0.9c0,0.5,0.4,0.8,0.8,0.8c0.5,0,0.9-0.4,0.9-0.8
		C299.3,305,298.9,304.6,298.4,304.6z"/>
	<path class="st0" d="M313.8,0.8c0-0.5-0.4-0.8-0.9-0.8c-0.5,0-0.8,0.4-0.8,0.8c0,0.5,0.4,0.8,0.8,0.8
		C313.4,1.7,313.8,1.3,313.8,0.8z"/>
	<path class="st0" d="M314.4,304.6c-0.5,0-0.9,0.4-0.9,0.9c0,0.5,0.4,0.8,0.9,0.8c0.5,0,0.9-0.4,0.9-0.8
		C315.3,305,314.9,304.6,314.4,304.6z"/>
	<path class="st0" d="M317.8,0.8c0-0.5-0.4-0.8-0.9-0.8c-0.5,0-0.8,0.4-0.8,0.8c0,0.5,0.4,0.8,0.8,0.8
		C317.4,1.7,317.8,1.3,317.8,0.8z"/>
	<path class="st0" d="M309.8,0.8c0-0.5-0.4-0.8-0.9-0.8c-0.5,0-0.8,0.4-0.8,0.8c0,0.5,0.4,0.8,0.8,0.8
		C309.4,1.7,309.8,1.3,309.8,0.8z"/>
	<path class="st0" d="M310.4,304.6c-0.5,0-0.9,0.4-0.9,0.9c0,0.5,0.4,0.8,0.9,0.8c0.5,0,0.9-0.4,0.9-0.8
		C311.3,305,310.9,304.6,310.4,304.6z"/>
	<path class="st0" d="M306.4,304.6c-0.5,0-0.9,0.4-0.9,0.9c0,0.5,0.4,0.8,0.9,0.8c0.5,0,0.9-0.4,0.9-0.8
		C307.3,305,306.9,304.6,306.4,304.6z"/>
	<path class="st0" d="M302.4,304.6c-0.5,0-0.9,0.4-0.9,0.9c0,0.5,0.4,0.8,0.9,0.8c0.5,0,0.9-0.4,0.9-0.8
		C303.3,305,302.9,304.6,302.4,304.6z"/>
	<path class="st0" d="M274.4,304.6c-0.5,0-0.8,0.4-0.8,0.9c0,0.5,0.4,0.8,0.8,0.8c0.5,0,0.9-0.4,0.9-0.8
		C275.3,305,274.9,304.6,274.4,304.6z"/>
	<path class="st0" d="M305.8,0.8c0-0.5-0.4-0.8-0.9-0.8c-0.5,0-0.8,0.4-0.8,0.8c0,0.5,0.4,0.8,0.8,0.8
		C305.4,1.7,305.8,1.3,305.8,0.8z"/>
	<path class="st0" d="M290.4,304.6c-0.5,0-0.9,0.4-0.9,0.9c0,0.5,0.4,0.8,0.9,0.8c0.5,0,0.8-0.4,0.8-0.8
		C291.3,305,290.9,304.6,290.4,304.6z"/>
	<path class="st0" d="M245.8,0.8c0-0.5-0.4-0.8-0.9-0.8c-0.5,0-0.8,0.4-0.8,0.8c0,0.5,0.4,0.8,0.8,0.8
		C245.5,1.7,245.8,1.3,245.8,0.8z"/>
	<path class="st0" d="M242.4,304.6c-0.5,0-0.8,0.4-0.8,0.9c0,0.5,0.4,0.8,0.8,0.8c0.5,0,0.9-0.4,0.9-0.8
		C243.3,305,242.9,304.6,242.4,304.6z"/>
	<path class="st0" d="M249.8,0.8c0-0.5-0.4-0.8-0.9-0.8c-0.5,0-0.8,0.4-0.8,0.8c0,0.5,0.4,0.8,0.8,0.8
		C249.5,1.7,249.8,1.3,249.8,0.8z"/>
	<path class="st0" d="M241.8,0.8c0-0.5-0.4-0.8-0.9-0.8c-0.5,0-0.8,0.4-0.8,0.8c0,0.5,0.4,0.8,0.8,0.8
		C241.5,1.7,241.8,1.3,241.8,0.8z"/>
	<path class="st0" d="M246.4,304.6c-0.5,0-0.8,0.4-0.8,0.9c0,0.5,0.4,0.8,0.8,0.8c0.5,0,0.9-0.4,0.9-0.8
		C247.3,305,246.9,304.6,246.4,304.6z"/>
	<path class="st0" d="M237.8,0.8c0-0.5-0.4-0.8-0.9-0.8c-0.5,0-0.8,0.4-0.8,0.8c0,0.5,0.4,0.8,0.8,0.8
		C237.5,1.7,237.8,1.3,237.8,0.8z"/>
	<path class="st0" d="M233.8,0.8c0-0.5-0.4-0.8-0.9-0.8c-0.5,0-0.8,0.4-0.8,0.8c0,0.5,0.4,0.8,0.8,0.8
		C233.5,1.7,233.8,1.3,233.8,0.8z"/>
	<path class="st0" d="M238.4,304.6c-0.5,0-0.8,0.4-0.8,0.9c0,0.5,0.4,0.8,0.8,0.8c0.5,0,0.9-0.4,0.9-0.8
		C239.3,305,238.9,304.6,238.4,304.6z"/>
	<path class="st0" d="M234.4,304.6c-0.5,0-0.8,0.4-0.8,0.9c0,0.5,0.4,0.8,0.8,0.8c0.5,0,0.9-0.4,0.9-0.8
		C235.3,305,234.9,304.6,234.4,304.6z"/>
	<path class="st0" d="M250.4,304.6c-0.5,0-0.9,0.4-0.9,0.9c0,0.5,0.4,0.8,0.9,0.8c0.5,0,0.8-0.4,0.8-0.8
		C251.3,305,250.9,304.6,250.4,304.6z"/>
	<path class="st0" d="M258.4,304.6c-0.5,0-0.8,0.4-0.8,0.9c0,0.5,0.4,0.8,0.8,0.8s0.8-0.4,0.8-0.8
		C259.3,305,258.9,304.6,258.4,304.6z"/>
	<path class="st0" d="M266.4,304.6c-0.5,0-0.8,0.4-0.8,0.9c0,0.5,0.4,0.8,0.8,0.8s0.8-0.4,0.8-0.8
		C267.3,305,266.9,304.6,266.4,304.6z"/>
	<path class="st0" d="M265.8,0.8c0-0.5-0.4-0.8-0.9-0.8c-0.5,0-0.8,0.4-0.8,0.8c0,0.5,0.4,0.8,0.8,0.8
		C265.5,1.7,265.8,1.3,265.8,0.8z"/>
	<path class="st0" d="M253.8,0.8c0-0.5-0.4-0.8-0.9-0.8c-0.5,0-0.9,0.4-0.9,0.8c0,0.5,0.4,0.8,0.9,0.8
		C253.5,1.7,253.8,1.3,253.8,0.8z"/>
	<path class="st0" d="M262.4,304.6c-0.5,0-0.8,0.4-0.8,0.9c0,0.5,0.4,0.8,0.8,0.8s0.8-0.4,0.8-0.8
		C263.3,305,262.9,304.6,262.4,304.6z"/>
	<path class="st0" d="M269.8,0.8c0-0.5-0.4-0.8-0.9-0.8c-0.5,0-0.8,0.4-0.8,0.8c0,0.5,0.4,0.8,0.8,0.8
		C269.5,1.7,269.8,1.3,269.8,0.8z"/>
	<path class="st0" d="M270.4,304.6c-0.5,0-0.8,0.4-0.8,0.9c0,0.5,0.4,0.8,0.8,0.8s0.8-0.4,0.8-0.8
		C271.3,305,270.9,304.6,270.4,304.6z"/>
	<path class="st0" d="M257.8,0.8c0-0.5-0.4-0.8-0.9-0.8c-0.5,0-0.8,0.4-0.8,0.8c0,0.5,0.4,0.8,0.8,0.8
		C257.5,1.7,257.8,1.3,257.8,0.8z"/>
	<path class="st0" d="M254.4,304.6c-0.5,0-0.8,0.4-0.8,0.9c0,0.5,0.4,0.8,0.8,0.8s0.8-0.4,0.8-0.8
		C255.3,305,254.9,304.6,254.4,304.6z"/>
	<path class="st0" d="M273.8,0.8c0-0.5-0.4-0.8-0.9-0.8c-0.5,0-0.8,0.4-0.8,0.8c0,0.5,0.4,0.8,0.8,0.8
		C273.5,1.7,273.8,1.3,273.8,0.8z"/>
	<path class="st0" d="M261.8,0.8c0-0.5-0.4-0.8-0.9-0.8c-0.5,0-0.8,0.4-0.8,0.8c0,0.5,0.4,0.8,0.8,0.8
		C261.5,1.7,261.8,1.3,261.8,0.8z"/>
	<path class="st0" d="M34.6,56.7c-0.2,0-0.5,0.1-0.7,0.3c-0.1,0.2-0.2,0.3-0.2,0.5c0,0.2,0.1,0.5,0.3,0.7c0.4,0.3,0.9,0.2,1.2-0.1v0
		c0.1-0.1,0.2-0.3,0.2-0.5c0-0.2-0.1-0.5-0.3-0.6C34.9,56.8,34.8,56.7,34.6,56.7z"/>
	<path class="st0" d="M39.8,50.6c-0.2,0-0.5,0.1-0.6,0.3c-0.1,0.2-0.2,0.4-0.2,0.6c0,0.2,0.1,0.5,0.3,0.6c0.3,0.3,0.9,0.3,1.2-0.1
		c0.1-0.2,0.2-0.4,0.2-0.6c0-0.2-0.1-0.5-0.3-0.6C40.1,50.7,40,50.6,39.8,50.6z"/>
	<path class="st0" d="M37.1,53.6c-0.2,0-0.5,0.1-0.7,0.3c-0.1,0.2-0.2,0.3-0.2,0.5c0,0.2,0.1,0.5,0.3,0.7c0.4,0.3,0.9,0.3,1.2-0.1
		c0.1-0.2,0.2-0.3,0.2-0.5c0-0.2-0.1-0.5-0.3-0.7C37.5,53.7,37.3,53.6,37.1,53.6z"/>
	<path class="st0" d="M318.4,304.6c-0.5,0-0.9,0.4-0.9,0.9c0,0.5,0.4,0.8,0.9,0.8c0.5,0,0.9-0.4,0.9-0.8
		C319.3,305,318.9,304.6,318.4,304.6z"/>
	<path class="st0" d="M27.4,66.4c-0.3,0-0.5,0.1-0.7,0.4c-0.1,0.1-0.2,0.3-0.2,0.5c0,0.3,0.1,0.5,0.4,0.7c0.4,0.3,0.9,0.2,1.2-0.2
		c0.1-0.1,0.2-0.3,0.2-0.5c0-0.3-0.1-0.5-0.4-0.7C27.7,66.4,27.6,66.4,27.4,66.4z"/>
	<path class="st0" d="M32.1,59.9c-0.3,0-0.5,0.1-0.7,0.3c-0.1,0.1-0.2,0.3-0.2,0.5c0,0.3,0.1,0.5,0.3,0.7c0.4,0.3,0.9,0.2,1.2-0.2
		c0.1-0.2,0.2-0.3,0.2-0.5c0-0.3-0.1-0.5-0.3-0.7C32.5,59.9,32.3,59.9,32.1,59.9z"/>
	<path class="st0" d="M137.1,0.8C137,0.8,137,0.8,137.1,0.8c-0.5,0-0.8,0.4-0.8,0.8c0,0,0,0.1,0,0.1c0,0.5,0.5,0.8,0.9,0.8
		c0.4,0,0.8-0.4,0.8-0.8c0,0,0,0,0-0.1C137.9,1.2,137.5,0.8,137.1,0.8z"/>
	<path class="st0" d="M29.7,63.1c-0.3,0-0.5,0.1-0.7,0.3c-0.1,0.2-0.2,0.3-0.2,0.5c0,0.3,0.1,0.5,0.4,0.7c0.4,0.3,0.9,0.2,1.2-0.2v0
		c0.1-0.2,0.2-0.3,0.2-0.5c0-0.2-0.1-0.5-0.4-0.7C30,63.1,29.9,63.1,29.7,63.1z"/>
	<path class="st0" d="M51,39.3c-0.2,0-0.4,0.1-0.6,0.2c0,0,0,0,0,0c-0.2,0.2-0.3,0.4-0.3,0.6c0,0.2,0.1,0.4,0.2,0.6
		c0.3,0.3,0.9,0.4,1.2,0c0.2-0.2,0.3-0.4,0.3-0.6c0-0.2-0.1-0.4-0.2-0.6C51.5,39.4,51.3,39.3,51,39.3z"/>
	<path class="st0" d="M48.1,42c-0.2,0-0.4,0.1-0.6,0.2c-0.2,0.2-0.3,0.4-0.3,0.6c0,0.2,0.1,0.4,0.2,0.6c0.3,0.3,0.9,0.3,1.2,0
		c0.2-0.2,0.3-0.4,0.3-0.6c0-0.2-0.1-0.4-0.2-0.6C48.5,42.1,48.3,42,48.1,42z"/>
	<path class="st0" d="M54,36.7c-0.2,0-0.4,0.1-0.5,0.2c-0.2,0.2-0.3,0.4-0.3,0.7c0,0.2,0.1,0.4,0.2,0.5c0.3,0.3,0.8,0.4,1.2,0.1
		c0.2-0.2,0.3-0.4,0.3-0.7c0-0.2-0.1-0.4-0.2-0.5C54.5,36.8,54.3,36.7,54,36.7z"/>
	<path class="st0" d="M25.2,69.7c-0.3,0-0.5,0.1-0.7,0.4c-0.1,0.1-0.1,0.3-0.1,0.5c0,0.3,0.1,0.5,0.4,0.7c0.4,0.3,0.9,0.1,1.2-0.2
		c0.1-0.1,0.1-0.3,0.1-0.5c0-0.3-0.1-0.6-0.4-0.7C25.5,69.7,25.3,69.7,25.2,69.7z"/>
	<path class="st0" d="M42.5,47.7c-0.2,0-0.5,0.1-0.6,0.3c-0.2,0.2-0.2,0.4-0.2,0.6c0,0.2,0.1,0.5,0.3,0.6c0.3,0.3,0.9,0.3,1.2,0
		c0.2-0.2,0.2-0.4,0.2-0.6c0-0.2-0.1-0.5-0.3-0.6C42.9,47.8,42.7,47.7,42.5,47.7z"/>
	<path class="st0" d="M45.2,44.8c-0.2,0-0.4,0.1-0.6,0.2c-0.2,0.2-0.2,0.4-0.2,0.6s0.1,0.4,0.2,0.6c0.3,0.3,0.9,0.3,1.2,0
		c0.2-0.2,0.2-0.4,0.2-0.6s-0.1-0.4-0.2-0.6S45.5,44.8,45.2,44.8z"/>
	<path class="st0" d="M2.7,129.1c0,0-0.1,0-0.1,0c-0.4,0-0.8,0.3-0.8,0.7c0,0,0,0,0,0c0,0,0,0.1,0,0.1c0,0.4,0.3,0.8,0.7,0.8
		c0.5,0.1,0.9-0.2,1-0.7c0,0,0-0.1,0-0.1C3.5,129.6,3.1,129.2,2.7,129.1z"/>
	<path class="st0" d="M3.4,125.2c-0.1,0-0.1,0-0.2,0c-0.4,0-0.8,0.3-0.8,0.7c0,0,0,0,0,0c0,0.1,0,0.1,0,0.2c0,0.4,0.3,0.8,0.7,0.8
		c0.5,0.1,0.9-0.2,1-0.7c0-0.1,0-0.1,0-0.1C4.1,125.6,3.8,125.3,3.4,125.2z"/>
	<path class="st0" d="M2.2,133.1c0,0-0.1,0-0.1,0c-0.4,0-0.8,0.3-0.8,0.7c0,0,0,0.1,0,0.1c0,0.4,0.3,0.8,0.7,0.8
		c0.5,0.1,0.9-0.3,0.9-0.7c0,0,0-0.1,0-0.1C2.9,133.5,2.6,133.1,2.2,133.1z"/>
	<path class="st0" d="M5.1,117.4c-0.1,0-0.1,0-0.2,0c-0.4,0-0.7,0.3-0.8,0.7c0,0.1,0,0.1,0,0.2c0,0.4,0.3,0.7,0.7,0.8
		c0.5,0.1,0.9-0.2,1-0.6c0-0.1,0-0.1,0-0.2C5.7,117.8,5.5,117.5,5.1,117.4z"/>
	<path class="st0" d="M4.2,121.3c-0.1,0-0.1,0-0.2,0c-0.4,0-0.8,0.3-0.8,0.7c0,0.1,0,0.1,0,0.2c0,0.4,0.3,0.8,0.7,0.8
		c0.5,0.1,0.9-0.2,1-0.7c0-0.1,0-0.1,0-0.2C4.9,121.7,4.6,121.4,4.2,121.3z"/>
	<path class="st0" d="M6.1,113.5c-0.1,0-0.1,0-0.2,0c-0.4,0-0.7,0.2-0.8,0.6c0,0.1,0,0.1,0,0.2c0,0.4,0.2,0.7,0.6,0.8
		c0.5,0.1,0.9-0.1,1-0.6c0-0.1,0-0.1,0-0.2C6.7,114,6.5,113.6,6.1,113.5z"/>
	<path class="st0" d="M1.1,145C1,145,1,145,1.1,145c-0.5,0-0.9,0.4-0.9,0.8c0,0,0,0,0,0c0,0.5,0.4,0.8,0.8,0.8
		c0.5,0,0.9-0.3,0.9-0.8c0,0,0,0,0,0C1.9,145.4,1.5,145,1.1,145z"/>
	<path class="st0" d="M1.7,137.1C1.7,137.1,1.6,137.1,1.7,137.1c-0.5,0-0.9,0.3-0.9,0.8c0,0,0,0,0,0.1c0,0.4,0.3,0.8,0.8,0.8
		c0.5,0,0.9-0.3,0.9-0.8c0,0,0-0.1,0-0.1C2.5,137.5,2.1,137.1,1.7,137.1z"/>
	<path class="st0" d="M0.9,150.7c0.5,0,0.9-0.4,0.9-0.8c0,0,0,0,0,0c0-0.5-0.4-0.8-0.8-0.8c0,0,0,0,0,0c-0.5,0-0.8,0.4-0.8,0.8
		c0,0,0,0,0,0C0,150.3,0.4,150.7,0.9,150.7z"/>
	<path class="st0" d="M1.3,141C1.3,141,1.3,141,1.3,141c-0.5,0-0.9,0.3-0.9,0.8c0,0,0,0,0,0.1c0,0.4,0.3,0.8,0.8,0.8
		c0.5,0,0.9-0.3,0.9-0.8c0,0,0,0,0-0.1C2.1,141.4,1.8,141.1,1.3,141z"/>
	<path class="st0" d="M21,76.5c-0.3,0-0.6,0.2-0.7,0.4c-0.1,0.1-0.1,0.3-0.1,0.4c0,0.3,0.2,0.6,0.4,0.7c0.4,0.2,0.9,0.1,1.2-0.3
		c0.1-0.1,0.1-0.3,0.1-0.4c0-0.3-0.1-0.6-0.4-0.7C21.3,76.6,21.2,76.5,21,76.5z"/>
	<path class="st0" d="M7.1,109.7c-0.1,0-0.2,0-0.2,0c-0.4,0-0.7,0.2-0.8,0.6c0,0.1,0,0.1,0,0.2c0,0.4,0.2,0.7,0.6,0.8
		c0.5,0.1,0.9-0.1,1-0.6c0-0.1,0-0.2,0-0.2C7.8,110.1,7.5,109.8,7.1,109.7z"/>
	<path class="st0" d="M17.6,83.7c-0.1-0.1-0.2-0.1-0.4-0.1c-0.3,0-0.6,0.2-0.8,0.5c-0.1,0.1-0.1,0.2-0.1,0.4c0,0.3,0.2,0.6,0.5,0.8
		c0.4,0.2,0.9,0,1.2-0.4h0c0.1-0.1,0.1-0.3,0.1-0.4C18.1,84.1,17.9,83.8,17.6,83.7z"/>
	<path class="st0" d="M19.5,80.1c-0.1-0.1-0.3-0.1-0.4-0.1c-0.3,0-0.6,0.2-0.8,0.5c-0.1,0.1-0.1,0.3-0.1,0.4c0,0.3,0.2,0.6,0.5,0.8
		c0.4,0.2,0.9,0.1,1.1-0.4v0c0.1-0.1,0.1-0.3,0.1-0.4C19.9,80.6,19.8,80.3,19.5,80.1z"/>
	<path class="st0" d="M23.5,73.2c-0.1-0.1-0.3-0.1-0.4-0.1c-0.3,0-0.6,0.1-0.7,0.4c-0.1,0.1-0.1,0.3-0.1,0.4c0,0.3,0.1,0.6,0.4,0.7
		c0.4,0.2,0.9,0.1,1.2-0.3c0.1-0.1,0.1-0.3,0.1-0.4C23.9,73.6,23.8,73.4,23.5,73.2z"/>
	<path class="st0" d="M14.1,90.9c-0.1,0-0.2-0.1-0.3-0.1c-0.3,0-0.6,0.2-0.8,0.5c0,0.1-0.1,0.2-0.1,0.4c0,0.3,0.2,0.6,0.5,0.8
		c0.4,0.2,0.9,0,1.1-0.4c0.1-0.1,0.1-0.2,0.1-0.3C14.6,91.3,14.4,91,14.1,90.9z"/>
	<path class="st0" d="M15.8,87.2c-0.1-0.1-0.2-0.1-0.4-0.1c-0.3,0-0.6,0.2-0.8,0.5c0,0,0,0,0,0c-0.1,0.1-0.1,0.2-0.1,0.4
		c0,0.3,0.2,0.6,0.5,0.8c0.4,0.2,0.9,0,1.1-0.4c0.1-0.1,0.1-0.2,0.1-0.4C16.3,87.7,16.1,87.4,15.8,87.2z"/>
	<path class="st0" d="M12.5,94.6c-0.1,0-0.2-0.1-0.3-0.1c-0.3,0-0.7,0.2-0.8,0.5c0,0.1-0.1,0.2-0.1,0.3c0,0.3,0.2,0.6,0.5,0.8
		c0.4,0.2,0.9,0,1.1-0.5c0.1-0.1,0.1-0.2,0.1-0.3C13,95,12.8,94.7,12.5,94.6z"/>
	<path class="st0" d="M8.3,105.8c-0.1,0-0.2,0-0.3,0c-0.4,0-0.7,0.2-0.8,0.6c0,0.1,0,0.2,0,0.2c0,0.4,0.2,0.7,0.6,0.8
		c0.5,0.1,0.9-0.1,1.1-0.5c0-0.1,0-0.2,0-0.2C8.9,106.3,8.7,106,8.3,105.8z"/>
	<path class="st0" d="M9.6,102c-0.1,0-0.2,0-0.3,0c-0.3,0-0.7,0.2-0.8,0.6c0,0.1,0,0.2,0,0.3c0,0.3,0.2,0.7,0.6,0.8
		c0.4,0.2,0.9-0.1,1.1-0.5c0-0.1,0-0.2,0-0.3C10.2,102.5,10,102.2,9.6,102z"/>
	<path class="st0" d="M11,98.3c-0.1,0-0.2-0.1-0.3-0.1c-0.3,0-0.7,0.2-0.8,0.5c0,0.1-0.1,0.2-0.1,0.3c0,0.4,0.2,0.7,0.5,0.8
		c0.4,0.2,0.9-0.1,1.1-0.5c0-0.1,0.1-0.2,0.1-0.3C11.6,98.7,11.4,98.4,11,98.3z"/>
	<path class="st0" d="M109.7,6.3c-0.1,0-0.2,0-0.2,0c0,0,0,0,0,0c-0.4,0.1-0.6,0.4-0.6,0.8c0,0.1,0,0.2,0,0.2
		c0.1,0.5,0.6,0.7,1.1,0.6c0.4-0.1,0.6-0.4,0.6-0.8c0-0.1,0-0.2,0-0.2C110.4,6.5,110,6.3,109.7,6.3z"/>
	<path class="st0" d="M105.8,7.5c-0.1,0-0.2,0-0.3,0C105.2,7.6,105,8,105,8.3c0,0.1,0,0.2,0,0.3c0.2,0.5,0.6,0.7,1.1,0.5
		c0.4-0.1,0.6-0.4,0.6-0.8c0-0.1,0-0.2,0-0.3C106.5,7.7,106.2,7.5,105.8,7.5z"/>
	<path class="st0" d="M113.5,5.2c-0.1,0-0.1,0-0.2,0c-0.4,0.1-0.6,0.4-0.6,0.8c0,0.1,0,0.1,0,0.2c0.1,0.5,0.6,0.7,1,0.6
		c0.4-0.1,0.6-0.5,0.6-0.8c0-0.1,0-0.1,0-0.2C114.2,5.5,113.9,5.2,113.5,5.2z"/>
	<path class="st0" d="M98.3,10.2c-0.1,0-0.2,0-0.3,0.1c-0.3,0.1-0.5,0.5-0.5,0.8c0,0.1,0,0.2,0.1,0.3c0.2,0.4,0.7,0.6,1.1,0.5
		c0.3-0.1,0.5-0.4,0.5-0.8c0-0.1,0-0.2-0.1-0.3C99,10.4,98.6,10.2,98.3,10.2z"/>
	<path class="st0" d="M57.1,34.1c-0.2,0-0.4,0.1-0.5,0.2c-0.2,0.2-0.3,0.4-0.3,0.7c0,0.2,0.1,0.4,0.2,0.5c0.3,0.4,0.8,0.4,1.2,0.1
		c0.2-0.2,0.3-0.4,0.3-0.7c0-0.2-0.1-0.4-0.2-0.5C57.6,34.2,57.3,34.1,57.1,34.1z"/>
	<path class="st0" d="M102.1,8.8c-0.1,0-0.2,0-0.3,0.1c-0.3,0.1-0.6,0.4-0.6,0.8c0,0.1,0,0.2,0,0.3c0.2,0.4,0.6,0.7,1.1,0.5
		c0.3-0.1,0.6-0.5,0.6-0.8c0-0.1,0-0.2-0.1-0.3C102.7,9,102.4,8.8,102.1,8.8z"/>
	<path class="st0" d="M129.1,1.9c0,0-0.1,0-0.1,0c-0.4,0.1-0.7,0.4-0.7,0.8c0,0,0,0.1,0,0.1c0.1,0.5,0.5,0.8,1,0.7
		c0.4-0.1,0.7-0.4,0.7-0.8c0,0,0-0.1,0-0.1C129.9,2.2,129.5,1.9,129.1,1.9z"/>
	<path class="st0" d="M117.4,4.2c-0.1,0-0.1,0-0.2,0c-0.4,0.1-0.7,0.4-0.7,0.8c0,0.1,0,0.1,0,0.2c0.1,0.5,0.6,0.7,1,0.6
		c0.4-0.1,0.6-0.4,0.6-0.8c0-0.1,0-0.1,0-0.2C118.1,4.5,117.8,4.2,117.4,4.2z"/>
	<path class="st0" d="M94.6,11.7c-0.1,0-0.2,0-0.3,0.1c-0.3,0.1-0.5,0.5-0.5,0.8c0,0.1,0,0.2,0.1,0.3c0.2,0.4,0.7,0.6,1.1,0.5
		c0.3-0.1,0.5-0.5,0.5-0.8c0-0.1,0-0.2-0.1-0.3C95.3,11.8,95,11.7,94.6,11.7z"/>
	<path class="st0" d="M133.1,1.3c0,0-0.1,0-0.1,0c-0.4,0.1-0.7,0.4-0.7,0.9c0,0,0,0.1,0,0.1c0.1,0.5,0.5,0.8,1,0.7
		c0.4-0.1,0.7-0.4,0.7-0.9c0,0,0-0.1,0-0.1C133.9,1.6,133.5,1.3,133.1,1.3z"/>
	<path class="st0" d="M121.3,3.3c-0.1,0-0.1,0-0.2,0c-0.4,0.1-0.7,0.4-0.7,0.8c0,0.1,0,0.1,0,0.2c0.1,0.5,0.5,0.8,1,0.7
		c0.4-0.1,0.7-0.4,0.7-0.8c0,0,0-0.1,0-0.2C122,3.6,121.7,3.3,121.3,3.3z"/>
	<path class="st0" d="M125.2,2.6c-0.1,0-0.1,0-0.2,0c-0.4,0.1-0.7,0.4-0.7,0.8c0,0,0,0.1,0,0.1c0.1,0.5,0.5,0.8,1,0.7
		c0.4-0.1,0.7-0.4,0.7-0.8c0,0,0-0.1,0-0.1C126,2.8,125.6,2.6,125.2,2.6z"/>
	<path class="st0" d="M66.7,26.9c-0.2,0-0.3,0-0.5,0.1c-0.2,0.2-0.4,0.4-0.4,0.7c0,0.2,0.1,0.3,0.2,0.5c0.3,0.4,0.8,0.5,1.2,0.2
		c0.2-0.2,0.4-0.4,0.4-0.7c0-0.2,0-0.3-0.1-0.5C67.2,27,66.9,26.9,66.7,26.9z"/>
	<path class="st0" d="M73.3,22.6c-0.1,0-0.3,0-0.5,0.1c-0.3,0.2-0.4,0.5-0.4,0.7c0,0.1,0,0.3,0.1,0.4c0.2,0.4,0.8,0.5,1.2,0.3
		c0.3-0.2,0.4-0.4,0.4-0.7c0-0.1,0-0.3-0.1-0.4C73.9,22.7,73.6,22.6,73.3,22.6z"/>
	<path class="st0" d="M70,24.7c-0.2,0-0.3,0-0.5,0.1c0,0,0,0,0,0c-0.2,0.2-0.4,0.4-0.4,0.7c0,0.2,0,0.3,0.1,0.5
		c0.2,0.4,0.8,0.5,1.2,0.2c0.3-0.2,0.4-0.4,0.4-0.7c0-0.2-0.1-0.3-0.1-0.5C70.5,24.8,70.2,24.7,70,24.7z"/>
	<path class="st0" d="M60.2,31.6c-0.2,0-0.4,0.1-0.5,0.2c-0.2,0.2-0.3,0.4-0.3,0.7c0,0.2,0.1,0.3,0.2,0.5c0.3,0.4,0.8,0.4,1.2,0.1h0
		c0.2-0.2,0.3-0.4,0.3-0.7c0-0.2-0.1-0.4-0.2-0.5C60.7,31.8,60.5,31.6,60.2,31.6z"/>
	<path class="st0" d="M63.4,29.2c-0.2,0-0.4,0.1-0.5,0.2c-0.2,0.2-0.3,0.4-0.4,0.7c0,0.2,0,0.3,0.2,0.5c0.3,0.4,0.8,0.5,1.2,0.2
		c0.2-0.2,0.3-0.4,0.3-0.7c0-0.2,0-0.3-0.2-0.5C63.9,29.4,63.7,29.2,63.4,29.2z"/>
	<path class="st0" d="M83.8,16.7c-0.1,0-0.3,0-0.4,0.1c-0.3,0.2-0.5,0.5-0.5,0.8c0,0.1,0,0.3,0.1,0.4c0.2,0.4,0.7,0.6,1.2,0.4
		c0.3-0.2,0.5-0.5,0.5-0.8c0-0.1,0-0.3-0.1-0.4C84.4,16.8,84.1,16.7,83.8,16.7z"/>
	<path class="st0" d="M87.3,14.9c-0.1,0-0.2,0-0.4,0.1c-0.3,0.1-0.5,0.5-0.5,0.8c0,0.1,0,0.2,0.1,0.4c0.2,0.4,0.7,0.6,1.1,0.4
		c0.3-0.1,0.5-0.4,0.5-0.8c0-0.1,0-0.2-0.1-0.4C88,15.1,87.7,14.9,87.3,14.9z"/>
	<path class="st0" d="M91,13.2c-0.1,0-0.2,0-0.4,0.1c-0.3,0.1-0.5,0.5-0.5,0.8c0,0.1,0,0.2,0.1,0.3c0.2,0.4,0.7,0.6,1.1,0.4
		c0.3-0.1,0.5-0.4,0.5-0.8c0-0.1,0-0.2-0.1-0.3C91.6,13.4,91.3,13.2,91,13.2z"/>
	<path class="st0" d="M76.8,20.5c-0.1,0-0.3,0-0.4,0.1c-0.3,0.2-0.4,0.4-0.4,0.7c0,0.2,0,0.3,0.1,0.4c0.2,0.4,0.8,0.5,1.2,0.3
		c0.3-0.2,0.4-0.4,0.4-0.7c0-0.1,0-0.3-0.1-0.4C77.3,20.7,77.1,20.5,76.8,20.5z"/>
	<path class="st0" d="M80.2,18.5c-0.1,0-0.3,0-0.4,0.1c-0.3,0.2-0.4,0.5-0.4,0.8c0,0.1,0,0.3,0.1,0.4c0.2,0.4,0.7,0.6,1.1,0.3
		c0.3-0.2,0.5-0.4,0.5-0.8c0-0.1,0-0.3-0.1-0.4C80.8,18.7,80.5,18.5,80.2,18.5z"/>
	<path class="st0" d="M209.8,0.8c0-0.5-0.4-0.8-0.8-0.8c-0.5,0-0.9,0.4-0.9,0.8c0,0.5,0.4,0.8,0.9,0.8
		C209.5,1.7,209.8,1.3,209.8,0.8z"/>
	<path class="st0" d="M532.4,90.6c0.2,0.4,0.7,0.6,1.1,0.4c0.3-0.1,0.5-0.5,0.5-0.8c0-0.1,0-0.2-0.1-0.4c-0.1-0.3-0.5-0.5-0.8-0.5
		c-0.1,0-0.2,0-0.4,0.1c-0.3,0.1-0.5,0.5-0.5,0.8C532.3,90.4,532.3,90.5,532.4,90.6z"/>
	<path class="st0" d="M534,94.3c0.2,0.4,0.7,0.6,1.1,0.5c0.3-0.1,0.5-0.5,0.5-0.8c0-0.1,0-0.2-0.1-0.3c-0.1-0.3-0.5-0.5-0.8-0.5
		c-0.1,0-0.2,0-0.3,0.1c-0.3,0.1-0.5,0.4-0.5,0.8C533.9,94,533.9,94.2,534,94.3z"/>
	<path class="st0" d="M535.5,97.9c0.2,0.4,0.7,0.7,1.1,0.5c0.3-0.1,0.5-0.5,0.5-0.8c0-0.1,0-0.2-0.1-0.3c-0.1-0.3-0.4-0.5-0.8-0.5
		c-0.1,0-0.2,0-0.3,0.1c-0.3,0.1-0.5,0.5-0.5,0.8C535.4,97.7,535.4,97.8,535.5,97.9z"/>
	<path class="st0" d="M531.8,87.5c0.3-0.2,0.5-0.5,0.5-0.8c0-0.1,0-0.2-0.1-0.4c-0.1-0.3-0.5-0.5-0.8-0.5c-0.1,0-0.2,0-0.4,0.1
		c-0.3,0.1-0.5,0.5-0.5,0.8c0,0.1,0,0.2,0.1,0.4C530.9,87.5,531.4,87.6,531.8,87.5z"/>
	<path class="st0" d="M536.9,101.7c0.2,0.4,0.6,0.7,1.1,0.5c0.3-0.1,0.6-0.5,0.6-0.8c0-0.1,0-0.2-0.1-0.3c-0.1-0.3-0.4-0.6-0.8-0.6
		c-0.1,0-0.2,0-0.3,0c-0.4,0.1-0.6,0.5-0.6,0.8C536.8,101.5,536.8,101.6,536.9,101.7z"/>
	<path class="st0" d="M524.2,73.5c0.3-0.2,0.4-0.5,0.4-0.7c0-0.2,0-0.3-0.1-0.4c-0.2-0.3-0.4-0.4-0.7-0.4c-0.1,0-0.3,0-0.5,0.1
		c-0.3,0.2-0.4,0.5-0.4,0.7c0,0.1,0.1,0.3,0.1,0.4C523.3,73.6,523.8,73.7,524.2,73.5z"/>
	<path class="st0" d="M538.1,105.1c0,0.1,0,0.2,0,0.3c0.1,0.4,0.6,0.7,1.1,0.5c0.4-0.1,0.6-0.4,0.6-0.8c0-0.1,0-0.2-0.1-0.3
		c-0.1-0.4-0.4-0.6-0.8-0.6c-0.1,0-0.2,0-0.3,0C538.3,104.5,538.1,104.8,538.1,105.1z"/>
	<path class="st0" d="M530.1,83.9c0.3-0.2,0.5-0.5,0.5-0.8c0-0.1,0-0.3-0.1-0.4c-0.2-0.3-0.5-0.5-0.8-0.5c-0.1,0-0.3,0-0.4,0.1
		c-0.3,0.1-0.5,0.4-0.4,0.8c0,0.1,0,0.3,0.1,0.4C529.1,83.9,529.6,84.1,530.1,83.9z"/>
	<path class="st0" d="M522.1,70.1c0.2-0.2,0.4-0.4,0.4-0.7c0-0.2,0-0.3-0.1-0.5c-0.2-0.2-0.4-0.4-0.7-0.4c-0.2,0-0.3,0-0.5,0.1
		c-0.2,0.2-0.4,0.4-0.4,0.7c0,0.1,0,0.3,0.1,0.5C521.1,70.2,521.7,70.3,522.1,70.1z"/>
	<path class="st0" d="M526.2,76.9c0.3-0.2,0.4-0.5,0.4-0.7c0-0.1,0-0.3-0.1-0.4c-0.2-0.3-0.4-0.4-0.7-0.4c-0.1,0-0.3,0-0.4,0.1
		c-0.3,0.2-0.4,0.4-0.4,0.7c0,0.1,0,0.3,0.1,0.4C525.3,77,525.8,77.1,526.2,76.9z"/>
	<path class="st0" d="M528.2,80.3c0.3-0.2,0.4-0.5,0.4-0.8c0-0.1,0-0.3-0.1-0.4c-0.2-0.3-0.5-0.4-0.8-0.4c-0.1,0-0.3,0-0.4,0.1
		c-0.3,0.2-0.4,0.5-0.4,0.8c0,0.1,0,0.3,0.1,0.4C527.3,80.4,527.8,80.6,528.2,80.3z"/>
	<path class="st0" d="M522.4,234.8c-0.3,0-0.5,0.1-0.7,0.4c-0.1,0.1-0.1,0.3-0.1,0.4c0,0.3,0.1,0.6,0.4,0.7c0.4,0.3,0.9,0.1,1.2-0.2
		c0.1-0.1,0.1-0.3,0.1-0.5c0-0.3-0.1-0.6-0.4-0.7C522.7,234.8,522.6,234.8,522.4,234.8z"/>
	<path class="st0" d="M544.5,127.6c-0.4,0.1-0.7,0.4-0.7,0.8c0,0,0,0.1,0,0.1c0.1,0.5,0.5,0.8,1,0.7c0.4-0.1,0.7-0.4,0.7-0.8
		c0-0.1,0-0.1,0-0.1c-0.1-0.4-0.4-0.7-0.8-0.7C544.6,127.6,544.6,127.6,544.5,127.6z"/>
	<path class="st0" d="M545.2,131.5c-0.4,0.1-0.7,0.4-0.7,0.8c0,0,0,0.1,0,0.1c0.1,0.5,0.5,0.8,0.9,0.7c0.4-0.1,0.7-0.4,0.7-0.9
		c0,0,0-0.1,0-0.1c-0.1-0.4-0.4-0.7-0.8-0.7C545.2,131.5,545.2,131.5,545.2,131.5z"/>
	<path class="st0" d="M545.7,135.5c-0.4,0-0.8,0.4-0.8,0.8c0,0,0,0.1,0,0.1c0.1,0.5,0.5,0.8,0.9,0.8c0.4,0,0.8-0.4,0.8-0.8
		c0,0,0-0.1,0-0.1C546.6,135.8,546.2,135.5,545.7,135.5C545.7,135.5,545.7,135.5,545.7,135.5z"/>
	<path class="st0" d="M546.4,143.4c-0.5,0-0.8,0.4-0.8,0.9c0,0,0,0,0,0c0,0.5,0.4,0.8,0.9,0.8c0.5,0,0.8-0.4,0.8-0.9c0,0,0,0,0-0.1
		C547.3,143.8,546.9,143.4,546.4,143.4C546.4,143.4,546.4,143.4,546.4,143.4z"/>
	<path class="st0" d="M546.1,139.5c-0.4,0-0.8,0.4-0.8,0.9c0,0,0,0,0,0.1c0,0.5,0.5,0.8,0.9,0.8c0.5,0,0.8-0.4,0.8-0.9
		c0,0,0,0,0-0.1C547,139.8,546.6,139.5,546.1,139.5C546.1,139.5,546.1,139.5,546.1,139.5z"/>
	<path class="st0" d="M541.4,116.7c0,0.1,0,0.1,0,0.2c0.1,0.5,0.6,0.7,1,0.6c0.4-0.1,0.6-0.5,0.6-0.8c0-0.1,0-0.1,0-0.2
		c-0.1-0.4-0.4-0.7-0.8-0.7c-0.1,0-0.1,0-0.2,0C541.7,115.9,541.4,116.3,541.4,116.7z"/>
	<path class="st0" d="M539.3,109c0,0.1,0,0.2,0,0.2c0.1,0.5,0.6,0.7,1.1,0.6c0.4-0.1,0.6-0.4,0.6-0.8c0-0.1,0-0.2,0-0.3
		c-0.1-0.4-0.5-0.6-0.8-0.6c-0.1,0-0.2,0-0.2,0C539.6,108.3,539.3,108.6,539.3,109z"/>
	<path class="st0" d="M540.4,112.8c0,0.1,0,0.2,0,0.2c0.1,0.5,0.6,0.7,1.1,0.6c0.4-0.1,0.6-0.4,0.6-0.8c0-0.1,0-0.2,0-0.2
		c-0.1-0.4-0.4-0.6-0.8-0.6c-0.1,0-0.1,0-0.2,0C540.7,112.1,540.4,112.4,540.4,112.8z"/>
	<path class="st0" d="M542.3,120.6c0,0.1,0,0.1,0,0.2c0.1,0.5,0.5,0.8,1,0.6c0.4-0.1,0.7-0.4,0.7-0.8c0-0.1,0-0.1,0-0.2
		c-0.1-0.4-0.4-0.7-0.8-0.7c-0.1,0-0.1,0-0.2,0C542.6,119.8,542.3,120.2,542.3,120.6z"/>
	<path class="st0" d="M543.8,123.6c-0.4,0.1-0.7,0.4-0.7,0.8c0,0,0,0.1,0,0.2c0.1,0.5,0.5,0.8,1,0.7c0.4-0.1,0.7-0.4,0.7-0.8
		c0,0,0-0.1,0-0.2c-0.1-0.4-0.4-0.7-0.8-0.7C543.9,123.6,543.9,123.6,543.8,123.6z"/>
	<path class="st0" d="M546.6,147.4C546.6,147.4,546.6,147.4,546.6,147.4c-0.5,0-0.9,0.4-0.9,0.9c0,0,0,0,0,0c0,0.5,0.4,0.8,0.9,0.8
		c0.5,0,0.8-0.4,0.8-0.9c0,0,0,0,0,0C547.4,147.8,547.1,147.4,546.6,147.4z"/>
	<path class="st0" d="M502.2,44.7c0-0.2-0.1-0.4-0.2-0.6c-0.2-0.2-0.4-0.2-0.6-0.2c-0.2,0-0.4,0.1-0.6,0.2c-0.2,0.2-0.2,0.4-0.2,0.6
		c0,0.2,0.1,0.4,0.2,0.6c0.3,0.3,0.9,0.3,1.2,0C502.1,45.1,502.2,44.9,502.2,44.7z"/>
	<path class="st0" d="M502.4,259.7c-0.2,0-0.4,0.1-0.6,0.2c-0.2,0.2-0.2,0.4-0.2,0.6c0,0.2,0.1,0.4,0.2,0.6c0.3,0.3,0.9,0.3,1.2,0
		c0.2-0.2,0.2-0.4,0.2-0.6c0-0.2-0.1-0.4-0.2-0.6C502.8,259.8,502.6,259.7,502.4,259.7z"/>
	<path class="st0" d="M505.2,256.8c-0.2,0-0.5,0.1-0.6,0.3c-0.1,0.2-0.2,0.4-0.2,0.6c0,0.2,0.1,0.5,0.3,0.6c0.3,0.3,0.9,0.3,1.2,0
		c0.1-0.2,0.2-0.4,0.2-0.6c0-0.2-0.1-0.5-0.3-0.6C505.6,256.9,505.4,256.8,505.2,256.8z"/>
	<path class="st0" d="M507.7,50.5c0-0.2-0.1-0.4-0.2-0.6c-0.2-0.2-0.4-0.3-0.6-0.3c-0.2,0-0.4,0.1-0.6,0.2c-0.2,0.2-0.3,0.4-0.3,0.6
		c0,0.2,0.1,0.4,0.2,0.6c0.3,0.3,0.9,0.4,1.2,0.1C507.6,50.9,507.7,50.7,507.7,50.5z"/>
	<path class="st0" d="M499.5,262.5c-0.2,0-0.4,0.1-0.6,0.2c-0.2,0.2-0.3,0.4-0.3,0.6c0,0.2,0.1,0.4,0.2,0.6c0.3,0.3,0.9,0.4,1.2,0
		c0.2-0.2,0.3-0.4,0.3-0.6c0-0.2-0.1-0.4-0.2-0.6C500,262.6,499.8,262.5,499.5,262.5z"/>
	<path class="st0" d="M505,47.6c0-0.2-0.1-0.4-0.2-0.6c0,0,0,0,0,0c-0.2-0.2-0.4-0.3-0.6-0.3c-0.2,0-0.4,0.1-0.6,0.2
		c-0.2,0.2-0.3,0.4-0.3,0.6c0,0.2,0.1,0.4,0.2,0.6v0c0.3,0.3,0.9,0.4,1.2,0C504.9,48,505,47.8,505,47.6z"/>
	<path class="st0" d="M496.3,39.2c0-0.2-0.1-0.5-0.3-0.6c-0.2-0.1-0.4-0.2-0.6-0.2c-0.2,0-0.5,0.1-0.6,0.3c-0.1,0.2-0.2,0.4-0.2,0.6
		c0,0.2,0.1,0.5,0.3,0.6c0.3,0.3,0.9,0.3,1.2-0.1C496.3,39.7,496.3,39.5,496.3,39.2z"/>
	<path class="st0" d="M499.3,42c0-0.2-0.1-0.5-0.3-0.6c-0.2-0.2-0.4-0.2-0.6-0.2c-0.2,0-0.5,0.1-0.6,0.3c-0.1,0.2-0.2,0.4-0.2,0.6
		c0,0.2,0.1,0.5,0.3,0.6c0.4,0.3,0.9,0.3,1.2,0C499.2,42.4,499.3,42.2,499.3,42z"/>
	<path class="st0" d="M493.6,267.8c-0.2,0-0.4,0.1-0.5,0.2c-0.2,0.2-0.3,0.4-0.3,0.7c0,0.2,0.1,0.4,0.2,0.5c0.3,0.4,0.8,0.4,1.2,0.1
		c0.2-0.2,0.3-0.4,0.3-0.7c0-0.2-0.1-0.4-0.2-0.5C494.1,267.9,493.9,267.8,493.6,267.8z"/>
	<path class="st0" d="M493.3,36.6c0-0.2-0.1-0.5-0.3-0.7c-0.1-0.1-0.3-0.2-0.5-0.2c-0.2,0-0.5,0.1-0.6,0.3c-0.1,0.2-0.2,0.3-0.2,0.5
		c0,0.2,0.1,0.5,0.3,0.7c0.4,0.3,0.9,0.3,1.2-0.1C493.3,37,493.3,36.8,493.3,36.6z"/>
	<path class="st0" d="M515.5,59.6c0-0.2-0.1-0.4-0.2-0.5c-0.2-0.2-0.4-0.3-0.7-0.3c-0.2,0-0.4,0.1-0.5,0.2c-0.2,0.2-0.3,0.4-0.3,0.7
		c0,0.2,0.1,0.4,0.2,0.5c0.3,0.4,0.8,0.4,1.2,0.1C515.3,60.1,515.5,59.9,515.5,59.6z"/>
	<path class="st0" d="M515.5,244.6c-0.2,0-0.5,0.1-0.7,0.3c-0.1,0.1-0.2,0.3-0.2,0.5c0,0.3,0.1,0.5,0.3,0.7c0.4,0.3,0.9,0.2,1.2-0.2
		c0.1-0.2,0.2-0.3,0.2-0.5c0-0.3-0.1-0.5-0.3-0.7C515.9,244.7,515.7,244.6,515.5,244.6z"/>
	<path class="st0" d="M517.9,62.8c0-0.2,0-0.3-0.2-0.5c0,0,0,0,0,0c-0.2-0.2-0.4-0.3-0.7-0.3c-0.2,0-0.3,0-0.5,0.2
		c-0.2,0.2-0.3,0.4-0.3,0.7c0,0.2,0,0.4,0.2,0.5c0.3,0.4,0.8,0.5,1.2,0.2C517.7,63.3,517.9,63.1,517.9,62.8z"/>
	<path class="st0" d="M520.2,238.1c-0.3,0-0.5,0.1-0.7,0.4c-0.1,0.2-0.1,0.3-0.1,0.5c0,0.3,0.1,0.5,0.4,0.7c0.4,0.3,0.9,0.2,1.2-0.2
		c0.1-0.2,0.1-0.3,0.1-0.5c0-0.3-0.1-0.5-0.4-0.7C520.5,238.2,520.4,238.1,520.2,238.1z"/>
	<path class="st0" d="M517.9,241.4c-0.3,0-0.5,0.1-0.7,0.4c-0.1,0.1-0.2,0.3-0.2,0.5c0,0.3,0.1,0.5,0.4,0.7c0.4,0.3,0.9,0.2,1.2-0.2
		c0.1-0.1,0.2-0.3,0.2-0.5c0-0.3-0.1-0.5-0.4-0.7C518.3,241.5,518.1,241.4,517.9,241.4z"/>
	<path class="st0" d="M507.9,253.9c-0.2,0-0.5,0.1-0.6,0.3c-0.1,0.2-0.2,0.4-0.2,0.6c0,0.2,0.1,0.5,0.3,0.6c0.4,0.3,0.9,0.3,1.2-0.1
		c0.2-0.2,0.2-0.4,0.2-0.6c0-0.2-0.1-0.5-0.3-0.6C508.3,253.9,508.1,253.9,507.9,253.9z"/>
	<path class="st0" d="M520.2,66.1c0-0.2,0-0.3-0.2-0.5c-0.2-0.2-0.4-0.4-0.7-0.4c-0.2,0-0.3,0-0.5,0.2c-0.2,0.2-0.4,0.4-0.4,0.7
		c0,0.2,0.1,0.3,0.2,0.5c0.3,0.4,0.8,0.5,1.2,0.2C520.1,66.6,520.2,66.3,520.2,66.1z"/>
	<path class="st0" d="M510.4,53.5c0-0.2-0.1-0.4-0.2-0.5c-0.2-0.2-0.4-0.3-0.6-0.3c-0.2,0-0.4,0.1-0.6,0.2c-0.2,0.2-0.3,0.4-0.3,0.6
		c0,0.2,0.1,0.4,0.2,0.6c0.3,0.4,0.9,0.4,1.2,0.1C510.3,53.9,510.4,53.7,510.4,53.5z"/>
	<path class="st0" d="M510.5,250.8c-0.2,0-0.5,0.1-0.6,0.3c-0.1,0.1-0.2,0.3-0.2,0.5c0,0.2,0.1,0.5,0.3,0.7c0.4,0.3,0.9,0.3,1.2-0.1
		c0.1-0.2,0.2-0.3,0.2-0.5c0-0.2-0.1-0.5-0.3-0.7C510.9,250.9,510.7,250.8,510.5,250.8z"/>
	<path class="st0" d="M513,56.5c0-0.2-0.1-0.4-0.2-0.5c-0.2-0.2-0.4-0.3-0.7-0.3c-0.2,0-0.4,0.1-0.5,0.2c-0.2,0.2-0.3,0.4-0.3,0.7
		c0,0.2,0.1,0.4,0.2,0.5c0.3,0.4,0.8,0.4,1.2,0.1C512.8,57,513,56.8,513,56.5z"/>
	<path class="st0" d="M513.1,247.8c-0.2,0-0.5,0.1-0.7,0.3c-0.1,0.2-0.2,0.4-0.2,0.5c0,0.2,0.1,0.5,0.3,0.7c0.4,0.3,0.9,0.2,1.2-0.1
		c0.1-0.2,0.2-0.4,0.2-0.5c0-0.2-0.1-0.5-0.3-0.7C513.4,247.8,513.2,247.8,513.1,247.8z"/>
	<path class="st0" d="M496.6,265.2c-0.2,0-0.4,0.1-0.6,0.2c-0.2,0.2-0.3,0.4-0.3,0.6c0,0.2,0.1,0.4,0.2,0.6c0.3,0.3,0.9,0.4,1.2,0.1
		c0.2-0.2,0.3-0.4,0.3-0.6c0-0.2-0.1-0.4-0.2-0.6C497.1,265.3,496.8,265.2,496.6,265.2z"/>
	<path class="st0" d="M546.7,151.4c-0.5,0-0.9,0.4-0.9,0.9c0,0.5,0.4,0.8,0.9,0.8c0.5,0,0.8-0.4,0.8-0.9
		C547.5,151.8,547.1,151.4,546.7,151.4z"/>
	<path class="st0" d="M0.9,157C0.9,157,0.9,157,0.9,157c-0.5,0-0.9,0.4-0.8,0.9c0,0,0,0,0,0l1.7,0c0,0,0,0,0,0
		C1.8,157.4,1.4,157,0.9,157z"/>
	<path class="st0" d="M544.4,179.3c0,0-0.1,0-0.1,0c-0.4,0-0.8,0.3-0.8,0.7c0,0,0,0.1,0,0.1c0,0.4,0.3,0.8,0.7,0.8
		c0.5,0.1,0.9-0.2,1-0.7c0,0,0-0.1,0-0.1C545.1,179.7,544.9,179.4,544.4,179.3z"/>
	<path class="st0" d="M545.1,175.3c0,0-0.1,0-0.1,0c-0.4,0-0.8,0.3-0.8,0.7c0,0,0,0.1,0,0.1c0,0.4,0.3,0.8,0.7,0.8
		c0.5,0.1,0.9-0.2,1-0.7c0,0,0-0.1,0-0.1C545.8,175.8,545.5,175.4,545.1,175.3z"/>
	<path class="st0" d="M545.6,171.4c0,0-0.1,0-0.1,0c-0.4,0-0.8,0.3-0.8,0.7c0,0,0,0.1,0,0.1c0,0.4,0.3,0.8,0.8,0.8
		c0.5,0.1,0.9-0.3,0.9-0.7c0,0,0-0.1,0-0.1C546.3,171.8,546,171.4,545.6,171.4z"/>
	<path class="st0" d="M542.9,187.1c-0.1,0-0.1,0-0.2,0c-0.4,0-0.7,0.3-0.8,0.7c0,0.1,0,0.1,0,0.2c0,0.4,0.3,0.7,0.7,0.8
		c0.5,0.1,0.9-0.2,1-0.6c0-0.1,0-0.1,0-0.2C543.5,187.6,543.3,187.2,542.9,187.1z"/>
	<path class="st0" d="M541.9,191c-0.1,0-0.1,0-0.2,0c-0.4,0-0.7,0.3-0.8,0.6c0,0.1,0,0.1,0,0.2c0,0.4,0.2,0.7,0.6,0.8
		c0.5,0.1,0.9-0.1,1-0.6c0-0.1,0-0.1,0-0.2C542.6,191.5,542.3,191.1,541.9,191z"/>
	<path class="st0" d="M543.7,183.2c-0.1,0-0.1,0-0.2,0c-0.4,0-0.8,0.3-0.8,0.7c0,0.1,0,0.1,0,0.2c0,0.4,0.3,0.8,0.7,0.8
		c0.5,0.1,0.9-0.2,1-0.7c0-0.1,0-0.1,0-0.2C544.4,183.7,544.1,183.3,543.7,183.2z"/>
	<path class="st0" d="M546.6,159.4C546.5,159.4,546.5,159.4,546.6,159.4c-0.5,0-0.9,0.4-0.9,0.8c0,0,0,0,0,0c0,0.5,0.4,0.8,0.8,0.8
		c0.5,0,0.9-0.3,0.9-0.8c0,0,0,0,0,0C547.4,159.8,547,159.4,546.6,159.4z"/>
	<path class="st0" d="M524.6,231.4c-0.3,0-0.6,0.1-0.7,0.4c-0.1,0.1-0.1,0.3-0.1,0.4c0,0.3,0.1,0.6,0.4,0.7c0.4,0.2,0.9,0.1,1.2-0.3
		c0.1-0.1,0.1-0.3,0.1-0.4c0-0.3-0.1-0.6-0.4-0.7C524.9,231.4,524.7,231.4,524.6,231.4z"/>
	<path class="st0" d="M546,167.4C546,167.4,546,167.4,546,167.4c-0.5,0-0.9,0.3-0.9,0.8c0,0,0,0.1,0,0.1c0,0.4,0.3,0.8,0.8,0.8
		c0.5,0.1,0.9-0.3,0.9-0.8c0,0,0-0.1,0-0.1C546.8,167.8,546.5,167.4,546,167.4z"/>
	<path class="st0" d="M546.3,163.4C546.3,163.4,546.3,163.4,546.3,163.4c-0.5,0-0.9,0.3-0.9,0.8c0,0,0,0,0,0.1
		c0,0.4,0.3,0.8,0.8,0.8c0.5,0,0.9-0.3,0.9-0.8c0,0,0,0,0-0.1C547.1,163.8,546.8,163.5,546.3,163.4z"/>
	<path class="st0" d="M546.7,155.4C546.7,155.4,546.7,155.4,546.7,155.4c-0.5,0-0.9,0.4-0.9,0.8c0,0,0,0,0,0c0,0.5,0.4,0.8,0.8,0.9
		c0.5,0,0.9-0.4,0.9-0.8c0,0,0,0,0,0C547.5,155.8,547.1,155.4,546.7,155.4z"/>
	<path class="st0" d="M540.9,194.9c-0.1,0-0.2,0-0.2,0c-0.4,0-0.7,0.2-0.8,0.6c0,0.1,0,0.1,0,0.2c0,0.4,0.2,0.7,0.6,0.8
		c0.5,0.1,0.9-0.1,1-0.6c0-0.1,0-0.1,0-0.2C541.5,195.3,541.3,195,540.9,194.9z"/>
	<path class="st0" d="M532.5,217.4c-0.1-0.1-0.2-0.1-0.4-0.1c-0.3,0-0.6,0.2-0.8,0.5c-0.1,0.1-0.1,0.2-0.1,0.4
		c0,0.3,0.2,0.6,0.5,0.8c0.4,0.2,0.9,0,1.1-0.4c0-0.1,0.1-0.2,0.1-0.4C533,217.8,532.8,217.5,532.5,217.4z"/>
	<path class="st0" d="M534.2,213.7c-0.1,0-0.2-0.1-0.3-0.1c-0.3,0-0.6,0.2-0.8,0.5c0,0.1-0.1,0.2-0.1,0.3c0,0.3,0.2,0.6,0.5,0.8
		c0.4,0.2,0.9,0,1.1-0.4c0.1-0.1,0.1-0.2,0.1-0.4C534.7,214.2,534.5,213.9,534.2,213.7z"/>
	<path class="st0" d="M321.8,0.8c0-0.5-0.4-0.8-0.9-0.8c-0.5,0-0.8,0.4-0.8,0.8c0,0.5,0.4,0.8,0.8,0.8
		C321.4,1.7,321.8,1.3,321.8,0.8z"/>
	<path class="st0" d="M528.9,224.6c-0.1-0.1-0.3-0.1-0.4-0.1c-0.3,0-0.6,0.2-0.8,0.4c-0.1,0.1-0.1,0.3-0.1,0.4
		c0,0.3,0.2,0.6,0.4,0.8c0.4,0.2,0.9,0.1,1.1-0.3c0.1-0.1,0.1-0.3,0.1-0.4C529.4,225,529.2,224.7,528.9,224.6z"/>
	<path class="st0" d="M530.8,221c-0.1-0.1-0.2-0.1-0.4-0.1c-0.3,0-0.6,0.2-0.8,0.5c-0.1,0.1-0.1,0.3-0.1,0.4c0,0.3,0.2,0.6,0.5,0.8
		c0.4,0.2,0.9,0,1.1-0.4c0.1-0.1,0.1-0.2,0.1-0.4C531.2,221.4,531.1,221.1,530.8,221z"/>
	<path class="st0" d="M538.5,202.5c-0.1,0-0.2,0-0.3,0c-0.3,0-0.7,0.2-0.8,0.6c0,0.1,0,0.2,0,0.3c0,0.4,0.2,0.7,0.6,0.8
		c0.4,0.1,0.9-0.1,1.1-0.5c0,0,0,0,0,0c0-0.1,0-0.2,0-0.3C539.1,203,538.9,202.6,538.5,202.5z"/>
	<path class="st0" d="M539.8,198.7c-0.1,0-0.2,0-0.3,0c-0.4,0-0.7,0.2-0.8,0.6c0,0.1,0,0.2,0,0.2c0,0.4,0.2,0.7,0.6,0.8
		c0.5,0.1,0.9-0.1,1.1-0.5c0-0.1,0-0.2,0-0.2C540.3,199.2,540.1,198.8,539.8,198.7z"/>
	<path class="st0" d="M535.7,210c-0.1,0-0.2-0.1-0.3-0.1c-0.3,0-0.6,0.2-0.8,0.5c0,0.1-0.1,0.2-0.1,0.3c0,0.3,0.2,0.7,0.5,0.8
		c0.4,0.2,0.9,0,1.1-0.5c0,0,0,0,0,0c0-0.1,0.1-0.2,0.1-0.3C536.2,210.5,536,210.2,535.7,210z"/>
	<path class="st0" d="M537.2,206.3c-0.1,0-0.2-0.1-0.3-0.1c-0.3,0-0.7,0.2-0.8,0.5c0,0.1,0,0.2,0,0.3c0,0.4,0.2,0.7,0.5,0.8
		c0.4,0.2,0.9-0.1,1.1-0.5c0-0.1,0.1-0.2,0.1-0.3C537.7,206.7,537.5,206.4,537.2,206.3z"/>
	<path class="st0" d="M527,228.1c-0.1-0.1-0.3-0.1-0.4-0.1c-0.3,0-0.6,0.1-0.7,0.4c-0.1,0.1-0.1,0.3-0.1,0.4c0,0.3,0.2,0.6,0.4,0.7
		c0.4,0.2,0.9,0.1,1.2-0.3c0.1-0.1,0.1-0.3,0.1-0.4C527.4,228.5,527.3,228.2,527,228.1z"/>
	<path class="st0" d="M378.4,304.6c-0.5,0-0.8,0.4-0.8,0.9c0,0.5,0.4,0.8,0.8,0.8c0.5,0,0.9-0.4,0.9-0.8
		C379.2,305,378.8,304.6,378.4,304.6z"/>
	<path class="st0" d="M381.8,0.8c0-0.5-0.4-0.8-0.9-0.8s-0.8,0.4-0.8,0.8c0,0.5,0.4,0.8,0.8,0.8S381.8,1.3,381.8,0.8z"/>
	<path class="st0" d="M377.8,0.8c0-0.5-0.4-0.8-0.8-0.8c-0.5,0-0.9,0.4-0.9,0.8c0,0.5,0.4,0.8,0.9,0.8
		C377.4,1.7,377.8,1.3,377.8,0.8z"/>
	<path class="st0" d="M382.4,304.6c-0.5,0-0.9,0.4-0.9,0.9c0,0.5,0.4,0.8,0.9,0.8c0.5,0,0.8-0.4,0.8-0.8
		C383.2,305,382.8,304.6,382.4,304.6z"/>
	<path class="st0" d="M385.8,0.8c0-0.5-0.4-0.8-0.9-0.8s-0.9,0.4-0.9,0.8c0,0.5,0.4,0.8,0.9,0.8S385.8,1.3,385.8,0.8z"/>
	<path class="st0" d="M386.4,304.6c-0.5,0-0.9,0.4-0.9,0.9c0,0.5,0.4,0.8,0.9,0.8c0.5,0,0.8-0.4,0.8-0.8
		C387.2,305,386.8,304.6,386.4,304.6z"/>
	<path class="st0" d="M369.8,0.8c0-0.5-0.4-0.8-0.8-0.8c-0.5,0-0.9,0.4-0.9,0.8c0,0.5,0.4,0.8,0.9,0.8
		C369.4,1.7,369.8,1.3,369.8,0.8z"/>
	<path class="st0" d="M366.4,304.6c-0.5,0-0.9,0.4-0.9,0.9c0,0.5,0.4,0.8,0.9,0.8c0.5,0,0.9-0.4,0.9-0.8
		C367.2,305,366.9,304.6,366.4,304.6z"/>
	<path class="st0" d="M374.4,304.6c-0.5,0-0.9,0.4-0.9,0.9c0,0.5,0.4,0.8,0.9,0.8c0.5,0,0.9-0.4,0.9-0.8
		C375.2,305,374.9,304.6,374.4,304.6z"/>
	<path class="st0" d="M370.4,304.6c-0.5,0-0.9,0.4-0.9,0.9c0,0.5,0.4,0.8,0.9,0.8c0.5,0,0.9-0.4,0.9-0.8
		C371.2,305,370.9,304.6,370.4,304.6z"/>
	<path class="st0" d="M373.8,0.8c0-0.5-0.4-0.8-0.8-0.8c-0.5,0-0.9,0.4-0.9,0.8c0,0.5,0.4,0.8,0.9,0.8
		C373.4,1.7,373.8,1.3,373.8,0.8z"/>
	<path class="st0" d="M398.6,304.5C398.6,304.5,398.6,304.5,398.6,304.5c-0.5,0-0.9,0.4-0.9,0.9c0,0,0,0,0,0c0,0.5,0.4,0.8,0.9,0.8
		c0.5,0,0.8-0.4,0.8-0.8c0,0,0,0,0,0C399.5,304.9,399.1,304.5,398.6,304.5z"/>
	<path class="st0" d="M401,0.1C400.9,0.1,400.9,0.1,401,0.1c-0.5,0-0.9,0.4-0.9,0.8c0,0,0,0,0,0c0,0.4,0.4,0.8,0.8,0.8
		c0.5,0,0.9-0.3,0.9-0.8c0,0,0,0,0,0C401.8,0.5,401.4,0.1,401,0.1z"/>
	<path class="st0" d="M365.8,0.8c0-0.5-0.4-0.8-0.8-0.8c-0.5,0-0.9,0.4-0.9,0.8c0,0.5,0.4,0.8,0.9,0.8
		C365.4,1.7,365.8,1.3,365.8,0.8z"/>
	<path class="st0" d="M402.6,304.4C402.6,304.4,402.6,304.4,402.6,304.4c-0.5,0-0.9,0.4-0.9,0.9c0,0,0,0,0,0c0,0.5,0.4,0.8,0.9,0.8
		c0.5,0,0.8-0.4,0.8-0.9c0,0,0,0,0,0C403.5,304.7,403.1,304.4,402.6,304.4z"/>
	<path class="st0" d="M405,0.4C404.9,0.4,404.9,0.3,405,0.4c-0.5,0-0.9,0.3-0.9,0.8c0,0,0,0,0,0.1c0,0.4,0.3,0.8,0.8,0.8
		c0.5,0,0.9-0.3,0.9-0.8c0,0,0,0,0-0.1C405.8,0.8,405.4,0.4,405,0.4z"/>
	<path class="st0" d="M406.6,304.1C406.6,304.1,406.6,304.1,406.6,304.1c-0.5,0-0.9,0.4-0.9,0.9c0,0,0,0,0,0.1
		c0,0.5,0.5,0.8,0.9,0.8c0.5,0,0.8-0.4,0.8-0.9c0,0,0,0,0-0.1C407.4,304.5,407.1,304.1,406.6,304.1z"/>
	<path class="st0" d="M389.8,0.8c0-0.5-0.4-0.8-0.9-0.8s-0.9,0.4-0.9,0.8c0,0.5,0.4,0.8,0.9,0.8S389.8,1.3,389.8,0.8z"/>
	<path class="st0" d="M409,0.7C408.9,0.7,408.9,0.7,409,0.7c-0.5,0-0.9,0.3-0.9,0.8c0,0,0,0.1,0,0.1c0,0.4,0.3,0.8,0.8,0.8
		c0.5,0,0.9-0.3,0.9-0.8c0,0,0-0.1,0-0.1C409.7,1.1,409.4,0.7,409,0.7z"/>
	<path class="st0" d="M396.9,0L396.9,0c-0.5,0-0.9,0.4-0.9,0.8c0,0,0,0,0,0c0,0.5,0.4,0.8,0.8,0.8c0.5,0,0.9-0.4,0.9-0.8
		c0,0,0,0,0,0C397.8,0.4,397.4,0,396.9,0z"/>
	<path class="st0" d="M390.4,304.6c-0.5,0-0.9,0.4-0.9,0.9c0,0.5,0.4,0.8,0.9,0.8c0.5,0,0.8-0.4,0.8-0.8
		C391.2,305,390.8,304.6,390.4,304.6z"/>
	<path class="st0" d="M394.6,304.6c0,0-0.1,0-0.1,0c0,0-0.1,0-0.1,0c-0.5,0-0.9,0.4-0.9,0.9c0,0.5,0.4,0.8,0.9,0.8c0,0,0.1,0,0.1,0
		c0,0,0.1,0,0.1,0c0.5,0,0.9-0.4,0.9-0.8C395.5,305,395.1,304.6,394.6,304.6z"/>
	<path class="st0" d="M393.8,0.8c0-0.5-0.4-0.8-0.9-0.8s-0.9,0.4-0.9,0.8c0,0.5,0.4,0.8,0.9,0.8S393.8,1.3,393.8,0.8z"/>
	<path class="st0" d="M334.4,304.6c-0.5,0-0.9,0.4-0.9,0.9c0,0.5,0.4,0.8,0.9,0.8c0.5,0,0.8-0.4,0.8-0.8
		C335.2,305,334.9,304.6,334.4,304.6z"/>
	<path class="st0" d="M333.8,0.8c0-0.5-0.4-0.8-0.9-0.8s-0.9,0.4-0.9,0.8c0,0.5,0.4,0.8,0.9,0.8S333.8,1.3,333.8,0.8z"/>
	<path class="st0" d="M330.4,304.6c-0.5,0-0.9,0.4-0.9,0.9c0,0.5,0.4,0.8,0.9,0.8c0.5,0,0.8-0.4,0.8-0.8
		C331.2,305,330.9,304.6,330.4,304.6z"/>
	<path class="st0" d="M341.8,0.8c0-0.5-0.4-0.8-0.9-0.8s-0.9,0.4-0.9,0.8c0,0.5,0.4,0.8,0.9,0.8S341.8,1.3,341.8,0.8z"/>
	<path class="st0" d="M337.8,0.8c0-0.5-0.4-0.8-0.9-0.8s-0.9,0.4-0.9,0.8c0,0.5,0.4,0.8,0.9,0.8S337.8,1.3,337.8,0.8z"/>
	<path class="st0" d="M338.4,304.6c-0.5,0-0.9,0.4-0.9,0.9c0,0.5,0.4,0.8,0.9,0.8c0.5,0,0.8-0.4,0.8-0.8
		C339.2,305,338.9,304.6,338.4,304.6z"/>
	<path class="st0" d="M329.8,0.8c0-0.5-0.4-0.8-0.9-0.8c-0.5,0-0.9,0.4-0.9,0.8c0,0.5,0.4,0.8,0.9,0.8
		C329.4,1.7,329.8,1.3,329.8,0.8z"/>
	<path class="st0" d="M325.8,0.8c0-0.5-0.4-0.8-0.9-0.8c-0.5,0-0.8,0.4-0.8,0.8c0,0.5,0.4,0.8,0.8,0.8
		C325.4,1.7,325.8,1.3,325.8,0.8z"/>
	<path class="st0" d="M322.4,304.6c-0.5,0-0.9,0.4-0.9,0.9c0,0.5,0.4,0.8,0.9,0.8c0.5,0,0.9-0.4,0.9-0.8
		C323.3,305,322.9,304.6,322.4,304.6z"/>
	<path class="st0" d="M326.4,304.6c-0.5,0-0.9,0.4-0.9,0.9c0,0.5,0.4,0.8,0.9,0.8c0.5,0,0.8-0.4,0.8-0.8
		C327.2,305,326.9,304.6,326.4,304.6z"/>
	<path class="st0" d="M342.4,304.6c-0.5,0-0.9,0.4-0.9,0.9c0,0.5,0.4,0.8,0.9,0.8c0.5,0,0.8-0.4,0.8-0.8
		C343.2,305,342.9,304.6,342.4,304.6z"/>
	<path class="st0" d="M354.4,304.6c-0.5,0-0.9,0.4-0.9,0.9c0,0.5,0.4,0.8,0.9,0.8c0.5,0,0.9-0.4,0.9-0.8
		C355.2,305,354.9,304.6,354.4,304.6z"/>
	<path class="st0" d="M357.8,0.8c0-0.5-0.4-0.8-0.8-0.8c-0.5,0-0.9,0.4-0.9,0.8c0,0.5,0.4,0.8,0.9,0.8
		C357.4,1.7,357.8,1.3,357.8,0.8z"/>
	<path class="st0" d="M353.8,0.8c0-0.5-0.4-0.8-0.8-0.8s-0.9,0.4-0.9,0.8c0,0.5,0.4,0.8,0.9,0.8S353.8,1.3,353.8,0.8z"/>
	<path class="st0" d="M362.4,304.6c-0.5,0-0.9,0.4-0.9,0.9c0,0.5,0.4,0.8,0.9,0.8c0.5,0,0.9-0.4,0.9-0.8
		C363.2,305,362.9,304.6,362.4,304.6z"/>
	<path class="st0" d="M358.4,304.6c-0.5,0-0.9,0.4-0.9,0.9c0,0.5,0.4,0.8,0.9,0.8c0.5,0,0.9-0.4,0.9-0.8
		C359.2,305,358.9,304.6,358.4,304.6z"/>
	<path class="st0" d="M361.8,0.8c0-0.5-0.4-0.8-0.8-0.8c-0.5,0-0.9,0.4-0.9,0.8c0,0.5,0.4,0.8,0.9,0.8
		C361.4,1.7,361.8,1.3,361.8,0.8z"/>
	<path class="st0" d="M346.4,304.6c-0.5,0-0.9,0.4-0.9,0.9c0,0.5,0.4,0.8,0.9,0.8c0.5,0,0.8-0.4,0.8-0.8
		C347.2,305,346.9,304.6,346.4,304.6z"/>
	<path class="st0" d="M350.4,304.6c-0.5,0-0.9,0.4-0.9,0.9c0,0.5,0.4,0.8,0.9,0.8c0.5,0,0.8-0.4,0.8-0.8
		C351.2,305,350.9,304.6,350.4,304.6z"/>
	<path class="st0" d="M345.8,0.8c0-0.5-0.4-0.8-0.9-0.8s-0.9,0.4-0.9,0.8c0,0.5,0.4,0.8,0.9,0.8S345.8,1.3,345.8,0.8z"/>
	<path class="st0" d="M349.8,0.8c0-0.5-0.4-0.8-0.9-0.8s-0.9,0.4-0.9,0.8c0,0.5,0.4,0.8,0.9,0.8S349.8,1.3,349.8,0.8z"/>
	<path class="st0" d="M444.8,9.1c0-0.4-0.2-0.7-0.6-0.8c-0.1,0-0.2,0-0.3,0c-0.3,0-0.7,0.2-0.8,0.6c0,0.1,0,0.2,0,0.3
		c0,0.4,0.2,0.7,0.6,0.8c0.5,0.2,0.9-0.1,1.1-0.5C444.8,9.3,444.8,9.2,444.8,9.1z"/>
	<path class="st0" d="M466.9,18.7c0-0.3-0.2-0.6-0.4-0.8c-0.1-0.1-0.3-0.1-0.4-0.1c-0.3,0-0.6,0.2-0.8,0.5c-0.1,0.1-0.1,0.3-0.1,0.4
		c0,0.3,0.2,0.6,0.4,0.7c0.4,0.2,0.9,0.1,1.1-0.4C466.8,19,466.9,18.8,466.9,18.7z"/>
	<path class="st0" d="M467.4,286c-0.1,0-0.3,0-0.4,0.1c-0.3,0.2-0.4,0.4-0.4,0.8c0,0.1,0,0.3,0.1,0.4c0.2,0.4,0.7,0.6,1.1,0.3
		c0.3-0.1,0.4-0.4,0.4-0.8c0-0.1,0-0.3-0.1-0.4C468,286.1,467.7,286,467.4,286z"/>
	<path class="st0" d="M453,292.9c-0.1,0-0.2,0-0.3,0.1c-0.3,0.1-0.5,0.4-0.5,0.8c0,0.1,0,0.2,0.1,0.3c0.2,0.4,0.7,0.6,1.1,0.5
		c0.3-0.1,0.5-0.5,0.5-0.8c0-0.1,0-0.2-0.1-0.3C453.7,293.1,453.4,292.9,453,292.9z"/>
	<path class="st0" d="M463.9,287.9c-0.1,0-0.3,0-0.4,0.1h0c-0.3,0.1-0.5,0.5-0.5,0.8c0,0.1,0,0.3,0.1,0.4c0.2,0.4,0.7,0.6,1.1,0.4
		c0.3-0.2,0.5-0.5,0.5-0.8c0-0.1,0-0.3-0.1-0.4C464.5,288,464.2,287.9,463.9,287.9z"/>
	<path class="st0" d="M470.3,21.1c0.1-0.1,0.1-0.3,0.1-0.4c0-0.3-0.2-0.6-0.4-0.7c0,0,0,0,0,0c-0.1-0.1-0.3-0.1-0.4-0.1
		c-0.3,0-0.6,0.2-0.7,0.4c-0.1,0.1-0.1,0.3-0.1,0.4c0,0.3,0.1,0.6,0.4,0.7v0C469.5,21.6,470,21.5,470.3,21.1z"/>
	<path class="st0" d="M473.7,23.1c0.1-0.1,0.1-0.3,0.1-0.4c0-0.3-0.1-0.6-0.4-0.7c-0.1-0.1-0.3-0.1-0.4-0.1c-0.3,0-0.6,0.1-0.7,0.4
		c-0.1,0.1-0.1,0.3-0.1,0.4c0,0.3,0.1,0.6,0.4,0.7C472.9,23.6,473.5,23.5,473.7,23.1z"/>
	<path class="st0" d="M456,13.5c0-0.3-0.2-0.6-0.5-0.8c-0.1-0.1-0.2-0.1-0.3-0.1c-0.3,0-0.6,0.2-0.8,0.5c0,0.1-0.1,0.2-0.1,0.3
		c0,0.3,0.2,0.6,0.5,0.8c0.4,0.2,0.9,0,1.1-0.4C456,13.7,456.1,13.6,456,13.5z"/>
	<path class="st0" d="M456.7,291.3c-0.1,0-0.2,0-0.3,0.1c-0.3,0.1-0.5,0.5-0.5,0.8c0,0.1,0,0.2,0.1,0.4c0.2,0.4,0.7,0.6,1.1,0.4
		c0.3-0.1,0.5-0.5,0.5-0.8c0-0.1,0-0.2-0.1-0.4C457.3,291.5,457,291.3,456.7,291.3z"/>
	<path class="st0" d="M460.3,289.6c-0.1,0-0.2,0-0.4,0.1c-0.3,0.1-0.5,0.5-0.5,0.8c0,0.1,0,0.2,0.1,0.4c0.2,0.4,0.7,0.6,1.1,0.4
		c0.3-0.1,0.5-0.4,0.5-0.8c0-0.1,0-0.2-0.1-0.4C460.9,289.8,460.6,289.6,460.3,289.6z"/>
	<path class="st0" d="M463.3,16.9c0-0.3-0.2-0.6-0.5-0.8c-0.1-0.1-0.2-0.1-0.4-0.1c-0.3,0-0.6,0.2-0.8,0.5c-0.1,0.1-0.1,0.3-0.1,0.4
		c0,0.3,0.2,0.6,0.5,0.8c0.4,0.2,0.9,0,1.1-0.4C463.3,17.1,463.3,17,463.3,16.9z"/>
	<path class="st0" d="M459.7,15.1c0-0.3-0.2-0.6-0.5-0.8c-0.1-0.1-0.2-0.1-0.4-0.1c-0.3,0-0.6,0.2-0.8,0.5c-0.1,0.1-0.1,0.2-0.1,0.4
		c0,0.3,0.2,0.6,0.5,0.8c0.4,0.2,0.9,0,1.1-0.4C459.7,15.4,459.7,15.2,459.7,15.1z"/>
	<path class="st0" d="M470.9,284c-0.1,0-0.3,0-0.4,0.1c-0.3,0.2-0.4,0.5-0.4,0.7c0,0.1,0,0.3,0.1,0.4c0.2,0.4,0.8,0.5,1.2,0.3
		c0.3-0.2,0.4-0.5,0.4-0.7c0-0.1,0-0.3-0.1-0.4C471.5,284.2,471.2,284,470.9,284z"/>
	<path class="st0" d="M487.1,31.6c0-0.3-0.1-0.5-0.3-0.7c-0.1-0.1-0.3-0.2-0.5-0.2c-0.3,0-0.5,0.1-0.7,0.3c-0.1,0.2-0.2,0.3-0.2,0.5
		c0,0.3,0.1,0.5,0.3,0.7c0.4,0.3,0.9,0.2,1.2-0.2C487,32,487.1,31.8,487.1,31.6z"/>
	<path class="st0" d="M484.2,275.3c-0.2,0-0.4,0.1-0.5,0.2c-0.2,0.2-0.4,0.4-0.4,0.7c0,0.2,0.1,0.4,0.2,0.5c0.3,0.4,0.8,0.5,1.2,0.2
		c0.2-0.2,0.4-0.4,0.4-0.7c0-0.2-0.1-0.4-0.2-0.5C484.8,275.4,484.5,275.3,484.2,275.3z"/>
	<path class="st0" d="M487.4,272.9c-0.2,0-0.4,0.1-0.5,0.2c-0.2,0.2-0.3,0.4-0.3,0.7c0,0.2,0.1,0.4,0.2,0.5c0.3,0.4,0.8,0.4,1.2,0.1
		c0.2-0.2,0.3-0.4,0.3-0.7c0-0.2-0.1-0.4-0.2-0.5C487.9,273,487.7,272.9,487.4,272.9z"/>
	<path class="st0" d="M483.9,29.3c0-0.3-0.1-0.5-0.4-0.7c-0.1-0.1-0.3-0.2-0.5-0.2c-0.3,0-0.5,0.1-0.7,0.4c-0.1,0.2-0.2,0.3-0.2,0.5
		c0,0.3,0.1,0.5,0.4,0.7c0.4,0.3,0.9,0.2,1.2-0.2C483.8,29.6,483.9,29.4,483.9,29.3z"/>
	<path class="st0" d="M490.2,34.1c0-0.2-0.1-0.5-0.3-0.7c-0.2-0.1-0.4-0.2-0.5-0.2c-0.2,0-0.5,0.1-0.7,0.3c-0.1,0.2-0.2,0.4-0.2,0.6
		c0,0.2,0.1,0.5,0.3,0.6c0.4,0.3,0.9,0.2,1.2-0.1C490.2,34.5,490.2,34.3,490.2,34.1z"/>
	<path class="st0" d="M477.1,25.2c0.1-0.1,0.1-0.3,0.1-0.5c0-0.3-0.1-0.5-0.4-0.7c-0.1-0.1-0.3-0.1-0.5-0.1c-0.3,0-0.6,0.1-0.7,0.4
		c-0.1,0.1-0.1,0.3-0.1,0.4c0,0.3,0.1,0.6,0.4,0.7C476.3,25.8,476.8,25.6,477.1,25.2z"/>
	<path class="st0" d="M474.3,282c-0.1,0-0.3,0-0.4,0.1c-0.3,0.2-0.4,0.4-0.4,0.7c0,0.2,0,0.3,0.1,0.4c0.2,0.4,0.8,0.5,1.2,0.3
		c0.3-0.2,0.4-0.5,0.4-0.7c0-0.1,0-0.3-0.1-0.4C474.9,282.1,474.6,282,474.3,282z"/>
	<path class="st0" d="M477.7,279.8c-0.2,0-0.3,0.1-0.5,0.1c-0.2,0.2-0.4,0.4-0.4,0.7c0,0.2,0,0.3,0.1,0.5c0.2,0.4,0.8,0.5,1.2,0.2
		c0.2-0.2,0.4-0.4,0.4-0.7c0-0.2-0.1-0.3-0.1-0.5C478.2,280,477.9,279.8,477.7,279.8z"/>
	<path class="st0" d="M481,277.6c-0.2,0-0.3,0.1-0.5,0.1c-0.2,0.2-0.4,0.4-0.4,0.7c0,0.2,0.1,0.3,0.1,0.5c0.3,0.4,0.8,0.5,1.2,0.2
		c0.2-0.2,0.4-0.4,0.4-0.7c0-0.2-0.1-0.3-0.1-0.5C481.5,277.7,481.3,277.6,481,277.6z"/>
	<path class="st0" d="M480.6,27c0-0.3-0.1-0.5-0.4-0.7c-0.1-0.1-0.3-0.1-0.5-0.1c-0.3,0-0.5,0.1-0.7,0.4c-0.1,0.1-0.1,0.3-0.1,0.5
		c0,0.3,0.1,0.5,0.4,0.7c0.4,0.3,0.9,0.2,1.2-0.2C480.5,27.3,480.6,27.1,480.6,27z"/>
	<path class="st0" d="M418.5,302.7c0,0-0.1,0-0.1,0c-0.4,0.1-0.7,0.4-0.7,0.8c0,0,0,0.1,0,0.1c0.1,0.5,0.5,0.8,1,0.7
		c0.4-0.1,0.7-0.4,0.7-0.8c0,0,0-0.1,0-0.1C419.3,303,418.9,302.7,418.5,302.7z"/>
	<path class="st0" d="M422.5,302c0,0-0.1,0-0.2,0c-0.4,0.1-0.7,0.4-0.7,0.8c0,0,0,0.1,0,0.1c0.1,0.5,0.5,0.8,1,0.7
		c0.4-0.1,0.7-0.4,0.7-0.8c0,0,0-0.1,0-0.1C423.2,302.3,422.9,302,422.5,302z"/>
	<path class="st0" d="M430.3,300.3c-0.1,0-0.1,0-0.2,0c-0.4,0.1-0.7,0.5-0.6,0.8c0,0.1,0,0.1,0,0.2c0.1,0.4,0.6,0.7,1,0.6
		c0.4-0.1,0.7-0.4,0.7-0.8c0-0.1,0-0.1,0-0.2C431,300.6,430.7,300.3,430.3,300.3z"/>
	<path class="st0" d="M452.4,11.9c0-0.3-0.2-0.7-0.5-0.8c-0.1,0-0.2-0.1-0.3-0.1c-0.3,0-0.7,0.2-0.8,0.5c0,0.1-0.1,0.2-0.1,0.3
		c0,0.3,0.2,0.7,0.5,0.8c0.4,0.2,0.9,0,1.1-0.5C452.3,12.1,452.4,12,452.4,11.9z"/>
	<path class="st0" d="M426.4,301.2c-0.1,0-0.1,0-0.2,0c-0.4,0.1-0.7,0.4-0.7,0.8c0,0.1,0,0.1,0,0.2c0.1,0.5,0.5,0.8,1,0.7
		c0.4-0.1,0.7-0.4,0.7-0.8c0-0.1,0-0.1,0-0.2C427.1,301.5,426.8,301.2,426.4,301.2z"/>
	<path class="st0" d="M420.9,2.3c0,0-0.1,0-0.1,0c-0.4,0-0.8,0.3-0.8,0.7c0,0,0,0.1,0,0.2c0,0.4,0.3,0.8,0.7,0.8
		c0.5,0.1,0.9-0.2,1-0.7c0,0,0-0.1,0-0.1C421.6,2.7,421.3,2.4,420.9,2.3z"/>
	<path class="st0" d="M424.9,3c-0.1,0-0.1,0-0.2,0c-0.4,0-0.8,0.3-0.8,0.7c0,0,0,0.1,0,0.2c0,0.4,0.3,0.8,0.7,0.8
		c0.5,0.1,0.9-0.2,1-0.7c0,0,0-0.1,0-0.2C425.6,3.5,425.3,3.1,424.9,3z"/>
	<path class="st0" d="M414.6,303.3c0,0-0.1,0-0.1,0c-0.4,0.1-0.7,0.4-0.7,0.8c0,0,0,0.1,0,0.1c0.1,0.5,0.5,0.8,1,0.7
		c0.4,0,0.7-0.4,0.7-0.8c0,0,0-0.1,0-0.1C415.4,303.6,415,303.3,414.6,303.3z"/>
	<path class="st0" d="M413,1.1c0,0-0.1,0-0.1,0c-0.4,0-0.8,0.3-0.8,0.8c0,0,0,0.1,0,0.1c0,0.4,0.3,0.8,0.8,0.8
		c0.5,0.1,0.9-0.3,1-0.7c0,0,0-0.1,0-0.1C413.7,1.5,413.4,1.2,413,1.1z"/>
	<path class="st0" d="M410.6,303.7C410.6,303.7,410.6,303.8,410.6,303.7c-0.5,0.1-0.9,0.4-0.9,0.9c0,0,0,0,0,0.1
		c0.1,0.5,0.5,0.8,0.9,0.8c0.4,0,0.8-0.4,0.8-0.9c0,0,0-0.1,0-0.1C411.4,304.1,411,303.7,410.6,303.7z"/>
	<path class="st0" d="M417,1.6c0,0-0.1,0-0.1,0c-0.4,0-0.8,0.3-0.9,0.7c0,0.1,0,0.1,0,0.1c0,0.4,0.3,0.8,0.7,0.8
		c0.5,0.1,0.9-0.2,1-0.7c0,0,0-0.1,0-0.1C417.7,2.1,417.4,1.7,417,1.6z"/>
	<path class="st0" d="M429.5,4.7c0-0.4-0.3-0.7-0.7-0.8c-0.1,0-0.1,0-0.2,0c-0.4,0-0.7,0.3-0.8,0.7c0,0.1,0,0.1,0,0.2
		c0,0.4,0.3,0.7,0.7,0.8c0.5,0.1,0.9-0.2,1-0.6C429.5,4.8,429.5,4.8,429.5,4.7z"/>
	<path class="st0" d="M441.8,297.1c-0.1,0-0.2,0-0.3,0l0,0c-0.4,0.1-0.6,0.4-0.6,0.8c0,0.1,0,0.2,0,0.3c0.2,0.4,0.6,0.7,1.1,0.5
		c0.4-0.1,0.6-0.4,0.6-0.8c0-0.1,0-0.2,0-0.3C442.5,297.3,442.2,297.1,441.8,297.1z"/>
	<path class="st0" d="M445.6,295.8c-0.1,0-0.2,0-0.3,0c-0.4,0.1-0.6,0.4-0.6,0.8c0,0.1,0,0.2,0,0.3c0.2,0.5,0.6,0.7,1.1,0.5
		c0.3-0.1,0.6-0.4,0.6-0.8c0-0.1,0-0.2,0-0.3C446.3,296,446,295.8,445.6,295.8z"/>
	<path class="st0" d="M433.3,5.7c0-0.4-0.2-0.7-0.6-0.8c-0.1,0-0.1,0-0.2,0c-0.4,0-0.7,0.2-0.8,0.6c0,0.1,0,0.1,0,0.2
		c0,0.4,0.3,0.7,0.6,0.8c0.5,0.1,0.9-0.2,1-0.6C433.3,5.8,433.3,5.7,433.3,5.7z"/>
	<path class="st0" d="M448.6,10.5c0-0.3-0.2-0.7-0.5-0.8c-0.1,0-0.2,0-0.3,0c-0.3,0-0.7,0.2-0.8,0.5c0,0.1-0.1,0.2-0.1,0.3
		c0,0.3,0.2,0.7,0.6,0.8c0.4,0.2,0.9,0,1.1-0.5C448.6,10.7,448.6,10.6,448.6,10.5z"/>
	<path class="st0" d="M449.4,294.4c-0.1,0-0.2,0-0.3,0.1c-0.3,0.1-0.5,0.4-0.5,0.8c0,0.1,0,0.2,0.1,0.3c0.2,0.4,0.7,0.7,1.1,0.5
		c0,0,0,0,0,0c0.3-0.1,0.5-0.5,0.5-0.8c0-0.1,0-0.2-0.1-0.3C450,294.6,449.7,294.4,449.4,294.4z"/>
	<path class="st0" d="M490.6,270.4c-0.2,0-0.4,0.1-0.5,0.2c-0.2,0.2-0.3,0.4-0.3,0.7c0,0.2,0.1,0.4,0.2,0.5c0.3,0.4,0.8,0.4,1.2,0.1
		c0.2-0.2,0.3-0.4,0.3-0.6c0-0.2-0.1-0.4-0.2-0.5C491,270.5,490.8,270.4,490.6,270.4z"/>
	<path class="st0" d="M441,7.9c0-0.4-0.2-0.7-0.6-0.8c-0.1,0-0.2,0-0.2,0c-0.4,0-0.7,0.2-0.8,0.6c0,0.1,0,0.2,0,0.2
		c0,0.4,0.2,0.7,0.6,0.8c0.5,0.1,0.9-0.1,1.1-0.6C441,8,441,7.9,441,7.9z"/>
	<path class="st0" d="M437.2,6.7c0-0.4-0.2-0.7-0.6-0.8c-0.1,0-0.1,0-0.2,0c-0.4,0-0.7,0.2-0.8,0.6c0,0.1,0,0.2,0,0.2
		c0,0.4,0.2,0.7,0.6,0.8c0.4,0.1,0.9-0.1,1-0.6C437.2,6.9,437.2,6.8,437.2,6.7z"/>
	<path class="st0" d="M434.2,299.4c-0.1,0-0.2,0-0.2,0c-0.4,0.1-0.6,0.5-0.6,0.8c0,0.1,0,0.1,0,0.2c0.1,0.5,0.6,0.7,1,0.6
		c0.4-0.1,0.6-0.4,0.6-0.8c0-0.1,0-0.2,0-0.2C434.9,299.6,434.5,299.4,434.2,299.4z"/>
	<path class="st0" d="M438,298.3c-0.1,0-0.2,0-0.2,0c-0.4,0.1-0.6,0.5-0.6,0.8c0,0.1,0,0.1,0,0.2c0.1,0.4,0.6,0.7,1.1,0.6
		c0.4-0.1,0.6-0.4,0.6-0.8c0-0.1,0-0.2,0-0.3C438.7,298.5,438.4,298.3,438,298.3z"/>
	<path class="st0" d="M170.8,295h-1.4c-2.7,0-5,2.2-5,5v1.4c0,2.7,2.2,5,5,5h6.4V300C175.7,297.2,173.5,295,170.8,295z"/>
</g>
</svg>
