<?xml version="1.0" encoding="utf-8"?>
<!-- Generator: Adobe Illustrator 25.0.1, SVG Export Plug-In . SVG Version: 6.00 Build 0)  -->
<svg version="1.1" id="Layer_1" xmlns="http://www.w3.org/2000/svg" xmlns:xlink="http://www.w3.org/1999/xlink" x="0px" y="0px"
	 viewBox="0 0 547.5 315.8" style="enable-background:new 0 0 547.5 315.8;" xml:space="preserve">
<style type="text/css">
	.st0{fill:#F1672C;}
</style>
<g>
	<path class="st0" d="M346.5,314.1c-0.5,0-0.9,0.4-0.9,0.8c0,0.5,0.4,0.8,0.9,0.8c0.5,0,0.9-0.4,0.9-0.8
		C347.4,314.5,347,314.1,346.5,314.1z"/>
	<path class="st0" d="M349.9,10.4c0-0.5-0.4-0.8-0.8-0.8c-0.5,0-0.8,0.4-0.8,0.8c0,0.5,0.4,0.9,0.8,0.9
		C349.5,11.2,349.9,10.8,349.9,10.4z"/>
	<path class="st0" d="M342.5,314.1c-0.5,0-0.8,0.4-0.8,0.8c0,0.5,0.4,0.8,0.8,0.8c0.5,0,0.9-0.4,0.9-0.8
		C343.4,314.5,343,314.1,342.5,314.1z"/>
	<path class="st0" d="M345.9,10.4c0-0.5-0.4-0.8-0.9-0.8c-0.5,0-0.8,0.4-0.8,0.8c0,0.5,0.4,0.9,0.8,0.9
		C345.6,11.2,345.9,10.8,345.9,10.4z"/>
	<path class="st0" d="M341.9,10.4c0-0.5-0.4-0.8-0.9-0.8c-0.5,0-0.8,0.4-0.8,0.8c0,0.5,0.4,0.9,0.8,0.9
		C341.6,11.2,341.9,10.8,341.9,10.4z"/>
	<path class="st0" d="M358.5,314.1c-0.5,0-0.8,0.4-0.8,0.8c0,0.5,0.4,0.8,0.8,0.8s0.8-0.4,0.8-0.8
		C359.4,314.5,359,314.1,358.5,314.1z"/>
	<path class="st0" d="M361.9,10.4c0-0.5-0.4-0.8-0.9-0.8c-0.5,0-0.8,0.4-0.8,0.8c0,0.5,0.4,0.9,0.8,0.9
		C361.5,11.2,361.9,10.8,361.9,10.4z"/>
	<path class="st0" d="M354.5,314.1c-0.5,0-0.8,0.4-0.8,0.8c0,0.5,0.4,0.8,0.8,0.8s0.8-0.4,0.8-0.8
		C355.4,314.5,355,314.1,354.5,314.1z"/>
	<path class="st0" d="M357.9,10.4c0-0.5-0.4-0.8-0.9-0.8c-0.5,0-0.8,0.4-0.8,0.8c0,0.5,0.4,0.9,0.8,0.9
		C357.5,11.2,357.9,10.8,357.9,10.4z"/>
	<path class="st0" d="M353.9,10.4c0-0.5-0.4-0.8-0.9-0.8c-0.5,0-0.8,0.4-0.8,0.8c0,0.5,0.4,0.9,0.8,0.9
		C353.5,11.2,353.9,10.8,353.9,10.4z"/>
	<path class="st0" d="M337.9,10.4c0-0.5-0.4-0.8-0.9-0.8c-0.5,0-0.8,0.4-0.8,0.8c0,0.5,0.4,0.9,0.8,0.9
		C337.6,11.2,337.9,10.8,337.9,10.4z"/>
	<path class="st0" d="M325.9,10.4c0-0.5-0.4-0.8-0.8-0.8c-0.5,0-0.9,0.4-0.9,0.8c0,0.5,0.4,0.9,0.9,0.9
		C325.6,11.2,325.9,10.8,325.9,10.4z"/>
	<path class="st0" d="M326.5,314.1c-0.5,0-0.8,0.4-0.8,0.8c0,0.5,0.4,0.8,0.8,0.8c0.5,0,0.9-0.4,0.9-0.8
		C327.4,314.5,327,314.1,326.5,314.1z"/>
	<path class="st0" d="M321.9,10.4c0-0.5-0.4-0.8-0.8-0.8c-0.5,0-0.9,0.4-0.9,0.8c0,0.5,0.4,0.9,0.9,0.9
		C321.6,11.2,321.9,10.8,321.9,10.4z"/>
	<path class="st0" d="M322.5,314.1c-0.5,0-0.9,0.4-0.9,0.8c0,0.5,0.4,0.8,0.9,0.8c0.5,0,0.8-0.4,0.8-0.8
		C323.4,314.5,323,314.1,322.5,314.1z"/>
	<path class="st0" d="M329.9,10.4c0-0.5-0.4-0.8-0.9-0.8c-0.5,0-0.8,0.4-0.8,0.8c0,0.5,0.4,0.9,0.8,0.9
		C329.6,11.2,329.9,10.8,329.9,10.4z"/>
	<path class="st0" d="M546.7,161.1c-0.5,0-0.9,0.4-0.9,0.9c0,0.5,0.4,0.9,0.9,0.9c0,0,0,0,0,0c0.5,0,0.8-0.4,0.8-0.9c0,0,0,0,0,0
		C547.5,161.5,547.1,161.1,546.7,161.1z"/>
	<path class="st0" d="M362.5,314.1c-0.5,0-0.8,0.4-0.8,0.8c0,0.5,0.4,0.8,0.8,0.8s0.8-0.4,0.8-0.8
		C363.4,314.5,363,314.1,362.5,314.1z"/>
	<path class="st0" d="M318.5,314.1c-0.5,0-0.9,0.4-0.9,0.8c0,0.5,0.4,0.8,0.9,0.8c0.5,0,0.8-0.4,0.8-0.8
		C319.4,314.5,319,314.1,318.5,314.1z"/>
	<path class="st0" d="M334.5,314.1c-0.5,0-0.8,0.4-0.8,0.8c0,0.5,0.4,0.8,0.8,0.8c0.5,0,0.9-0.4,0.9-0.8
		C335.4,314.5,335,314.1,334.5,314.1z"/>
	<path class="st0" d="M333.9,10.4c0-0.5-0.4-0.8-0.9-0.8c-0.5,0-0.8,0.4-0.8,0.8c0,0.5,0.4,0.9,0.8,0.9
		C333.6,11.2,333.9,10.8,333.9,10.4z"/>
	<path class="st0" d="M330.5,314.1c-0.5,0-0.8,0.4-0.8,0.8c0,0.5,0.4,0.8,0.8,0.8c0.5,0,0.9-0.4,0.9-0.8
		C331.4,314.5,331,314.1,330.5,314.1z"/>
	<path class="st0" d="M365.9,10.4c0-0.5-0.4-0.8-0.9-0.8c-0.5,0-0.8,0.4-0.8,0.8c0,0.5,0.4,0.9,0.8,0.9
		C365.5,11.2,365.9,10.8,365.9,10.4z"/>
	<path class="st0" d="M386.5,314.1c-0.5,0-0.9,0.4-0.9,0.8c0,0.5,0.4,0.8,0.9,0.8s0.8-0.4,0.8-0.8
		C387.4,314.5,387,314.1,386.5,314.1z"/>
	<path class="st0" d="M390.5,314.1c-0.5,0-0.9,0.4-0.9,0.8c0,0.5,0.4,0.8,0.9,0.8s0.8-0.4,0.8-0.8
		C391.4,314.5,391,314.1,390.5,314.1z"/>
	<path class="st0" d="M406.4,313.7c-0.4,0-0.8,0.4-0.8,0.9c0,0,0,0,0,0.1c0,0.4,0.4,0.8,0.8,0.8c0,0,0,0,0.1,0
		c0.4,0,0.8-0.4,0.8-0.8c0,0,0,0,0-0.1C407.3,314,406.9,313.6,406.4,313.7z"/>
	<path class="st0" d="M402.4,313.9c-0.4,0-0.8,0.4-0.8,0.9c0,0,0,0,0,0c0,0.5,0.4,0.8,0.9,0.8c0,0,0,0,0,0c0.5,0,0.8-0.4,0.8-0.8
		c0,0,0,0,0,0C403.3,314.3,402.9,313.9,402.4,313.9z"/>
	<path class="st0" d="M398.5,314.1c-0.5,0-0.8,0.4-0.8,0.9c0,0,0,0,0,0c0,0.5,0.4,0.8,0.9,0.8c0,0,0,0,0,0c0.5,0,0.8-0.4,0.8-0.8
		c0,0,0,0,0,0C399.3,314.4,398.9,314.1,398.5,314.1z"/>
	<path class="st0" d="M394.5,314.1L394.5,314.1c-0.5,0-0.8,0.4-0.8,0.9c0,0.5,0.4,0.8,0.9,0.8s0.8-0.4,0.8-0.8
		S395,314.1,394.5,314.1z"/>
	<path class="st0" d="M374.5,314.1c-0.5,0-0.9,0.4-0.9,0.8c0,0.5,0.4,0.8,0.9,0.8s0.8-0.4,0.8-0.8
		C375.4,314.5,375,314.1,374.5,314.1z"/>
	<path class="st0" d="M370.5,314.1c-0.5,0-0.8,0.4-0.8,0.8c0,0.5,0.4,0.8,0.8,0.8s0.8-0.4,0.8-0.8
		C371.4,314.5,371,314.1,370.5,314.1z"/>
	<path class="st0" d="M366.5,314.1c-0.5,0-0.8,0.4-0.8,0.8c0,0.5,0.4,0.8,0.8,0.8s0.8-0.4,0.8-0.8
		C367.4,314.5,367,314.1,366.5,314.1z"/>
	<path class="st0" d="M369.9,10.4c0-0.5-0.4-0.8-0.9-0.8c-0.5,0-0.8,0.4-0.8,0.8c0,0.5,0.4,0.9,0.8,0.9
		C369.5,11.2,369.9,10.8,369.9,10.4z"/>
	<path class="st0" d="M382.5,314.1c-0.5,0-0.9,0.4-0.9,0.8c0,0.5,0.4,0.8,0.9,0.8s0.8-0.4,0.8-0.8
		C383.4,314.5,383,314.1,382.5,314.1z"/>
	<path class="st0" d="M378.5,314.1c-0.5,0-0.9,0.4-0.9,0.8c0,0.5,0.4,0.8,0.9,0.8s0.8-0.4,0.8-0.8
		C379.4,314.5,379,314.1,378.5,314.1z"/>
	<path class="st0" d="M350.5,314.1c-0.5,0-0.8,0.4-0.8,0.8c0,0.5,0.4,0.8,0.8,0.8s0.8-0.4,0.8-0.8
		C351.4,314.5,351,314.1,350.5,314.1z"/>
	<path class="st0" d="M317.9,10.4c0-0.5-0.4-0.8-0.8-0.8c-0.5,0-0.9,0.4-0.9,0.8c0,0.5,0.4,0.9,0.9,0.9
		C317.6,11.2,317.9,10.8,317.9,10.4z"/>
	<path class="st0" d="M262,10.4c0-0.5-0.4-0.8-0.9-0.8c-0.5,0-0.8,0.4-0.8,0.8c0,0.5,0.4,0.9,0.8,0.9C261.6,11.2,262,10.8,262,10.4z
		"/>
	<path class="st0" d="M258.6,314.1c-0.5,0-0.9,0.4-0.9,0.8c0,0.5,0.4,0.8,0.9,0.8s0.9-0.4,0.9-0.8
		C259.4,314.5,259,314.1,258.6,314.1z"/>
	<path class="st0" d="M254.6,314.1c-0.5,0-0.9,0.4-0.9,0.8c0,0.5,0.4,0.8,0.9,0.8s0.9-0.4,0.9-0.8
		C255.4,314.5,255,314.1,254.6,314.1z"/>
	<path class="st0" d="M254,10.4c0-0.5-0.4-0.8-0.9-0.8c-0.5,0-0.8,0.4-0.8,0.8c0,0.5,0.4,0.9,0.8,0.9C253.6,11.2,254,10.8,254,10.4z
		"/>
	<path class="st0" d="M270,10.4c0-0.5-0.4-0.8-0.9-0.8s-0.8,0.4-0.8,0.8c0,0.5,0.4,0.9,0.8,0.9S270,10.8,270,10.4z"/>
	<path class="st0" d="M250.6,314.1c-0.5,0-0.9,0.4-0.9,0.8c0,0.5,0.4,0.8,0.9,0.8s0.9-0.4,0.9-0.8
		C251.4,314.5,251,314.1,250.6,314.1z"/>
	<path class="st0" d="M262.6,314.1c-0.5,0-0.9,0.4-0.9,0.8c0,0.5,0.4,0.8,0.9,0.8s0.9-0.4,0.9-0.8
		C263.4,314.5,263,314.1,262.6,314.1z"/>
	<path class="st0" d="M270.6,314.1c-0.5,0-0.9,0.4-0.9,0.8c0,0.5,0.4,0.8,0.9,0.8c0.5,0,0.9-0.4,0.9-0.8
		C271.4,314.5,271,314.1,270.6,314.1z"/>
	<path class="st0" d="M266.6,314.1c-0.5,0-0.9,0.4-0.9,0.8c0,0.5,0.4,0.8,0.9,0.8s0.8-0.4,0.8-0.8
		C267.4,314.5,267,314.1,266.6,314.1z"/>
	<path class="st0" d="M266,10.4c0-0.5-0.4-0.8-0.9-0.8s-0.8,0.4-0.8,0.8c0,0.5,0.4,0.9,0.8,0.9S266,10.8,266,10.4z"/>
	<path class="st0" d="M246.6,314.1c-0.5,0-0.9,0.4-0.9,0.8c0,0.5,0.4,0.8,0.9,0.8c0.5,0,0.8-0.4,0.8-0.8
		C247.4,314.5,247,314.1,246.6,314.1z"/>
	<path class="st0" d="M250,10.4c0-0.5-0.4-0.8-0.8-0.8c-0.5,0-0.9,0.4-0.9,0.8c0,0.5,0.4,0.9,0.9,0.9C249.6,11.2,250,10.8,250,10.4z
		"/>
	<path class="st0" d="M234.6,314.1c-0.5,0-0.9,0.4-0.9,0.8c0,0.5,0.4,0.8,0.9,0.8c0.5,0,0.8-0.4,0.8-0.8
		C235.4,314.5,235,314.1,234.6,314.1z"/>
	<path class="st0" d="M234,10.4c0-0.5-0.4-0.8-0.9-0.8c-0.5,0-0.9,0.4-0.9,0.8c0,0.5,0.4,0.9,0.9,0.9C233.6,11.2,234,10.8,234,10.4z
		"/>
	<path class="st0" d="M230.6,314.1c-0.5,0-0.9,0.4-0.9,0.8c0,0.5,0.4,0.8,0.9,0.8c0.5,0,0.8-0.4,0.8-0.8
		C231.4,314.5,231,314.1,230.6,314.1z"/>
	<path class="st0" d="M238.6,314.1c-0.5,0-0.9,0.4-0.9,0.8c0,0.5,0.4,0.8,0.9,0.8c0.5,0,0.8-0.4,0.8-0.8
		C239.4,314.5,239,314.1,238.6,314.1z"/>
	<path class="st0" d="M238,10.4c0-0.5-0.4-0.8-0.9-0.8c-0.5,0-0.9,0.4-0.9,0.8c0,0.5,0.4,0.9,0.9,0.9C237.6,11.2,238,10.8,238,10.4z
		"/>
	<path class="st0" d="M242,10.4c0-0.5-0.4-0.8-0.9-0.8c-0.5,0-0.9,0.4-0.9,0.8c0,0.5,0.4,0.9,0.9,0.9C241.6,11.2,242,10.8,242,10.4z
		"/>
	<path class="st0" d="M246,10.4c0-0.5-0.4-0.8-0.9-0.8c-0.5,0-0.9,0.4-0.9,0.8c0,0.5,0.4,0.9,0.9,0.9C245.6,11.2,246,10.8,246,10.4z
		"/>
	<path class="st0" d="M273.9,10.4c0-0.5-0.4-0.8-0.8-0.8c-0.5,0-0.9,0.4-0.9,0.8c0,0.5,0.4,0.9,0.9,0.9
		C273.6,11.2,273.9,10.8,273.9,10.4z"/>
	<path class="st0" d="M242.6,314.1c-0.5,0-0.9,0.4-0.9,0.8c0,0.5,0.4,0.8,0.9,0.8c0.5,0,0.8-0.4,0.8-0.8
		C243.4,314.5,243,314.1,242.6,314.1z"/>
	<path class="st0" d="M258,10.4c0-0.5-0.4-0.8-0.9-0.8c-0.5,0-0.8,0.4-0.8,0.8c0,0.5,0.4,0.9,0.8,0.9C257.6,11.2,258,10.8,258,10.4z
		"/>
	<path class="st0" d="M302.5,314.1c-0.5,0-0.9,0.4-0.9,0.8c0,0.5,0.4,0.8,0.9,0.8c0.5,0,0.8-0.4,0.8-0.8
		C303.4,314.5,303,314.1,302.5,314.1z"/>
	<path class="st0" d="M305.9,10.4c0-0.5-0.4-0.8-0.8-0.8c-0.5,0-0.9,0.4-0.9,0.8c0,0.5,0.4,0.9,0.9,0.9
		C305.6,11.2,305.9,10.8,305.9,10.4z"/>
	<path class="st0" d="M298.5,314.1c-0.5,0-0.9,0.4-0.9,0.8c0,0.5,0.4,0.8,0.9,0.8c0.5,0,0.8-0.4,0.8-0.8
		C299.4,314.5,299,314.1,298.5,314.1z"/>
	<path class="st0" d="M306.5,314.1c-0.5,0-0.9,0.4-0.9,0.8c0,0.5,0.4,0.8,0.9,0.8c0.5,0,0.8-0.4,0.8-0.8
		C307.4,314.5,307,314.1,306.5,314.1z"/>
	<path class="st0" d="M301.9,10.4c0-0.5-0.4-0.8-0.8-0.8c-0.5,0-0.9,0.4-0.9,0.8c0,0.5,0.4,0.9,0.9,0.9
		C301.6,11.2,301.9,10.8,301.9,10.4z"/>
	<path class="st0" d="M310.5,314.1c-0.5,0-0.9,0.4-0.9,0.8c0,0.5,0.4,0.8,0.9,0.8c0.5,0,0.8-0.4,0.8-0.8
		C311.4,314.5,311,314.1,310.5,314.1z"/>
	<path class="st0" d="M314.5,314.1c-0.5,0-0.9,0.4-0.9,0.8c0,0.5,0.4,0.8,0.9,0.8c0.5,0,0.8-0.4,0.8-0.8
		C315.4,314.5,315,314.1,314.5,314.1z"/>
	<path class="st0" d="M309.9,10.4c0-0.5-0.4-0.8-0.8-0.8c-0.5,0-0.9,0.4-0.9,0.8c0,0.5,0.4,0.9,0.9,0.9
		C309.6,11.2,309.9,10.8,309.9,10.4z"/>
	<path class="st0" d="M313.9,10.4c0-0.5-0.4-0.8-0.8-0.8c-0.5,0-0.9,0.4-0.9,0.8c0,0.5,0.4,0.9,0.9,0.9
		C313.6,11.2,313.9,10.8,313.9,10.4z"/>
	<path class="st0" d="M297.9,10.4c0-0.5-0.4-0.8-0.9-0.8c-0.5,0-0.8,0.4-0.8,0.8c0,0.5,0.4,0.9,0.8,0.9
		C297.6,11.2,297.9,10.8,297.9,10.4z"/>
	<path class="st0" d="M289.9,10.4c0-0.5-0.4-0.8-0.8-0.8s-0.8,0.4-0.8,0.8c0,0.5,0.4,0.9,0.8,0.9S289.9,10.8,289.9,10.4z"/>
	<path class="st0" d="M281.9,10.4c0-0.5-0.4-0.8-0.8-0.8s-0.8,0.4-0.8,0.8c0,0.5,0.4,0.9,0.8,0.9S281.9,10.8,281.9,10.4z"/>
	<path class="st0" d="M282.6,314.1c-0.5,0-0.9,0.4-0.9,0.8c0,0.5,0.4,0.8,0.9,0.8c0.5,0,0.8-0.4,0.8-0.8
		C283.4,314.5,283,314.1,282.6,314.1z"/>
	<path class="st0" d="M294.5,314.1c-0.5,0-0.9,0.4-0.9,0.8c0,0.5,0.4,0.8,0.9,0.8c0.5,0,0.9-0.4,0.9-0.8
		C295.4,314.5,295,314.1,294.5,314.1z"/>
	<path class="st0" d="M285.9,10.4c0-0.5-0.4-0.8-0.8-0.8s-0.8,0.4-0.8,0.8c0,0.5,0.4,0.9,0.8,0.9S285.9,10.8,285.9,10.4z"/>
	<path class="st0" d="M278.6,314.1c-0.5,0-0.9,0.4-0.9,0.8c0,0.5,0.4,0.8,0.9,0.8c0.5,0,0.8-0.4,0.8-0.8
		C279.4,314.5,279,314.1,278.6,314.1z"/>
	<path class="st0" d="M277.9,10.4c0-0.5-0.4-0.8-0.8-0.8s-0.8,0.4-0.8,0.8c0,0.5,0.4,0.9,0.8,0.9S277.9,10.8,277.9,10.4z"/>
	<path class="st0" d="M290.6,314.1c-0.5,0-0.9,0.4-0.9,0.8c0,0.5,0.4,0.8,0.9,0.8c0.5,0,0.8-0.4,0.8-0.8
		C291.4,314.5,291,314.1,290.6,314.1z"/>
	<path class="st0" d="M293.9,10.4c0-0.5-0.4-0.8-0.8-0.8s-0.8,0.4-0.8,0.8c0,0.5,0.4,0.9,0.8,0.9S293.9,10.8,293.9,10.4z"/>
	<path class="st0" d="M274.6,314.1c-0.5,0-0.9,0.4-0.9,0.8c0,0.5,0.4,0.8,0.9,0.8c0.5,0,0.8-0.4,0.8-0.8
		C275.4,314.5,275,314.1,274.6,314.1z"/>
	<path class="st0" d="M286.6,314.1c-0.5,0-0.9,0.4-0.9,0.8c0,0.5,0.4,0.8,0.9,0.8c0.5,0,0.8-0.4,0.8-0.8
		C287.4,314.5,287,314.1,286.6,314.1z"/>
	<path class="st0" d="M512.3,257.7L512.3,257.7c-0.1,0.2-0.2,0.4-0.2,0.6c0,0.2,0.1,0.5,0.3,0.6c0.2,0.1,0.3,0.2,0.5,0.2
		c0.2,0,0.5-0.1,0.7-0.3c0.1-0.2,0.2-0.3,0.2-0.5c0-0.2-0.1-0.5-0.3-0.7C513.1,257.3,512.6,257.4,512.3,257.7z"/>
	<path class="st0" d="M507.2,263.8c-0.1,0.2-0.2,0.4-0.2,0.6c0,0.2,0.1,0.5,0.3,0.6c0.2,0.1,0.4,0.2,0.6,0.2c0.2,0,0.5-0.1,0.6-0.3
		c0.1-0.2,0.2-0.4,0.2-0.6c0-0.2-0.1-0.5-0.3-0.6C508,263.4,507.5,263.4,507.2,263.8z"/>
	<path class="st0" d="M509.8,260.8c-0.1,0.2-0.2,0.3-0.2,0.5c0,0.2,0.1,0.5,0.3,0.7c0.2,0.1,0.4,0.2,0.5,0.2c0.2,0,0.5-0.1,0.7-0.3
		c0.1-0.2,0.2-0.3,0.2-0.5c0-0.2-0.1-0.5-0.3-0.7C510.6,260.4,510.1,260.4,509.8,260.8z"/>
	<path class="st0" d="M230,10.4c0-0.5-0.4-0.8-0.9-0.8c-0.5,0-0.9,0.4-0.9,0.8c0,0.5,0.4,0.9,0.9,0.9C229.6,11.2,230,10.8,230,10.4z
		"/>
	<path class="st0" d="M519.4,248.1c-0.1,0.1-0.2,0.3-0.2,0.5c0,0.3,0.1,0.5,0.4,0.7c0.1,0.1,0.3,0.2,0.5,0.2c0.3,0,0.5-0.1,0.7-0.4
		c0.1-0.1,0.2-0.3,0.2-0.5c0-0.3-0.1-0.5-0.4-0.7C520.2,247.7,519.7,247.8,519.4,248.1z"/>
	<path class="st0" d="M514.8,254.6c-0.1,0.2-0.2,0.3-0.2,0.5c0,0.3,0.1,0.5,0.3,0.7c0.1,0.1,0.3,0.2,0.5,0.2c0.3,0,0.5-0.1,0.7-0.3
		c0.1-0.1,0.2-0.3,0.2-0.5c0-0.3-0.1-0.5-0.3-0.7C515.6,254.1,515.1,254.2,514.8,254.6z"/>
	<path class="st0" d="M410.4,313.3c-0.4,0-0.8,0.4-0.8,0.8c0,0,0,0,0,0.1c0.1,0.4,0.4,0.8,0.9,0.8c0,0,0.1,0,0.1,0
		c0.4,0,0.8-0.4,0.8-0.8c0,0,0-0.1,0-0.1C411.3,313.6,410.9,313.3,410.4,313.3z"/>
	<path class="st0" d="M517.1,251.4L517.1,251.4c-0.1,0.2-0.2,0.3-0.2,0.5c0,0.2,0.1,0.5,0.4,0.7c0.2,0.1,0.3,0.2,0.5,0.2
		c0.3,0,0.5-0.1,0.7-0.3c0.1-0.2,0.2-0.3,0.2-0.5c0-0.3-0.1-0.5-0.4-0.7C517.9,250.9,517.4,251,517.1,251.4z"/>
	<path class="st0" d="M495.9,275c-0.2,0.2-0.3,0.4-0.3,0.6c0,0.2,0.1,0.4,0.2,0.6c0.2,0.2,0.4,0.3,0.6,0.3c0.2,0,0.4-0.1,0.6-0.2
		c0,0,0,0,0,0c0.2-0.2,0.3-0.4,0.3-0.6c0-0.2-0.1-0.4-0.2-0.6C496.8,274.8,496.3,274.7,495.9,275z"/>
	<path class="st0" d="M498.9,272.3c-0.2,0.2-0.3,0.4-0.3,0.6c0,0.2,0.1,0.4,0.2,0.6c0.2,0.2,0.4,0.3,0.6,0.3s0.4-0.1,0.6-0.2
		c0.2-0.2,0.3-0.4,0.3-0.6c0-0.2-0.1-0.4-0.2-0.6C499.7,272,499.2,272,498.9,272.3z"/>
	<path class="st0" d="M493,277.7c-0.2,0.2-0.3,0.4-0.3,0.7c0,0.2,0.1,0.4,0.2,0.5c0.2,0.2,0.4,0.3,0.7,0.3c0.2,0,0.4-0.1,0.5-0.2
		c0.2-0.2,0.3-0.4,0.3-0.7c0-0.2-0.1-0.4-0.2-0.5C493.9,277.4,493.3,277.4,493,277.7z"/>
	<path class="st0" d="M521.6,244.8c-0.1,0.1-0.1,0.3-0.1,0.5c0,0.3,0.1,0.6,0.4,0.7c0.1,0.1,0.3,0.1,0.5,0.1c0.3,0,0.5-0.1,0.7-0.4
		c0.1-0.1,0.1-0.3,0.1-0.5c0-0.3-0.1-0.5-0.4-0.7C522.4,244.3,521.9,244.4,521.6,244.8z"/>
	<path class="st0" d="M504.5,266.7c-0.2,0.2-0.2,0.4-0.2,0.6c0,0.2,0.1,0.5,0.3,0.6c0.2,0.2,0.4,0.2,0.6,0.2c0.2,0,0.5-0.1,0.6-0.3
		c0.2-0.2,0.2-0.4,0.2-0.6c0-0.2-0.1-0.5-0.3-0.6C505.3,266.3,504.8,266.4,504.5,266.7z"/>
	<path class="st0" d="M501.7,269.6c-0.2,0.2-0.2,0.4-0.2,0.6s0.1,0.4,0.2,0.6s0.4,0.2,0.6,0.2c0.2,0,0.4-0.1,0.6-0.2
		c0.2-0.2,0.2-0.4,0.2-0.6s-0.1-0.4-0.2-0.6C502.6,269.2,502,269.2,501.7,269.6z"/>
	<path class="st0" d="M545.1,185c-0.5-0.1-0.9,0.2-1,0.7c0,0,0,0.1,0,0.1c0,0.4,0.3,0.8,0.7,0.8c0,0,0.1,0,0.1,0
		c0.4,0,0.8-0.3,0.8-0.7c0,0,0,0,0,0c0,0,0-0.1,0-0.1C545.8,185.4,545.5,185.1,545.1,185z"/>
	<path class="st0" d="M544.4,189c-0.5-0.1-0.9,0.2-1,0.7c0,0.1,0,0.1,0,0.1c0,0.4,0.3,0.8,0.7,0.8c0.1,0,0.1,0,0.2,0
		c0.4,0,0.8-0.3,0.8-0.7c0,0,0,0,0,0c0-0.1,0-0.1,0-0.2C545.1,189.4,544.8,189,544.4,189z"/>
	<path class="st0" d="M545.6,181.1c-0.5-0.1-0.9,0.3-0.9,0.7c0,0,0,0.1,0,0.1c0,0.4,0.3,0.8,0.8,0.8c0,0,0.1,0,0.1,0
		c0.4,0,0.8-0.3,0.8-0.7c0,0,0-0.1,0-0.1C546.3,181.5,546,181.1,545.6,181.1z"/>
	<path class="st0" d="M542.8,196.8c-0.5-0.1-0.9,0.2-1,0.6c0,0.1,0,0.1,0,0.2c0,0.4,0.3,0.7,0.6,0.8c0.1,0,0.1,0,0.2,0
		c0.4,0,0.7-0.3,0.8-0.7c0-0.1,0-0.1,0-0.2C543.5,197.2,543.2,196.9,542.8,196.8z"/>
	<path class="st0" d="M543.7,192.9c-0.5-0.1-0.9,0.2-1,0.7c0,0.1,0,0.1,0,0.2c0,0.4,0.3,0.8,0.7,0.8c0.1,0,0.1,0,0.2,0
		c0.4,0,0.8-0.3,0.8-0.7c0-0.1,0-0.1,0-0.2C544.4,193.3,544.1,193,543.7,192.9z"/>
	<path class="st0" d="M541.9,200.7c-0.5-0.1-0.9,0.1-1,0.6c0,0.1,0,0.1,0,0.2c0,0.4,0.2,0.7,0.6,0.8c0.1,0,0.1,0,0.2,0
		c0.4,0,0.7-0.2,0.8-0.6c0-0.1,0-0.1,0-0.2C542.5,201.1,542.3,200.8,541.9,200.7z"/>
	<path class="st0" d="M546.5,169.1c-0.5,0-0.9,0.3-0.9,0.8c0,0,0,0,0,0c0,0.5,0.4,0.8,0.8,0.9c0,0,0,0,0,0c0.5,0,0.8-0.4,0.8-0.8
		c0,0,0,0,0,0C547.4,169.5,547,169.1,546.5,169.1z"/>
	<path class="st0" d="M546,177.1c-0.5,0-0.9,0.3-0.9,0.8c0,0,0,0.1,0,0.1c0,0.4,0.3,0.8,0.8,0.9c0,0,0,0,0.1,0
		c0.4,0,0.8-0.3,0.8-0.8c0,0,0,0,0-0.1C546.8,177.5,546.4,177.1,546,177.1z"/>
	<path class="st0" d="M546.7,165.1c-0.5,0-0.9,0.4-0.9,0.8c0,0,0,0,0,0c0,0.5,0.4,0.8,0.8,0.8c0,0,0,0,0,0c0.5,0,0.8-0.4,0.8-0.8
		c0,0,0,0,0,0C547.5,165.5,547.1,165.1,546.7,165.1z"/>
	<path class="st0" d="M546.3,173.1c-0.5,0-0.9,0.3-0.9,0.8c0,0,0,0,0,0.1c0,0.4,0.3,0.8,0.8,0.9c0,0,0.1,0,0.1,0
		c0.4,0,0.8-0.3,0.8-0.8c0,0,0,0,0-0.1C547.1,173.5,546.8,173.1,546.3,173.1z"/>
	<path class="st0" d="M526.9,237.7c-0.4-0.2-0.9-0.1-1.2,0.3c-0.1,0.1-0.1,0.3-0.1,0.4c0,0.3,0.1,0.6,0.4,0.7
		c0.1,0.1,0.3,0.1,0.4,0.1c0.3,0,0.6-0.2,0.7-0.4c0.1-0.1,0.1-0.3,0.1-0.4C527.4,238.2,527.2,237.9,526.9,237.7z"/>
	<path class="st0" d="M540.9,204.5c-0.5-0.1-0.9,0.1-1,0.6c0,0.1,0,0.2,0,0.2c0,0.4,0.2,0.7,0.6,0.8c0.1,0,0.2,0,0.2,0
		c0.4,0,0.7-0.2,0.8-0.6c0-0.1,0-0.1,0-0.2C541.5,205,541.2,204.7,540.9,204.5z"/>
	<path class="st0" d="M530.7,230.7c-0.4-0.2-0.9,0-1.2,0.4h0c-0.1,0.1-0.1,0.3-0.1,0.4c0,0.3,0.2,0.6,0.5,0.8
		c0.1,0.1,0.2,0.1,0.4,0.1c0.3,0,0.6-0.2,0.8-0.5c0.1-0.1,0.1-0.2,0.1-0.4C531.2,231.1,531,230.8,530.7,230.7z"/>
	<path class="st0" d="M528.9,234.2c-0.4-0.2-0.9-0.1-1.1,0.4v0c-0.1,0.1-0.1,0.3-0.1,0.4c0,0.3,0.2,0.6,0.5,0.8
		c0.1,0.1,0.3,0.1,0.4,0.1c0.3,0,0.6-0.2,0.8-0.5c0.1-0.1,0.1-0.3,0.1-0.4C529.3,234.7,529.2,234.4,528.9,234.2z"/>
	<path class="st0" d="M523.8,241.5c-0.1,0.1-0.1,0.3-0.1,0.4c0,0.3,0.1,0.6,0.4,0.7c0.1,0.1,0.3,0.1,0.4,0.1c0.3,0,0.6-0.1,0.7-0.4
		c0.1-0.1,0.1-0.3,0.1-0.4c0-0.3-0.1-0.6-0.4-0.7C524.5,240.9,524,241.1,523.8,241.5z"/>
	<path class="st0" d="M534.1,223.4c-0.4-0.2-0.9,0-1.1,0.4c-0.1,0.1-0.1,0.2-0.1,0.3c0,0.3,0.2,0.6,0.5,0.8c0.1,0,0.2,0.1,0.3,0.1
		c0.3,0,0.6-0.2,0.8-0.5c0-0.1,0.1-0.2,0.1-0.4C534.6,223.8,534.4,223.5,534.1,223.4z"/>
	<path class="st0" d="M532.4,227c-0.4-0.2-0.9,0-1.1,0.4c-0.1,0.1-0.1,0.2-0.1,0.4c0,0.3,0.2,0.6,0.5,0.8c0.1,0.1,0.2,0.1,0.4,0.1
		c0.3,0,0.6-0.2,0.8-0.5c0,0,0,0,0,0c0.1-0.1,0.1-0.2,0.1-0.4C532.9,227.5,532.8,227.2,532.4,227z"/>
	<path class="st0" d="M535.7,219.7c-0.4-0.2-0.9,0-1.1,0.5c-0.1,0.1-0.1,0.2-0.1,0.3c0,0.3,0.2,0.6,0.5,0.8c0.1,0,0.2,0.1,0.3,0.1
		c0.3,0,0.7-0.2,0.8-0.5c0-0.1,0.1-0.2,0.1-0.3C536.2,220.1,536,219.8,535.7,219.7z"/>
	<path class="st0" d="M539.7,208.4c-0.5-0.1-0.9,0.1-1.1,0.5c0,0.1,0,0.2,0,0.2c0,0.4,0.2,0.7,0.6,0.8c0.1,0,0.2,0,0.3,0
		c0.4,0,0.7-0.2,0.8-0.6c0-0.1,0-0.2,0-0.2C540.3,208.8,540.1,208.5,539.7,208.4z"/>
	<path class="st0" d="M538.4,212.2c-0.4-0.2-0.9,0.1-1.1,0.5c0,0.1,0,0.2,0,0.3c0,0.4,0.2,0.7,0.6,0.8c0.1,0,0.2,0,0.3,0
		c0.3,0,0.7-0.2,0.8-0.6c0-0.1,0-0.2,0-0.3C539,212.6,538.8,212.3,538.4,212.2z"/>
	<path class="st0" d="M537.1,216c-0.4-0.2-0.9,0.1-1.1,0.5c0,0.1-0.1,0.2-0.1,0.3c0,0.3,0.2,0.7,0.6,0.8c0.1,0,0.2,0.1,0.3,0.1
		c0.3,0,0.7-0.2,0.8-0.5c0-0.1,0.1-0.2,0.1-0.3C537.7,216.4,537.4,216.1,537.1,216z"/>
	<path class="st0" d="M437.6,307.9c-0.4,0.1-0.6,0.4-0.6,0.8c0,0.1,0,0.2,0,0.2c0.1,0.4,0.5,0.6,0.8,0.6c0.1,0,0.2,0,0.2,0
		c0,0,0,0,0,0c0.4-0.1,0.6-0.4,0.6-0.8c0-0.1,0-0.2,0-0.2C438.6,308,438.1,307.7,437.6,307.9z"/>
	<path class="st0" d="M441.4,306.7c-0.4,0.1-0.6,0.4-0.6,0.8c0,0.1,0,0.2,0,0.3c0.1,0.3,0.4,0.6,0.8,0.6c0.1,0,0.2,0,0.3,0
		c0.4-0.1,0.6-0.5,0.6-0.8c0-0.1,0-0.2,0-0.3C442.4,306.8,441.9,306.5,441.4,306.7z"/>
	<path class="st0" d="M433.8,309c-0.4,0.1-0.6,0.5-0.6,0.8c0,0.1,0,0.1,0,0.2c0.1,0.4,0.5,0.6,0.8,0.6c0.1,0,0.1,0,0.2,0
		c0.4-0.1,0.6-0.4,0.6-0.8c0-0.1,0-0.1,0-0.2C434.7,309.1,434.3,308.8,433.8,309z"/>
	<path class="st0" d="M448.9,304c-0.3,0.1-0.5,0.4-0.5,0.8c0,0.1,0,0.2,0.1,0.3c0.1,0.3,0.5,0.5,0.8,0.5c0.1,0,0.2,0,0.3-0.1
		c0.3-0.1,0.5-0.5,0.5-0.8c0-0.1,0-0.2-0.1-0.3C449.8,304.1,449.4,303.9,448.9,304z"/>
	<path class="st0" d="M489.9,280.2c-0.2,0.2-0.3,0.4-0.3,0.7c0,0.2,0.1,0.4,0.2,0.5c0.2,0.2,0.4,0.3,0.7,0.3c0.2,0,0.4-0.1,0.5-0.2
		c0.2-0.2,0.3-0.4,0.3-0.7c0-0.2-0.1-0.4-0.2-0.5C490.8,280,490.3,279.9,489.9,280.2z"/>
	<path class="st0" d="M445.2,305.4c-0.3,0.1-0.6,0.5-0.6,0.8c0,0.1,0,0.2,0.1,0.3c0.1,0.3,0.4,0.6,0.8,0.6c0.1,0,0.2,0,0.3-0.1
		c0.3-0.1,0.6-0.4,0.6-0.8c0-0.1,0-0.2,0-0.3C446.1,305.5,445.6,305.2,445.2,305.4z"/>
	<path class="st0" d="M418.3,312.3c-0.4,0.1-0.7,0.4-0.7,0.8c0,0,0,0.1,0,0.1c0.1,0.4,0.4,0.7,0.8,0.7c0,0,0.1,0,0.1,0
		c0.4-0.1,0.7-0.4,0.7-0.8c0,0,0-0.1,0-0.1C419.2,312.5,418.7,312.2,418.3,312.3z"/>
	<path class="st0" d="M429.9,309.9c-0.4,0.1-0.6,0.4-0.6,0.8c0,0.1,0,0.1,0,0.2c0.1,0.4,0.4,0.7,0.8,0.7c0.1,0,0.1,0,0.2,0
		c0.4-0.1,0.7-0.4,0.7-0.8c0-0.1,0-0.1,0-0.2C430.9,310.1,430.4,309.8,429.9,309.9z"/>
	<path class="st0" d="M452.6,302.5c-0.3,0.1-0.5,0.5-0.5,0.8c0,0.1,0,0.2,0.1,0.3c0.1,0.3,0.4,0.5,0.8,0.5c0.1,0,0.2,0,0.3-0.1
		c0.3-0.1,0.5-0.5,0.5-0.8c0-0.1,0-0.2-0.1-0.3C453.5,302.6,453,302.4,452.6,302.5z"/>
	<path class="st0" d="M414.3,312.8c-0.4,0.1-0.7,0.4-0.7,0.9c0,0,0,0.1,0,0.1c0.1,0.4,0.4,0.7,0.8,0.7c0,0,0.1,0,0.1,0
		c0.4-0.1,0.7-0.4,0.7-0.9c0,0,0-0.1,0-0.1C415.2,313.1,414.8,312.8,414.3,312.8z"/>
	<path class="st0" d="M426.1,310.8c-0.4,0.1-0.7,0.4-0.7,0.8c0,0,0,0.1,0,0.2c0.1,0.4,0.4,0.7,0.8,0.7c0.1,0,0.1,0,0.2,0
		c0.4-0.1,0.7-0.4,0.7-0.8c0-0.1,0-0.1,0-0.2C427,311,426.5,310.7,426.1,310.8z"/>
	<path class="st0" d="M422.2,311.6c-0.4,0.1-0.7,0.4-0.7,0.8c0,0,0,0.1,0,0.1c0.1,0.4,0.4,0.7,0.8,0.7c0.1,0,0.1,0,0.2,0
		c0.4-0.1,0.7-0.4,0.7-0.8c0,0,0-0.1,0-0.1C423.1,311.8,422.6,311.5,422.2,311.6z"/>
	<path class="st0" d="M480.4,287.4c-0.2,0.2-0.4,0.4-0.4,0.7c0,0.2,0,0.3,0.1,0.5c0.2,0.2,0.4,0.4,0.7,0.4c0.2,0,0.3,0,0.5-0.1
		c0.2-0.2,0.4-0.4,0.4-0.7c0-0.2-0.1-0.3-0.2-0.5C481.3,287.2,480.8,287.1,480.4,287.4z"/>
	<path class="st0" d="M473.7,291.7c-0.3,0.2-0.4,0.4-0.4,0.7c0,0.1,0,0.3,0.1,0.4c0.2,0.3,0.4,0.4,0.7,0.4c0.1,0,0.3,0,0.5-0.1
		c0.3-0.2,0.4-0.5,0.4-0.7c0-0.1,0-0.3-0.1-0.4C474.7,291.6,474.1,291.5,473.7,291.7z"/>
	<path class="st0" d="M477.1,289.6c-0.3,0.2-0.4,0.4-0.4,0.7c0,0.2,0.1,0.3,0.1,0.5c0.2,0.2,0.4,0.4,0.7,0.4c0.2,0,0.3,0,0.5-0.1
		c0,0,0,0,0,0c0.2-0.2,0.4-0.4,0.4-0.7c0-0.2,0-0.3-0.1-0.5C478,289.4,477.5,289.3,477.1,289.6z"/>
	<path class="st0" d="M486.8,282.7L486.8,282.7c-0.2,0.2-0.3,0.4-0.3,0.7c0,0.2,0.1,0.4,0.2,0.5c0.2,0.2,0.4,0.3,0.7,0.3
		c0.2,0,0.4-0.1,0.5-0.2c0.2-0.2,0.3-0.4,0.3-0.7c0-0.2-0.1-0.3-0.2-0.5C487.7,282.5,487.2,282.4,486.8,282.7z"/>
	<path class="st0" d="M483.6,285.1c-0.2,0.2-0.3,0.4-0.3,0.7c0,0.2,0,0.3,0.2,0.5c0.2,0.2,0.4,0.4,0.7,0.4c0.2,0,0.4-0.1,0.5-0.2
		c0.2-0.2,0.3-0.4,0.4-0.7c0-0.2,0-0.3-0.2-0.5C484.5,284.9,484,284.8,483.6,285.1z"/>
	<path class="st0" d="M463.4,297.5c-0.3,0.2-0.5,0.5-0.5,0.8c0,0.1,0,0.3,0.1,0.4c0.1,0.3,0.4,0.5,0.8,0.5c0.1,0,0.3,0,0.4-0.1
		c0.3-0.2,0.5-0.5,0.5-0.8c0-0.1,0-0.3-0.1-0.4C464.3,297.5,463.8,297.3,463.4,297.5z"/>
	<path class="st0" d="M459.8,299.3c-0.3,0.1-0.5,0.4-0.5,0.8c0,0.1,0,0.2,0.1,0.4c0.1,0.3,0.4,0.5,0.8,0.5c0.1,0,0.2,0,0.4-0.1
		c0.3-0.1,0.5-0.5,0.5-0.8c0-0.1,0-0.2-0.1-0.4C460.8,299.3,460.2,299.1,459.8,299.3z"/>
	<path class="st0" d="M456.2,301c-0.3,0.1-0.5,0.4-0.5,0.8c0,0.1,0,0.2,0.1,0.3c0.1,0.3,0.5,0.5,0.8,0.5c0.1,0,0.2,0,0.4-0.1
		c0.3-0.1,0.5-0.5,0.5-0.8c0-0.1,0-0.2-0.1-0.3C457.2,301,456.7,300.8,456.2,301z"/>
	<path class="st0" d="M470.3,293.7c-0.3,0.2-0.4,0.4-0.4,0.7c0,0.1,0,0.3,0.1,0.4c0.2,0.3,0.5,0.4,0.7,0.4c0.1,0,0.3,0,0.4-0.1
		c0.3-0.2,0.4-0.4,0.4-0.7c0-0.2,0-0.3-0.1-0.4C471.3,293.6,470.7,293.5,470.3,293.7z"/>
	<path class="st0" d="M466.9,295.7c-0.3,0.2-0.5,0.4-0.5,0.8c0,0.1,0,0.3,0.1,0.4c0.1,0.3,0.4,0.4,0.8,0.4c0.1,0,0.3,0,0.4-0.1
		c0.3-0.2,0.4-0.5,0.4-0.8c0-0.1,0-0.3-0.1-0.4C467.8,295.6,467.3,295.5,466.9,295.7z"/>
	<path class="st0" d="M338.5,314.1c-0.5,0-0.8,0.4-0.8,0.8c0,0.5,0.4,0.8,0.8,0.8c0.5,0,0.9-0.4,0.9-0.8
		C339.4,314.5,339,314.1,338.5,314.1z"/>
	<path class="st0" d="M15.2,225.2c-0.2-0.4-0.7-0.6-1.1-0.4c-0.3,0.1-0.5,0.5-0.5,0.8c0,0.1,0,0.2,0.1,0.4c0.1,0.3,0.5,0.5,0.8,0.5
		c0.1,0,0.2,0,0.4-0.1c0.3-0.1,0.5-0.5,0.5-0.8C15.2,225.4,15.2,225.3,15.2,225.2z"/>
	<path class="st0" d="M13.6,221.6c-0.2-0.4-0.7-0.6-1.1-0.5c-0.3,0.1-0.5,0.5-0.5,0.8c0,0.1,0,0.2,0.1,0.3c0.1,0.3,0.5,0.5,0.8,0.5
		c0.1,0,0.2,0,0.3-0.1c0.3-0.1,0.5-0.4,0.5-0.8C13.6,221.8,13.6,221.7,13.6,221.6z"/>
	<path class="st0" d="M12.1,217.9c-0.2-0.4-0.7-0.7-1.1-0.5c-0.3,0.1-0.5,0.5-0.5,0.8c0,0.1,0,0.2,0.1,0.3c0.1,0.3,0.4,0.5,0.8,0.5
		c0.1,0,0.2,0,0.3-0.1c0.3-0.1,0.5-0.5,0.5-0.8C12.1,218.1,12.1,218,12.1,217.9z"/>
	<path class="st0" d="M15.7,228.4c-0.3,0.2-0.5,0.5-0.5,0.8c0,0.1,0,0.2,0.1,0.4c0.1,0.3,0.5,0.5,0.8,0.5c0.1,0,0.2,0,0.4-0.1
		c0.3-0.1,0.5-0.5,0.5-0.8c0-0.1,0-0.2-0.1-0.4C16.6,228.4,16.1,228.2,15.7,228.4z"/>
	<path class="st0" d="M10.7,214.2c-0.2-0.4-0.6-0.7-1.1-0.5c-0.3,0.1-0.6,0.5-0.6,0.8c0,0.1,0,0.2,0.1,0.3c0.1,0.3,0.4,0.6,0.8,0.6
		c0.1,0,0.2,0,0.3,0c0.4-0.1,0.6-0.5,0.6-0.8C10.7,214.4,10.7,214.3,10.7,214.2z"/>
	<path class="st0" d="M23.3,242.4c-0.3,0.2-0.4,0.5-0.4,0.7c0,0.2,0,0.3,0.1,0.4c0.2,0.3,0.4,0.4,0.7,0.4c0.1,0,0.3,0,0.5-0.1
		c0.3-0.2,0.4-0.5,0.4-0.7c0-0.1-0.1-0.3-0.1-0.4C24.3,242.3,23.7,242.1,23.3,242.4z"/>
	<path class="st0" d="M9.4,210.7c0-0.1,0-0.2,0-0.3c-0.1-0.4-0.6-0.7-1.1-0.5c-0.4,0.1-0.6,0.4-0.6,0.8c0,0.1,0,0.2,0.1,0.3
		c0.1,0.4,0.4,0.6,0.8,0.6c0.1,0,0.2,0,0.3,0C9.2,211.4,9.4,211,9.4,210.7z"/>
	<path class="st0" d="M17.5,232c-0.3,0.2-0.5,0.5-0.5,0.8c0,0.1,0,0.3,0.1,0.4c0.2,0.3,0.5,0.5,0.8,0.5c0.1,0,0.3,0,0.4-0.1
		c0.3-0.1,0.5-0.4,0.4-0.8c0-0.1,0-0.3-0.1-0.4C18.4,231.9,17.9,231.7,17.5,232z"/>
	<path class="st0" d="M25.5,245.8c-0.2,0.2-0.4,0.4-0.4,0.7c0,0.2,0,0.3,0.1,0.5c0.2,0.2,0.4,0.4,0.7,0.4c0.2,0,0.3,0,0.5-0.1
		c0.2-0.2,0.4-0.4,0.4-0.7c0-0.1,0-0.3-0.1-0.5C26.4,245.6,25.9,245.5,25.5,245.8z"/>
	<path class="st0" d="M21.3,239c-0.3,0.2-0.4,0.5-0.4,0.7c0,0.1,0,0.3,0.1,0.4c0.2,0.3,0.4,0.4,0.7,0.4c0.1,0,0.3,0,0.4-0.1
		c0.3-0.2,0.4-0.4,0.4-0.7c0-0.1,0-0.3-0.1-0.4C22.2,238.9,21.7,238.7,21.3,239z"/>
	<path class="st0" d="M19.3,235.5c-0.3,0.2-0.4,0.5-0.4,0.8c0,0.1,0,0.3,0.1,0.4c0.2,0.3,0.5,0.4,0.8,0.4c0.1,0,0.3,0,0.4-0.1
		c0.3-0.2,0.4-0.5,0.4-0.8c0-0.1,0-0.3-0.1-0.4C20.3,235.4,19.8,235.3,19.3,235.5z"/>
	<path class="st0" d="M25.8,80.6c0.1-0.1,0.1-0.3,0.1-0.4c0-0.3-0.1-0.6-0.4-0.7c-0.4-0.3-0.9-0.1-1.2,0.2c-0.1,0.1-0.1,0.3-0.1,0.5
		c0,0.3,0.1,0.6,0.4,0.7c0.1,0.1,0.3,0.1,0.5,0.1C25.4,81,25.7,80.9,25.8,80.6z"/>
	<path class="st0" d="M3,188.3c0.4-0.1,0.7-0.4,0.7-0.8c0,0,0-0.1,0-0.1c-0.1-0.5-0.5-0.8-1-0.7C2.3,186.7,2,187,2,187.4
		c0,0.1,0,0.1,0,0.1c0.1,0.4,0.4,0.7,0.8,0.7C2.9,188.3,2.9,188.3,3,188.3z"/>
	<path class="st0" d="M2.4,184.3c0.4-0.1,0.7-0.4,0.7-0.8c0,0,0-0.1,0-0.1c-0.1-0.5-0.5-0.8-0.9-0.7c-0.4,0.1-0.7,0.4-0.7,0.9
		c0,0,0,0.1,0,0.1c0.1,0.4,0.4,0.7,0.8,0.7C2.3,184.3,2.3,184.3,2.4,184.3z"/>
	<path class="st0" d="M1.9,180.3c0.4,0,0.8-0.4,0.8-0.8c0,0,0-0.1,0-0.1c-0.1-0.5-0.5-0.8-0.9-0.8c-0.4,0-0.8,0.4-0.8,0.8
		c0,0,0,0.1,0,0.1C1,180,1.3,180.3,1.9,180.3C1.8,180.3,1.8,180.3,1.9,180.3z"/>
	<path class="st0" d="M1.2,172.4c0.5,0,0.8-0.4,0.8-0.9c0,0,0,0,0,0c0-0.5-0.4-0.8-0.9-0.8c-0.5,0-0.8,0.4-0.8,0.9c0,0,0,0,0,0.1
		C0.3,172,0.7,172.4,1.2,172.4C1.1,172.4,1.1,172.4,1.2,172.4z"/>
	<path class="st0" d="M1.5,176.4c0.4,0,0.8-0.4,0.8-0.9c0,0,0,0,0-0.1c0-0.5-0.5-0.8-0.9-0.8c-0.5,0-0.8,0.4-0.8,0.9c0,0,0,0,0,0.1
		C0.6,176,0.9,176.4,1.5,176.4C1.4,176.4,1.4,176.4,1.5,176.4z"/>
	<path class="st0" d="M6.1,199.2c0-0.1,0-0.1,0-0.2c-0.1-0.5-0.6-0.7-1-0.6c-0.4,0.1-0.6,0.5-0.6,0.8c0,0.1,0,0.1,0,0.2
		c0.1,0.4,0.4,0.7,0.8,0.7c0.1,0,0.1,0,0.2,0C5.8,199.9,6.1,199.6,6.1,199.2z"/>
	<path class="st0" d="M8.2,206.9c0-0.1,0-0.2,0-0.2c-0.1-0.5-0.6-0.7-1.1-0.6c-0.4,0.1-0.6,0.4-0.6,0.8c0,0.1,0,0.2,0,0.3
		c0.1,0.4,0.5,0.6,0.8,0.6c0.1,0,0.2,0,0.2,0C8,207.6,8.2,207.2,8.2,206.9z"/>
	<path class="st0" d="M7.1,203c0-0.1,0-0.2,0-0.2c-0.1-0.5-0.6-0.7-1.1-0.6c-0.4,0.1-0.6,0.4-0.6,0.8c0,0.1,0,0.2,0,0.2
		c0.1,0.4,0.4,0.6,0.8,0.6c0.1,0,0.1,0,0.2,0C6.9,203.8,7.1,203.4,7.1,203z"/>
	<path class="st0" d="M5.2,195.3c0-0.1,0-0.1,0-0.2c-0.1-0.5-0.5-0.8-1-0.6c-0.4,0.1-0.7,0.4-0.7,0.8c0,0.1,0,0.1,0,0.2
		c0.1,0.4,0.4,0.7,0.8,0.7c0.1,0,0.1,0,0.2,0C4.9,196,5.2,195.7,5.2,195.3z"/>
	<path class="st0" d="M3.7,192.2c0.4-0.1,0.7-0.4,0.7-0.8c0,0,0-0.1,0-0.2c-0.1-0.5-0.5-0.8-1-0.7c-0.4,0.1-0.7,0.4-0.7,0.8
		c0,0,0,0.1,0,0.2c0.1,0.4,0.4,0.7,0.8,0.7C3.6,192.2,3.7,192.2,3.7,192.2z"/>
	<path class="st0" d="M0.9,168.4C0.9,168.4,0.9,168.4,0.9,168.4c0.5,0,0.9-0.4,0.9-0.9c0,0,0,0,0,0c0-0.5-0.4-0.8-0.9-0.8
		c-0.5,0-0.8,0.4-0.8,0.9c0,0,0,0,0,0C0.1,168,0.5,168.4,0.9,168.4z"/>
	<path class="st0" d="M45.6,270.5c-0.2,0.2-0.2,0.4-0.2,0.6c0,0.2,0.1,0.4,0.2,0.6c0.2,0.2,0.4,0.2,0.6,0.2c0.2,0,0.4-0.1,0.6-0.2
		c0.2-0.2,0.2-0.4,0.2-0.6c0-0.2-0.1-0.4-0.2-0.6C46.5,270.2,45.9,270.2,45.6,270.5z"/>
	<path class="st0" d="M46,55.3c0-0.2-0.1-0.4-0.2-0.6c-0.3-0.3-0.9-0.3-1.2,0c-0.2,0.2-0.2,0.4-0.2,0.6c0,0.2,0.1,0.4,0.2,0.6
		c0.2,0.2,0.4,0.2,0.6,0.2c0.2,0,0.4-0.1,0.6-0.2C45.9,55.7,46,55.5,46,55.3z"/>
	<path class="st0" d="M43.2,58.2c0-0.2-0.1-0.5-0.3-0.6c-0.3-0.3-0.9-0.3-1.2,0c-0.1,0.2-0.2,0.4-0.2,0.6c0,0.2,0.1,0.5,0.3,0.6
		c0.2,0.2,0.4,0.2,0.6,0.2c0.2,0,0.5-0.1,0.6-0.3C43.1,58.6,43.2,58.4,43.2,58.2z"/>
	<path class="st0" d="M40.1,264.7c-0.2,0.2-0.3,0.4-0.3,0.6c0,0.2,0.1,0.4,0.2,0.6c0.2,0.2,0.4,0.3,0.6,0.3c0.2,0,0.4-0.1,0.6-0.2
		c0.2-0.2,0.3-0.4,0.3-0.6c0-0.2-0.1-0.4-0.2-0.6C41,264.4,40.4,264.4,40.1,264.7z"/>
	<path class="st0" d="M48.8,52.5c0-0.2-0.1-0.4-0.2-0.6c-0.3-0.3-0.9-0.4-1.2,0c-0.2,0.2-0.3,0.4-0.3,0.6c0,0.2,0.1,0.4,0.2,0.6
		c0.2,0.2,0.4,0.3,0.6,0.3c0.2,0,0.4-0.1,0.6-0.2C48.7,53,48.8,52.7,48.8,52.5z"/>
	<path class="st0" d="M44,267.7c-0.3-0.3-0.9-0.4-1.2,0c-0.2,0.2-0.3,0.4-0.3,0.6c0,0.2,0.1,0.4,0.2,0.6c0,0,0,0,0,0
		c0.2,0.2,0.4,0.3,0.6,0.3c0.2,0,0.4-0.1,0.6-0.2c0.2-0.2,0.3-0.4,0.3-0.6C44.2,268.1,44.2,267.8,44,267.7L44,267.7z"/>
	<path class="st0" d="M51.4,276c-0.1,0.2-0.2,0.4-0.2,0.6c0,0.2,0.1,0.5,0.3,0.6c0.2,0.1,0.4,0.2,0.6,0.2c0.2,0,0.5-0.1,0.6-0.3
		c0.1-0.2,0.2-0.4,0.2-0.6c0-0.2-0.1-0.5-0.3-0.6C52.2,275.6,51.7,275.7,51.4,276z"/>
	<path class="st0" d="M48.5,273.3c-0.1,0.2-0.2,0.4-0.2,0.6c0,0.2,0.1,0.5,0.3,0.6c0.2,0.2,0.4,0.2,0.6,0.2c0.2,0,0.5-0.1,0.6-0.3
		c0.1-0.2,0.2-0.4,0.2-0.6c0-0.2-0.1-0.5-0.3-0.6C49.3,272.9,48.8,273,48.5,273.3z"/>
	<path class="st0" d="M54.8,47.1c0-0.2-0.1-0.4-0.2-0.5c-0.3-0.4-0.8-0.4-1.2-0.1c-0.2,0.2-0.3,0.4-0.3,0.7c0,0.2,0.1,0.4,0.2,0.5
		c0.2,0.2,0.4,0.3,0.6,0.3c0.2,0,0.4-0.1,0.5-0.2C54.7,47.6,54.8,47.4,54.8,47.1z"/>
	<path class="st0" d="M54.4,278.6c-0.1,0.2-0.2,0.3-0.2,0.5c0,0.2,0.1,0.5,0.3,0.7c0.1,0.1,0.3,0.2,0.5,0.2c0.2,0,0.5-0.1,0.6-0.3
		c0.1-0.2,0.2-0.3,0.2-0.5c0-0.2-0.1-0.5-0.3-0.7C55.2,278.2,54.7,278.3,54.4,278.6z"/>
	<path class="st0" d="M32.4,255.5c-0.2,0.2-0.3,0.4-0.3,0.7c0,0.2,0.1,0.4,0.2,0.5c0.2,0.2,0.4,0.3,0.7,0.3c0.2,0,0.4-0.1,0.5-0.2
		c0.2-0.2,0.3-0.4,0.3-0.7c0-0.2-0.1-0.4-0.2-0.5C33.3,255.3,32.8,255.2,32.4,255.5z"/>
	<path class="st0" d="M32.9,70.4c0-0.3-0.1-0.5-0.3-0.7c-0.4-0.3-0.9-0.2-1.2,0.2c-0.1,0.2-0.2,0.3-0.2,0.5c0,0.3,0.1,0.5,0.3,0.7
		c0.2,0.1,0.3,0.2,0.5,0.2c0.2,0,0.5-0.1,0.7-0.3C32.8,70.7,32.9,70.6,32.9,70.4z"/>
	<path class="st0" d="M30,252.3c-0.2,0.2-0.4,0.4-0.4,0.7c0,0.2,0,0.3,0.2,0.5c0,0,0,0,0,0c0.2,0.2,0.4,0.3,0.7,0.3
		c0.2,0,0.3,0,0.5-0.2c0.2-0.2,0.3-0.4,0.3-0.7c0-0.2,0-0.4-0.2-0.5C30.9,252.1,30.4,252.1,30,252.3z"/>
	<path class="st0" d="M28.2,76.9c0-0.3-0.1-0.5-0.4-0.7c-0.4-0.3-0.9-0.2-1.2,0.2c-0.1,0.2-0.1,0.3-0.1,0.5c0,0.3,0.1,0.5,0.4,0.7
		c0.1,0.1,0.3,0.1,0.5,0.1c0.3,0,0.5-0.1,0.7-0.4C28.1,77.2,28.2,77,28.2,76.9z"/>
	<path class="st0" d="M30.5,73.6c0-0.3-0.1-0.5-0.4-0.7c-0.4-0.3-0.9-0.2-1.2,0.2c-0.1,0.1-0.2,0.3-0.2,0.5c0,0.3,0.1,0.5,0.4,0.7
		c0.1,0.1,0.3,0.2,0.5,0.2c0.3,0,0.5-0.1,0.7-0.4C30.4,73.9,30.5,73.7,30.5,73.6z"/>
	<path class="st0" d="M40.5,61.1c0-0.2-0.1-0.5-0.3-0.6c-0.4-0.3-0.9-0.3-1.2,0.1c-0.2,0.2-0.2,0.4-0.2,0.6c0,0.2,0.1,0.5,0.3,0.6
		c0.2,0.1,0.4,0.2,0.6,0.2c0.2,0,0.5-0.1,0.6-0.3C40.4,61.5,40.5,61.3,40.5,61.1z"/>
	<path class="st0" d="M27.7,249.1c-0.2,0.2-0.4,0.4-0.4,0.7c0,0.2,0,0.3,0.2,0.5c0.2,0.2,0.4,0.4,0.7,0.4c0.2,0,0.3,0,0.5-0.2
		c0.2-0.2,0.4-0.4,0.4-0.7c0-0.2-0.1-0.3-0.2-0.5C28.6,248.9,28.1,248.8,27.7,249.1z"/>
	<path class="st0" d="M37.4,261.7c-0.2,0.2-0.3,0.4-0.3,0.7c0,0.2,0.1,0.4,0.2,0.5c0.2,0.2,0.4,0.3,0.6,0.3c0.2,0,0.4-0.1,0.6-0.2
		c0.2-0.2,0.3-0.4,0.3-0.6c0-0.2-0.1-0.4-0.2-0.6C38.3,261.5,37.8,261.4,37.4,261.7z"/>
	<path class="st0" d="M37.9,64.2c0-0.2-0.1-0.5-0.3-0.7c-0.4-0.3-0.9-0.3-1.2,0.1c-0.1,0.2-0.2,0.3-0.2,0.5c0,0.2,0.1,0.5,0.3,0.7
		c0.2,0.1,0.4,0.2,0.5,0.2c0.2,0,0.5-0.1,0.6-0.3C37.8,64.5,37.9,64.3,37.9,64.2z"/>
	<path class="st0" d="M34.9,258.7c-0.2,0.2-0.3,0.4-0.3,0.7c0,0.2,0.1,0.4,0.2,0.5c0.2,0.2,0.4,0.3,0.7,0.3c0.2,0,0.4-0.1,0.5-0.2
		c0.2-0.2,0.3-0.4,0.3-0.7c0-0.2-0.1-0.4-0.2-0.5C35.8,258.4,35.2,258.4,34.9,258.7z"/>
	<path class="st0" d="M35.3,67.2c0-0.2-0.1-0.5-0.3-0.7c-0.4-0.3-0.9-0.2-1.2,0.1c-0.1,0.2-0.2,0.4-0.2,0.5c0,0.2,0.1,0.5,0.3,0.7
		c0.2,0.1,0.4,0.2,0.5,0.2c0.2,0,0.5-0.1,0.7-0.3C35.3,67.6,35.3,67.4,35.3,67.2z"/>
	<path class="st0" d="M51.8,49.8c0-0.2-0.1-0.4-0.2-0.6c-0.3-0.3-0.9-0.4-1.2-0.1c-0.2,0.2-0.3,0.4-0.3,0.6c0,0.2,0.1,0.4,0.2,0.6
		c0.2,0.2,0.4,0.3,0.6,0.3c0.2,0,0.4-0.1,0.6-0.2C51.7,50.3,51.8,50,51.8,49.8z"/>
	<path class="st0" d="M0.9,164.4c0.5,0,0.9-0.4,0.9-0.9c0-0.5-0.4-0.8-0.9-0.8c-0.5,0-0.8,0.4-0.8,0.9C0,164,0.4,164.4,0.9,164.4z"
		/>
	<path class="st0" d="M546.6,158.8C546.6,158.8,546.6,158.8,546.6,158.8c0.5,0,0.9-0.4,0.8-0.9c0,0,0,0,0,0l-1.7,0c0,0,0,0,0,0
		C545.8,158.5,546.2,158.8,546.6,158.8z"/>
	<path class="st0" d="M3.1,136.5c0,0,0.1,0,0.1,0c0.4,0,0.8-0.3,0.8-0.7c0,0,0-0.1,0-0.1c0-0.4-0.3-0.8-0.7-0.8
		c-0.5-0.1-0.9,0.2-1,0.7c0,0,0,0.1,0,0.1C2.4,136.1,2.7,136.5,3.1,136.5z"/>
	<path class="st0" d="M2.5,140.5c0,0,0.1,0,0.1,0c0.4,0,0.8-0.3,0.8-0.7c0,0,0-0.1,0-0.1c0-0.4-0.3-0.8-0.7-0.8
		c-0.5-0.1-0.9,0.2-1,0.7c0,0,0,0.1,0,0.1C1.7,140.1,2,140.4,2.5,140.5z"/>
	<path class="st0" d="M1.9,144.5c0,0,0.1,0,0.1,0c0.4,0,0.8-0.3,0.8-0.7c0,0,0-0.1,0-0.1c0-0.4-0.3-0.8-0.8-0.8
		c-0.5-0.1-0.9,0.3-0.9,0.7c0,0,0,0.1,0,0.1C1.2,144,1.5,144.4,1.9,144.5z"/>
	<path class="st0" d="M4.7,128.7c0.1,0,0.1,0,0.2,0c0.4,0,0.7-0.3,0.8-0.7c0-0.1,0-0.1,0-0.2c0-0.4-0.3-0.7-0.7-0.8
		c-0.5-0.1-0.9,0.2-1,0.6c0,0.1,0,0.1,0,0.2C4,128.3,4.3,128.6,4.7,128.7z"/>
	<path class="st0" d="M5.6,124.8c0.1,0,0.1,0,0.2,0c0.4,0,0.7-0.3,0.8-0.6c0-0.1,0-0.1,0-0.2c0-0.4-0.2-0.7-0.6-0.8
		c-0.5-0.1-0.9,0.1-1,0.6c0,0.1,0,0.1,0,0.2C5,124.4,5.2,124.7,5.6,124.8z"/>
	<path class="st0" d="M3.8,132.6c0.1,0,0.1,0,0.2,0c0.4,0,0.8-0.3,0.8-0.7c0-0.1,0-0.1,0-0.2c0-0.4-0.3-0.8-0.7-0.8
		c-0.5-0.1-0.9,0.2-1,0.7c0,0.1,0,0.1,0,0.2C3.1,132.2,3.4,132.5,3.8,132.6z"/>
	<path class="st0" d="M1,156.4C1,156.4,1,156.4,1,156.4c0.5,0,0.9-0.4,0.9-0.8c0,0,0,0,0,0c0-0.5-0.4-0.8-0.8-0.8
		c-0.5,0-0.9,0.3-0.9,0.8c0,0,0,0,0,0C0.2,156,0.5,156.4,1,156.4z"/>
	<path class="st0" d="M23,84.4c0.3,0,0.6-0.1,0.7-0.4c0.1-0.1,0.1-0.3,0.1-0.4c0-0.3-0.1-0.6-0.4-0.7c-0.4-0.2-0.9-0.1-1.2,0.3
		c-0.1,0.1-0.1,0.3-0.1,0.4c0,0.3,0.1,0.6,0.4,0.7C22.7,84.4,22.8,84.4,23,84.4z"/>
	<path class="st0" d="M1.5,148.4C1.5,148.4,1.6,148.4,1.5,148.4c0.5,0,0.9-0.3,0.9-0.8c0,0,0-0.1,0-0.1c0-0.4-0.3-0.8-0.8-0.8
		c-0.5-0.1-0.9,0.3-0.9,0.8c0,0,0,0.1,0,0.1C0.7,148,1.1,148.4,1.5,148.4z"/>
	<path class="st0" d="M1.2,152.4C1.2,152.4,1.2,152.4,1.2,152.4c0.5,0,0.9-0.3,0.9-0.8c0,0,0,0,0-0.1c0-0.4-0.3-0.8-0.8-0.8
		c-0.5,0-0.9,0.3-0.9,0.8c0,0,0,0,0,0.1C0.4,152,0.7,152.4,1.2,152.4z"/>
	<path class="st0" d="M0.9,160.4C0.9,160.4,0.9,160.4,0.9,160.4c0.5,0,0.9-0.4,0.9-0.8c0,0,0,0,0,0c0-0.5-0.4-0.8-0.8-0.9
		c-0.5,0-0.9,0.4-0.9,0.8c0,0,0,0,0,0C0,160,0.4,160.4,0.9,160.4z"/>
	<path class="st0" d="M6.6,121c0.1,0,0.2,0,0.2,0c0.4,0,0.7-0.2,0.8-0.6c0-0.1,0-0.1,0-0.2c0-0.4-0.2-0.7-0.6-0.8
		c-0.5-0.1-0.9,0.1-1,0.6c0,0.1,0,0.1,0,0.2C6,120.5,6.3,120.8,6.6,121z"/>
	<path class="st0" d="M15,98.4c0.1,0.1,0.2,0.1,0.4,0.1c0.3,0,0.6-0.2,0.8-0.5c0.1-0.1,0.1-0.2,0.1-0.4c0-0.3-0.2-0.6-0.5-0.8
		c-0.4-0.2-0.9,0-1.1,0.4c0,0.1-0.1,0.2-0.1,0.4C14.5,98,14.7,98.3,15,98.4z"/>
	<path class="st0" d="M13.4,102.1c0.1,0,0.2,0.1,0.3,0.1c0.3,0,0.6-0.2,0.8-0.5c0-0.1,0.1-0.2,0.1-0.3c0-0.3-0.2-0.6-0.5-0.8
		c-0.4-0.2-0.9,0-1.1,0.4c-0.1,0.1-0.1,0.2-0.1,0.4C12.9,101.7,13.1,102,13.4,102.1z"/>
	<path class="st0" d="M226.6,314.1c-0.5,0-0.9,0.4-0.9,0.8c0,0.5,0.4,0.8,0.9,0.8c0.5,0,0.8-0.4,0.8-0.8
		C227.4,314.5,227,314.1,226.6,314.1z"/>
	<path class="st0" d="M18.6,91.3c0.1,0.1,0.3,0.1,0.4,0.1c0.3,0,0.6-0.2,0.8-0.4c0.1-0.1,0.1-0.3,0.1-0.4c0-0.3-0.2-0.6-0.4-0.8
		c-0.4-0.2-0.9-0.1-1.1,0.3c-0.1,0.1-0.1,0.3-0.1,0.4C18.1,90.8,18.3,91.1,18.6,91.3z"/>
	<path class="st0" d="M16.8,94.8c0.1,0.1,0.2,0.1,0.4,0.1c0.3,0,0.6-0.2,0.8-0.5c0.1-0.1,0.1-0.3,0.1-0.4c0-0.3-0.2-0.6-0.5-0.8
		c-0.4-0.2-0.9,0-1.1,0.4c-0.1,0.1-0.1,0.2-0.1,0.4C16.3,94.4,16.5,94.7,16.8,94.8z"/>
	<path class="st0" d="M9,113.3c0.1,0,0.2,0,0.3,0c0.3,0,0.7-0.2,0.8-0.6c0-0.1,0-0.2,0-0.3c0-0.4-0.2-0.7-0.6-0.8
		c-0.4-0.1-0.9,0.1-1.1,0.5c0,0,0,0,0,0c0,0.1,0,0.2,0,0.3C8.5,112.9,8.7,113.2,9,113.3z"/>
	<path class="st0" d="M7.8,117.1c0.1,0,0.2,0,0.3,0c0.4,0,0.7-0.2,0.8-0.6c0-0.1,0-0.2,0-0.2c0-0.4-0.2-0.7-0.6-0.8
		c-0.5-0.1-0.9,0.1-1.1,0.5c0,0.1,0,0.2,0,0.2C7.2,116.7,7.4,117,7.8,117.1z"/>
	<path class="st0" d="M11.8,105.8c0.1,0,0.2,0.1,0.3,0.1c0.3,0,0.6-0.2,0.8-0.5c0-0.1,0.1-0.2,0.1-0.3c0-0.3-0.2-0.7-0.5-0.8
		c-0.4-0.2-0.9,0-1.1,0.5c0,0,0,0,0,0c0,0.1-0.1,0.2-0.1,0.3C11.3,105.4,11.5,105.7,11.8,105.8z"/>
	<path class="st0" d="M10.4,109.5c0.1,0,0.2,0.1,0.3,0.1c0.3,0,0.7-0.2,0.8-0.5c0-0.1,0-0.2,0-0.3c0-0.4-0.2-0.7-0.5-0.8
		c-0.4-0.2-0.9,0.1-1.1,0.5c0,0.1-0.1,0.2-0.1,0.3C9.8,109.1,10,109.4,10.4,109.5z"/>
	<path class="st0" d="M20.5,87.8c0.1,0.1,0.3,0.1,0.4,0.1c0.3,0,0.6-0.1,0.7-0.4c0.1-0.1,0.1-0.3,0.1-0.4c0-0.3-0.2-0.6-0.4-0.7
		c-0.4-0.2-0.9-0.1-1.2,0.3c-0.1,0.1-0.1,0.3-0.1,0.4C20.1,87.3,20.2,87.6,20.5,87.8z"/>
	<path class="st0" d="M170,10.4c0-0.5-0.4-0.8-0.8-0.8c-0.5,0-0.9,0.4-0.9,0.8c0,0.5,0.4,0.9,0.9,0.9C169.6,11.2,170,10.8,170,10.4z
		"/>
	<path class="st0" d="M166.6,314.1c-0.5,0-0.9,0.4-0.9,0.8c0,0.5,0.4,0.8,0.9,0.8s0.8-0.4,0.8-0.8
		C167.4,314.5,167.1,314.1,166.6,314.1z"/>
	<path class="st0" d="M170.6,314.1c-0.5,0-0.8,0.4-0.8,0.8c0,0.5,0.4,0.8,0.8,0.8c0.5,0,0.9-0.4,0.9-0.8
		C171.4,314.5,171.1,314.1,170.6,314.1z"/>
	<path class="st0" d="M166,10.4c0-0.5-0.4-0.8-0.9-0.8c-0.5,0-0.8,0.4-0.8,0.8c0,0.5,0.4,0.9,0.8,0.9C165.6,11.2,166,10.8,166,10.4z
		"/>
	<path class="st0" d="M162.6,314.1c-0.5,0-0.9,0.4-0.9,0.8c0,0.5,0.4,0.8,0.9,0.8s0.9-0.4,0.9-0.8
		C163.5,314.5,163.1,314.1,162.6,314.1z"/>
	<path class="st0" d="M162,10.4c0-0.5-0.4-0.8-0.9-0.8c-0.5,0-0.8,0.4-0.8,0.8c0,0.5,0.4,0.9,0.8,0.9C161.6,11.2,162,10.8,162,10.4z
		"/>
	<path class="st0" d="M178.6,314.1c-0.5,0-0.8,0.4-0.8,0.8c0,0.5,0.4,0.8,0.8,0.8c0.5,0,0.9-0.4,0.9-0.8
		C179.4,314.5,179.1,314.1,178.6,314.1z"/>
	<path class="st0" d="M182,10.4c0-0.5-0.4-0.8-0.9-0.8c-0.5,0-0.9,0.4-0.9,0.8c0,0.5,0.4,0.9,0.9,0.9C181.6,11.2,182,10.8,182,10.4z
		"/>
	<path class="st0" d="M174,10.4c0-0.5-0.4-0.8-0.9-0.8c-0.5,0-0.9,0.4-0.9,0.8c0,0.5,0.4,0.9,0.9,0.9C173.6,11.2,174,10.8,174,10.4z
		"/>
	<path class="st0" d="M178,10.4c0-0.5-0.4-0.8-0.9-0.8c-0.5,0-0.9,0.4-0.9,0.8c0,0.5,0.4,0.9,0.9,0.9C177.6,11.2,178,10.8,178,10.4z
		"/>
	<path class="st0" d="M174.6,314.1c-0.5,0-0.8,0.4-0.8,0.8c0,0.5,0.4,0.8,0.8,0.8c0.5,0,0.9-0.4,0.9-0.8
		C175.4,314.5,175.1,314.1,174.6,314.1z"/>
	<path class="st0" d="M148.9,9.6c-0.5,0-0.8,0.4-0.8,0.8c0,0,0,0,0,0c0,0.5,0.4,0.8,0.8,0.8c0,0,0,0,0,0c0.5,0,0.8-0.4,0.8-0.9
		c0,0,0,0,0,0C149.7,9.9,149.3,9.6,148.9,9.6z"/>
	<path class="st0" d="M146.6,314c-0.5,0-0.9,0.3-0.9,0.8c0,0,0,0,0,0c0,0.5,0.3,0.8,0.8,0.8c0,0,0,0,0,0c0.5,0,0.8-0.4,0.9-0.8
		c0,0,0,0,0,0C147.5,314.4,147.1,314,146.6,314z"/>
	<path class="st0" d="M182.6,314.1c-0.5,0-0.8,0.4-0.8,0.8c0,0.5,0.4,0.8,0.8,0.8c0.5,0,0.9-0.4,0.9-0.8
		C183.4,314.5,183.1,314.1,182.6,314.1z"/>
	<path class="st0" d="M144.8,9.7c-0.5,0-0.8,0.4-0.8,0.9c0,0,0,0,0,0c0,0.5,0.4,0.8,0.8,0.8c0,0,0,0,0.1,0c0.4,0,0.8-0.4,0.8-0.9
		c0,0,0,0,0,0C145.7,10.1,145.3,9.7,144.8,9.7z"/>
	<path class="st0" d="M142.7,313.8c-0.5,0-0.9,0.3-0.9,0.8c0,0,0,0,0,0.1c0,0.4,0.3,0.8,0.8,0.8c0,0,0,0,0,0c0.5,0,0.8-0.4,0.9-0.8
		c0,0,0,0,0-0.1C143.5,314.2,143.1,313.8,142.7,313.8z"/>
	<path class="st0" d="M140.8,10c-0.5,0-0.8,0.4-0.8,0.9c0,0,0,0,0,0.1c0,0.4,0.4,0.8,0.8,0.8c0,0,0,0,0.1,0c0.5,0,0.8-0.4,0.8-0.9
		c0,0,0,0,0-0.1C141.7,10.3,141.3,10,140.8,10z"/>
	<path class="st0" d="M158.6,314.1c-0.5,0-0.9,0.4-0.9,0.8c0,0.5,0.4,0.8,0.9,0.8s0.9-0.4,0.9-0.8
		C159.5,314.5,159.1,314.1,158.6,314.1z"/>
	<path class="st0" d="M138.7,313.5c-0.5,0-0.9,0.3-0.9,0.8c0,0,0,0.1,0,0.1c0,0.4,0.3,0.8,0.8,0.8c0,0,0.1,0,0.1,0
		c0.4,0,0.8-0.3,0.9-0.8c0,0,0-0.1,0-0.1C139.5,313.9,139.2,313.5,138.7,313.5z"/>
	<path class="st0" d="M150.6,314.1c-0.5,0-0.9,0.4-0.9,0.8c0,0,0,0,0,0c0,0.5,0.4,0.8,0.8,0.8h0c0.5,0,0.8-0.4,0.9-0.8c0,0,0,0,0,0
		C151.5,314.5,151.1,314.1,150.6,314.1z"/>
	<path class="st0" d="M158,10.4c0-0.5-0.4-0.8-0.9-0.8c-0.5,0-0.8,0.4-0.8,0.8c0,0.5,0.4,0.9,0.8,0.9C157.6,11.2,158,10.8,158,10.4z
		"/>
	<path class="st0" d="M154,10.4c0-0.5-0.4-0.8-0.9-0.8c0,0-0.1,0-0.1,0c0,0-0.1,0-0.1,0c-0.5,0-0.9,0.4-0.9,0.8
		c0,0.5,0.4,0.9,0.9,0.9c0,0,0.1,0,0.1,0c0,0,0.1,0,0.1,0C153.6,11.2,154,10.8,154,10.4z"/>
	<path class="st0" d="M154.6,314.1c-0.5,0-0.9,0.4-0.9,0.8c0,0.5,0.4,0.8,0.9,0.8s0.9-0.4,0.9-0.8
		C155.5,314.5,155.1,314.1,154.6,314.1z"/>
	<path class="st0" d="M214,10.4c0-0.5-0.4-0.8-0.9-0.8c-0.5,0-0.8,0.4-0.8,0.8c0,0.5,0.4,0.9,0.8,0.9C213.6,11.2,214,10.8,214,10.4z
		"/>
	<path class="st0" d="M214.6,314.1c-0.5,0-0.9,0.4-0.9,0.8c0,0.5,0.4,0.8,0.9,0.8s0.9-0.4,0.9-0.8
		C215.4,314.5,215.1,314.1,214.6,314.1z"/>
	<path class="st0" d="M218,10.4c0-0.5-0.4-0.8-0.9-0.8c-0.5,0-0.8,0.4-0.8,0.8c0,0.5,0.4,0.9,0.8,0.9C217.6,11.2,218,10.8,218,10.4z
		"/>
	<path class="st0" d="M206.6,314.1c-0.5,0-0.9,0.4-0.9,0.8c0,0.5,0.4,0.8,0.9,0.8s0.9-0.4,0.9-0.8
		C207.4,314.5,207.1,314.1,206.6,314.1z"/>
	<path class="st0" d="M210.6,314.1c-0.5,0-0.9,0.4-0.9,0.8c0,0.5,0.4,0.8,0.9,0.8s0.9-0.4,0.9-0.8
		C211.4,314.5,211.1,314.1,210.6,314.1z"/>
	<path class="st0" d="M210,10.4c0-0.5-0.4-0.8-0.9-0.8c-0.5,0-0.8,0.4-0.8,0.8c0,0.5,0.4,0.9,0.8,0.9C209.6,11.2,210,10.8,210,10.4z
		"/>
	<path class="st0" d="M218.6,314.1c-0.5,0-0.9,0.4-0.9,0.8c0,0.5,0.4,0.8,0.9,0.8c0.5,0,0.9-0.4,0.9-0.8
		C219.4,314.5,219,314.1,218.6,314.1z"/>
	<path class="st0" d="M222.6,314.1c-0.5,0-0.9,0.4-0.9,0.8c0,0.5,0.4,0.8,0.9,0.8c0.5,0,0.8-0.4,0.8-0.8
		C223.4,314.5,223,314.1,222.6,314.1z"/>
	<path class="st0" d="M226,10.4c0-0.5-0.4-0.8-0.9-0.8c-0.5,0-0.9,0.4-0.9,0.8c0,0.5,0.4,0.9,0.9,0.9C225.6,11.2,226,10.8,226,10.4z
		"/>
	<path class="st0" d="M222,10.4c0-0.5-0.4-0.8-0.9-0.8c-0.5,0-0.8,0.4-0.8,0.8c0,0.5,0.4,0.9,0.8,0.9C221.6,11.2,222,10.8,222,10.4z
		"/>
	<path class="st0" d="M206,10.4c0-0.5-0.4-0.8-0.9-0.8c-0.5,0-0.8,0.4-0.8,0.8c0,0.5,0.4,0.9,0.8,0.9C205.6,11.2,206,10.8,206,10.4z
		"/>
	<path class="st0" d="M194,10.4c0-0.5-0.4-0.8-0.9-0.8c-0.5,0-0.9,0.4-0.9,0.8c0,0.5,0.4,0.9,0.9,0.9C193.6,11.2,194,10.8,194,10.4z
		"/>
	<path class="st0" d="M190.6,314.1c-0.5,0-0.8,0.4-0.8,0.8c0,0.5,0.4,0.8,0.8,0.8c0.5,0,0.9-0.4,0.9-0.8
		C191.4,314.5,191.1,314.1,190.6,314.1z"/>
	<path class="st0" d="M194.6,314.1c-0.5,0-0.8,0.4-0.8,0.8c0,0.5,0.4,0.8,0.8,0.8s0.9-0.4,0.9-0.8
		C195.4,314.5,195.1,314.1,194.6,314.1z"/>
	<path class="st0" d="M186,10.4c0-0.5-0.4-0.8-0.9-0.8c-0.5,0-0.9,0.4-0.9,0.8c0,0.5,0.4,0.9,0.9,0.9C185.6,11.2,186,10.8,186,10.4z
		"/>
	<path class="st0" d="M190,10.4c0-0.5-0.4-0.8-0.9-0.8c-0.5,0-0.9,0.4-0.9,0.8c0,0.5,0.4,0.9,0.9,0.9C189.6,11.2,190,10.8,190,10.4z
		"/>
	<path class="st0" d="M186.6,314.1c-0.5,0-0.8,0.4-0.8,0.8c0,0.5,0.4,0.8,0.8,0.8c0.5,0,0.9-0.4,0.9-0.8
		C187.4,314.5,187.1,314.1,186.6,314.1z"/>
	<path class="st0" d="M202,10.4c0-0.5-0.4-0.8-0.9-0.8c-0.5,0-0.8,0.4-0.8,0.8c0,0.5,0.4,0.9,0.8,0.9C201.6,11.2,202,10.8,202,10.4z
		"/>
	<path class="st0" d="M198,10.4c0-0.5-0.4-0.8-0.9-0.8c-0.5,0-0.8,0.4-0.8,0.8c0,0.5,0.4,0.9,0.8,0.9C197.6,11.2,198,10.8,198,10.4z
		"/>
	<path class="st0" d="M202.6,314.1c-0.5,0-0.9,0.4-0.9,0.8c0,0.5,0.4,0.8,0.9,0.8s0.9-0.4,0.9-0.8
		C203.4,314.5,203.1,314.1,202.6,314.1z"/>
	<path class="st0" d="M198.6,314.1c-0.5,0-0.9,0.4-0.9,0.8c0,0.5,0.4,0.8,0.9,0.8s0.9-0.4,0.9-0.8
		C199.4,314.5,199.1,314.1,198.6,314.1z"/>
	<path class="st0" d="M103.8,305.9c-0.5-0.2-0.9,0.1-1.1,0.5c0,0.1,0,0.2,0,0.3c0,0.4,0.2,0.7,0.6,0.8c0.1,0,0.2,0,0.3,0
		c0.3,0,0.7-0.2,0.8-0.6c0-0.1,0-0.2,0-0.3C104.4,306.4,104.2,306,103.8,305.9z"/>
	<path class="st0" d="M81.9,296.4c-0.4-0.2-0.9-0.1-1.1,0.4c-0.1,0.1-0.1,0.3-0.1,0.4c0,0.3,0.2,0.6,0.4,0.8
		c0.1,0.1,0.3,0.1,0.4,0.1c0.3,0,0.6-0.2,0.8-0.5c0.1-0.1,0.1-0.3,0.1-0.4C82.4,296.8,82.2,296.5,81.9,296.4z"/>
	<path class="st0" d="M81,29c0-0.1,0-0.3-0.1-0.4c-0.2-0.4-0.7-0.6-1.1-0.3c-0.3,0.1-0.4,0.4-0.4,0.8c0,0.1,0,0.3,0.1,0.4
		c0.1,0.3,0.4,0.4,0.7,0.4c0.1,0,0.3,0,0.4-0.1C80.8,29.6,81,29.3,81,29z"/>
	<path class="st0" d="M95.3,21.8c-0.2-0.4-0.7-0.6-1.1-0.5c-0.3,0.1-0.5,0.5-0.5,0.8c0,0.1,0,0.2,0.1,0.3c0.1,0.3,0.5,0.5,0.8,0.5
		c0.1,0,0.2,0,0.3-0.1c0.3-0.1,0.5-0.4,0.5-0.8C95.3,22,95.3,21.9,95.3,21.8z"/>
	<path class="st0" d="M84.5,27.1c0-0.1,0-0.3-0.1-0.4c-0.2-0.4-0.7-0.6-1.1-0.4c-0.3,0.2-0.5,0.5-0.5,0.8c0,0.1,0,0.3,0.1,0.4
		c0.2,0.3,0.5,0.5,0.8,0.5c0.1,0,0.3,0,0.4-0.1h0C84.3,27.7,84.5,27.4,84.5,27.1z"/>
	<path class="st0" d="M78.4,294.5c-0.4-0.2-0.9-0.1-1.2,0.3c-0.1,0.1-0.1,0.3-0.1,0.4c0,0.3,0.2,0.6,0.4,0.7c0,0,0,0,0,0
		c0.1,0.1,0.3,0.1,0.4,0.1c0.3,0,0.6-0.2,0.7-0.4c0.1-0.1,0.1-0.3,0.1-0.4C78.9,294.9,78.7,294.6,78.4,294.5L78.4,294.5z"/>
	<path class="st0" d="M73.8,292.7c-0.1,0.1-0.1,0.3-0.1,0.4c0,0.3,0.1,0.6,0.4,0.7c0.1,0.1,0.3,0.1,0.4,0.1c0.3,0,0.6-0.1,0.7-0.4
		c0.1-0.1,0.1-0.3,0.1-0.4c0-0.3-0.1-0.6-0.4-0.7C74.6,292.2,74.1,292.3,73.8,292.7z"/>
	<path class="st0" d="M92.7,301.6c-0.4-0.2-0.9,0-1.1,0.4c-0.1,0.1-0.1,0.2-0.1,0.3c0,0.3,0.2,0.6,0.5,0.8c0.1,0.1,0.2,0.1,0.3,0.1
		c0.3,0,0.6-0.2,0.8-0.5c0-0.1,0.1-0.2,0.1-0.3C93.2,302,93,301.7,92.7,301.6z"/>
	<path class="st0" d="M91.6,23.3c-0.2-0.4-0.7-0.6-1.1-0.4C90.2,23,90,23.3,90,23.7c0,0.1,0,0.2,0.1,0.4c0.1,0.3,0.4,0.5,0.8,0.5
		c0.1,0,0.2,0,0.3-0.1c0.3-0.1,0.5-0.5,0.5-0.8C91.7,23.6,91.7,23.4,91.6,23.3z"/>
	<path class="st0" d="M88,25c-0.2-0.4-0.7-0.6-1.1-0.4c-0.3,0.1-0.5,0.4-0.5,0.8c0,0.1,0,0.2,0.1,0.4c0.1,0.3,0.5,0.5,0.8,0.5
		c0.1,0,0.2,0,0.4-0.1c0.3-0.1,0.5-0.5,0.5-0.8C88.1,25.2,88,25.1,88,25z"/>
	<path class="st0" d="M85.5,298.2c-0.4-0.2-0.9,0-1.1,0.4c-0.1,0.1-0.1,0.2-0.1,0.4c0,0.3,0.2,0.6,0.5,0.8c0.1,0.1,0.2,0.1,0.4,0.1
		c0.3,0,0.6-0.2,0.8-0.5c0.1-0.1,0.1-0.3,0.1-0.4C85.9,298.6,85.7,298.4,85.5,298.2z"/>
	<path class="st0" d="M89,299.9c-0.4-0.2-0.9,0-1.1,0.4c0,0.1-0.1,0.2-0.1,0.4c0,0.3,0.2,0.6,0.5,0.8c0.1,0.1,0.2,0.1,0.4,0.1
		c0.3,0,0.6-0.2,0.8-0.5c0.1-0.1,0.1-0.2,0.1-0.4C89.5,300.4,89.3,300.1,89,299.9z"/>
	<path class="st0" d="M77.4,30.5c-0.2-0.4-0.8-0.5-1.2-0.3c-0.3,0.2-0.4,0.5-0.4,0.7c0,0.1,0,0.3,0.1,0.4c0.1,0.3,0.4,0.4,0.7,0.4
		c0.1,0,0.3,0,0.4-0.1c0.3-0.2,0.4-0.5,0.4-0.7C77.5,30.8,77.5,30.7,77.4,30.5z"/>
	<path class="st0" d="M60.6,283.7c-0.1,0.2-0.2,0.3-0.2,0.5c0,0.3,0.1,0.5,0.3,0.7c0.1,0.1,0.3,0.2,0.5,0.2c0.3,0,0.5-0.1,0.7-0.3
		c0.1-0.2,0.2-0.3,0.2-0.5c0-0.3-0.1-0.5-0.3-0.7C61.4,283.2,60.9,283.3,60.6,283.7z"/>
	<path class="st0" d="M64.1,39.7c0-0.2-0.1-0.4-0.2-0.5c-0.3-0.4-0.8-0.5-1.2-0.2c-0.2,0.2-0.4,0.4-0.4,0.7c0,0.2,0.1,0.4,0.2,0.5
		c0.2,0.2,0.4,0.4,0.7,0.4c0.2,0,0.4-0.1,0.5-0.2C64,40.2,64.1,40,64.1,39.7z"/>
	<path class="st0" d="M61,42.1c0-0.2-0.1-0.4-0.2-0.5c-0.3-0.4-0.8-0.4-1.2-0.1c-0.2,0.2-0.3,0.4-0.3,0.7c0,0.2,0.1,0.4,0.2,0.5
		c0.2,0.2,0.4,0.3,0.7,0.3c0.2,0,0.4-0.1,0.5-0.2C60.8,42.6,61,42.3,61,42.1z"/>
	<path class="st0" d="M63.8,286.1c-0.1,0.2-0.2,0.3-0.2,0.5c0,0.3,0.1,0.5,0.4,0.7c0.1,0.1,0.3,0.2,0.5,0.2c0.3,0,0.5-0.1,0.7-0.4
		c0.1-0.2,0.2-0.3,0.2-0.5c0-0.3-0.1-0.5-0.4-0.7C64.6,285.6,64.1,285.7,63.8,286.1z"/>
	<path class="st0" d="M57.5,281.2c-0.1,0.2-0.2,0.4-0.2,0.5c0,0.2,0.1,0.5,0.3,0.7c0.2,0.1,0.4,0.2,0.5,0.2c0.2,0,0.5-0.1,0.7-0.3
		c0.1-0.2,0.2-0.4,0.2-0.6c0-0.2-0.1-0.5-0.3-0.6C58.3,280.8,57.8,280.8,57.5,281.2z"/>
	<path class="st0" d="M70.4,290.6c-0.1,0.1-0.1,0.3-0.1,0.5c0,0.3,0.1,0.5,0.4,0.7c0.1,0.1,0.3,0.1,0.5,0.1c0.3,0,0.6-0.1,0.7-0.4
		c0.1-0.1,0.1-0.3,0.1-0.4c0-0.3-0.1-0.6-0.4-0.7C71.2,290.1,70.7,290.2,70.4,290.6z"/>
	<path class="st0" d="M73.9,32.6c-0.2-0.4-0.8-0.5-1.2-0.3c-0.3,0.2-0.4,0.5-0.4,0.7c0,0.1,0,0.3,0.1,0.4c0.2,0.3,0.4,0.4,0.7,0.4
		c0.1,0,0.3,0,0.4-0.1c0.3-0.2,0.4-0.4,0.4-0.7C74.1,32.9,74,32.7,73.9,32.6z"/>
	<path class="st0" d="M70.7,35.1c0-0.2,0-0.3-0.1-0.5c-0.2-0.4-0.8-0.5-1.2-0.2c-0.2,0.2-0.4,0.4-0.4,0.7c0,0.2,0.1,0.3,0.1,0.5
		c0.2,0.2,0.4,0.4,0.7,0.4c0.2,0,0.3-0.1,0.5-0.1C70.6,35.7,70.7,35.4,70.7,35.1z"/>
	<path class="st0" d="M67.4,37.4c0-0.2-0.1-0.3-0.1-0.5c-0.3-0.4-0.8-0.5-1.2-0.2c-0.2,0.2-0.4,0.4-0.4,0.7c0,0.2,0.1,0.3,0.1,0.5
		c0.2,0.2,0.4,0.4,0.7,0.4c0.2,0,0.3-0.1,0.5-0.1C67.3,37.9,67.4,37.6,67.4,37.4z"/>
	<path class="st0" d="M67.1,288.4c-0.1,0.1-0.1,0.3-0.1,0.5c0,0.3,0.1,0.5,0.4,0.7c0.1,0.1,0.3,0.1,0.5,0.1c0.3,0,0.5-0.1,0.7-0.4
		c0.1-0.1,0.1-0.3,0.1-0.5c0-0.3-0.1-0.5-0.4-0.7C67.9,287.9,67.4,288,67.1,288.4z"/>
	<path class="st0" d="M129.8,12.1c-0.1-0.5-0.5-0.8-1-0.7c-0.4,0.1-0.7,0.4-0.7,0.8c0,0,0,0.1,0,0.1c0.1,0.4,0.4,0.7,0.8,0.7
		c0,0,0.1,0,0.1,0c0.4-0.1,0.7-0.4,0.7-0.8C129.8,12.2,129.8,12.2,129.8,12.1z"/>
	<path class="st0" d="M125.9,12.8c-0.1-0.5-0.5-0.8-1-0.7c-0.4,0.1-0.7,0.4-0.7,0.8c0,0,0,0.1,0,0.1c0.1,0.4,0.4,0.7,0.8,0.7
		c0,0,0.1,0,0.2,0c0.4-0.1,0.7-0.4,0.7-0.8C125.9,12.9,125.9,12.9,125.9,12.8z"/>
	<path class="st0" d="M118.1,14.4c-0.1-0.4-0.6-0.7-1-0.6c-0.4,0.1-0.7,0.4-0.7,0.8c0,0.1,0,0.1,0,0.2c0.1,0.4,0.4,0.6,0.8,0.6
		c0.1,0,0.1,0,0.2,0c0.4-0.1,0.7-0.5,0.6-0.8C118.1,14.6,118.1,14.5,118.1,14.4z"/>
	<path class="st0" d="M96.3,303.1c-0.4-0.2-0.9,0-1.1,0.5c0,0.1-0.1,0.2-0.1,0.3c0,0.3,0.2,0.7,0.5,0.8c0.1,0,0.2,0.1,0.3,0.1
		c0.3,0,0.7-0.2,0.8-0.5c0-0.1,0.1-0.2,0.1-0.3C96.9,303.6,96.7,303.3,96.3,303.1z"/>
	<path class="st0" d="M122,13.6c-0.1-0.5-0.5-0.8-1-0.7c-0.4,0.1-0.7,0.4-0.7,0.8c0,0.1,0,0.1,0,0.2c0.1,0.4,0.4,0.7,0.8,0.7
		c0.1,0,0.1,0,0.2,0c0.4-0.1,0.7-0.4,0.7-0.8C122,13.7,122,13.6,122,13.6z"/>
	<path class="st0" d="M126.9,311.9c-0.5-0.1-0.9,0.2-1,0.7c0,0,0,0.1,0,0.1c0,0.4,0.3,0.8,0.7,0.8c0,0,0.1,0,0.1,0
		c0.4,0,0.8-0.3,0.8-0.7c0,0,0-0.1,0-0.2C127.6,312.3,127.3,311.9,126.9,311.9z"/>
	<path class="st0" d="M123,311.1c-0.5-0.1-0.9,0.2-1,0.7c0,0,0,0.1,0,0.2c0,0.4,0.3,0.8,0.7,0.8c0.1,0,0.1,0,0.2,0
		c0.4,0,0.8-0.3,0.8-0.7c0,0,0-0.1,0-0.2C123.7,311.6,123.4,311.2,123,311.1z"/>
	<path class="st0" d="M132.8,10.9c-0.4,0-0.7,0.4-0.7,0.8c0,0,0,0.1,0,0.1c0.1,0.4,0.4,0.7,0.8,0.7c0,0,0.1,0,0.1,0
		c0.4-0.1,0.7-0.4,0.7-0.8c0,0,0-0.1,0-0.1C133.7,11.1,133.3,10.8,132.8,10.9z"/>
	<path class="st0" d="M134.8,313c-0.5-0.1-0.9,0.3-1,0.7c0,0,0,0.1,0,0.1c0,0.4,0.3,0.8,0.7,0.8c0,0,0.1,0,0.1,0
		c0.4,0,0.8-0.3,0.8-0.8c0,0,0-0.1,0-0.1C135.5,313.4,135.2,313.1,134.8,313z"/>
	<path class="st0" d="M136.8,10.4c-0.4,0-0.8,0.4-0.8,0.9c0,0,0,0.1,0,0.1c0,0.4,0.4,0.8,0.8,0.8c0,0,0.1,0,0.1,0
		c0.4,0,0.8-0.4,0.8-0.9c0,0,0,0,0-0.1C137.7,10.7,137.3,10.3,136.8,10.4z"/>
	<path class="st0" d="M130.8,312.5c-0.5-0.1-0.9,0.2-1,0.7c0,0,0,0.1,0,0.1c0,0.4,0.3,0.8,0.7,0.8c0,0,0.1,0,0.1,0
		c0.4,0,0.8-0.3,0.9-0.7c0-0.1,0-0.1,0-0.1C131.5,312.9,131.2,312.6,130.8,312.5z"/>
	<path class="st0" d="M119.1,310.3c-0.5-0.1-0.9,0.2-1,0.6c0,0.1,0,0.1,0,0.2c0,0.4,0.3,0.7,0.7,0.8c0.1,0,0.1,0,0.2,0
		c0.4,0,0.7-0.3,0.8-0.7c0-0.1,0-0.1,0-0.2C119.8,310.7,119.5,310.4,119.1,310.3z"/>
	<path class="st0" d="M106.5,17.6c-0.2-0.4-0.6-0.7-1.1-0.5c-0.4,0.1-0.6,0.4-0.6,0.8c0,0.1,0,0.2,0,0.3c0.1,0.4,0.4,0.6,0.8,0.6
		c0.1,0,0.2,0,0.3,0l0,0c0.4-0.1,0.6-0.4,0.6-0.8C106.6,17.8,106.5,17.7,106.5,17.6z"/>
	<path class="st0" d="M102.7,18.9c-0.2-0.5-0.6-0.7-1.1-0.5c-0.3,0.1-0.6,0.4-0.6,0.8c0,0.1,0,0.2,0,0.3c0.1,0.4,0.5,0.6,0.8,0.6
		c0.1,0,0.2,0,0.3,0c0.4-0.1,0.6-0.4,0.6-0.8C102.8,19.1,102.8,19,102.7,18.9z"/>
	<path class="st0" d="M115.2,309.4c-0.5-0.1-0.9,0.2-1,0.6c0,0.1,0,0.1,0,0.2c0,0.4,0.2,0.7,0.6,0.8c0.1,0,0.1,0,0.2,0
		c0.4,0,0.7-0.2,0.8-0.6c0-0.1,0-0.1,0-0.2C115.9,309.8,115.6,309.5,115.2,309.4z"/>
	<path class="st0" d="M100.1,304.6c-0.4-0.2-0.9,0-1.1,0.5c0,0.1,0,0.2,0,0.3c0,0.3,0.2,0.7,0.5,0.8c0.1,0,0.2,0,0.3,0
		c0.3,0,0.7-0.2,0.8-0.5c0-0.1,0.1-0.2,0.1-0.3C100.6,305,100.4,304.7,100.1,304.6z"/>
	<path class="st0" d="M99,20.3c-0.2-0.4-0.7-0.7-1.1-0.5c0,0,0,0,0,0c-0.3,0.1-0.5,0.5-0.5,0.8c0,0.1,0,0.2,0.1,0.3
		c0.1,0.3,0.5,0.5,0.8,0.5c0.1,0,0.2,0,0.3-0.1c0.3-0.1,0.5-0.4,0.5-0.8C99,20.5,99,20.4,99,20.3z"/>
	<path class="st0" d="M57.8,44.6c0-0.2-0.1-0.4-0.2-0.5c-0.3-0.4-0.8-0.4-1.2-0.1c-0.2,0.2-0.3,0.4-0.3,0.6c0,0.2,0.1,0.4,0.2,0.5
		c0.2,0.2,0.4,0.3,0.7,0.3c0.2,0,0.4-0.1,0.5-0.2C57.7,45.1,57.8,44.8,57.8,44.6z"/>
	<path class="st0" d="M107.6,307.2c-0.5-0.1-0.9,0.1-1.1,0.6c0,0.1,0,0.2,0,0.2c0,0.4,0.2,0.7,0.6,0.8c0.1,0,0.2,0,0.2,0
		c0.4,0,0.7-0.2,0.8-0.6c0-0.1,0-0.2,0-0.2C108.2,307.6,108,307.3,107.6,307.2z"/>
	<path class="st0" d="M111.4,308.3c-0.4-0.1-0.9,0.1-1,0.6c0,0.1,0,0.2,0,0.2c0,0.4,0.2,0.7,0.6,0.8c0.1,0,0.1,0,0.2,0
		c0.4,0,0.7-0.2,0.8-0.6c0-0.1,0-0.2,0-0.2C112,308.8,111.8,308.4,111.4,308.3z"/>
	<path class="st0" d="M114.2,15.4c-0.1-0.5-0.6-0.7-1-0.6c-0.4,0.1-0.6,0.4-0.6,0.8c0,0.1,0,0.2,0,0.2c0.1,0.4,0.5,0.6,0.8,0.6
		c0.1,0,0.2,0,0.2,0c0.4-0.1,0.6-0.5,0.6-0.8C114.2,15.5,114.2,15.5,114.2,15.4z"/>
	<path class="st0" d="M110.3,16.5c-0.1-0.4-0.6-0.7-1.1-0.6c-0.4,0.1-0.6,0.4-0.6,0.8c0,0.1,0,0.2,0,0.3c0.1,0.4,0.4,0.6,0.8,0.6
		c0.1,0,0.2,0,0.2,0c0.4-0.1,0.6-0.5,0.6-0.8C110.4,16.6,110.4,16.6,110.3,16.5z"/>
	<path class="st0" d="M383.1,6.4V5c0-2.7-2.2-5-5-5h-1.4c-2.7,0-5,2.2-5,5v6.4h6.4C380.9,11.3,383.1,9.1,383.1,6.4z"/>
</g>
</svg>
