<svg width="193" height="90" viewBox="0 0 193 90" fill="none" xmlns="http://www.w3.org/2000/svg">
<path d="M50.9629 0H59.526V53.5965H50.9629V0ZM89.4968 36.4992C89.4968 44.7016 82.6099 45.3555 80.5612 45.3555C75.4426 45.3555 74.5114 40.5575 74.5114 37.6633V17.1509H65.9483V37.6204C65.9483 42.7014 67.541 46.8948 70.3326 49.6904C72.7988 52.1622 76.4937 53.5129 80.497 53.5129C83.3356 53.5129 87.356 52.6274 89.4968 50.6701V53.5965H98.0599V17.1509H89.4968V36.4992ZM115.186 4.28772H106.623V17.1509H100.201V25.7263H106.623V53.5965H115.186V25.7263H121.608V17.1509H115.186V4.28772ZM148.576 42.6992C146.711 44.3779 144.249 45.3083 141.548 45.3083C135.592 45.3083 131.218 40.9284 131.218 34.9149C131.218 28.9014 135.453 24.7058 141.548 24.7058C144.202 24.7058 146.711 25.5912 148.623 27.2699L149.922 28.389L155.696 22.6091L154.251 21.3035C150.853 18.2314 146.343 16.5077 141.545 16.5077C130.842 16.5077 123.068 24.2428 123.068 34.8699C123.068 45.452 131.028 53.4636 141.545 53.4636C146.433 53.4636 150.99 51.7399 154.345 48.6184L155.741 47.3128L149.877 41.5373L148.576 42.6992ZM186.26 20.3281C183.793 17.8583 180.903 16.5077 176.9 16.5077C174.062 16.5077 170.846 17.3931 168.705 19.3483V0H160.142V53.5965H168.705V33.5192C168.705 25.3168 174.524 24.6651 176.573 24.6651C181.691 24.6651 181.55 29.4652 181.55 32.3551V53.5965H190.113V32.4001C190.113 27.3192 189.053 23.1258 186.26 20.3281Z" fill="black"/>
<path d="M141.265 28.8105C142.907 28.8105 144.482 29.4638 145.643 30.6265C146.804 31.7892 147.456 33.3662 147.456 35.0106C147.456 36.6549 146.804 38.2319 145.643 39.3947C144.482 40.5574 142.907 41.2106 141.265 41.2106C139.623 41.2106 138.049 40.5574 136.888 39.3947C135.726 38.2319 135.074 36.6549 135.074 35.0106C135.074 33.3662 135.726 31.7892 136.888 30.6265C138.049 29.4638 139.623 28.8105 141.265 28.8105Z" fill="#FF3D2E"/>
<path d="M38.9753 40.1345C35.7192 43.4896 31.2963 45.3076 26.6423 45.3076C17.103 45.3076 10.1669 37.8041 10.1669 27.505C10.1669 17.1587 17.103 9.65524 26.6423 9.65524C31.2514 9.65524 35.625 11.4711 38.9303 14.7812L40.2319 16.0868L45.9563 10.3541L44.6997 9.04853C39.9536 4.1541 33.5313 1.5 26.6423 1.5C12.5881 1.5 2.02344 12.6845 2.02344 27.55C2.02344 42.3705 12.6352 53.51 26.6423 53.51C33.5784 53.51 40.0007 50.8088 44.7468 45.9143L46.0034 44.6087L40.3261 38.7838L38.9753 40.1345Z" fill="black"/>
<path d="M92 66L94.2451 72.9098H101.511L95.6327 77.1803L97.8779 84.0902L92 79.8197L86.1221 84.0902L88.3673 77.1803L82.4894 72.9098H89.7549L92 66Z" fill="#FE1419"/>
<path d="M114 66L116.245 72.9098H123.511L117.633 77.1803L119.878 84.0902L114 79.8197L108.122 84.0902L110.367 77.1803L104.489 72.9098H111.755L114 66Z" fill="#FE1419"/>
<path d="M136 66L138.245 72.9098H145.511L139.633 77.1803L141.878 84.0902L136 79.8197L130.122 84.0902L132.367 77.1803L126.489 72.9098H133.755L136 66Z" fill="#FE1419"/>
<path d="M158 66L160.245 72.9098H167.511L161.633 77.1803L163.878 84.0902L158 79.8197L152.122 84.0902L154.367 77.1803L148.489 72.9098H155.755L158 66Z" fill="#FE1419"/>
<path d="M180 66L182.245 72.9098H189.511L183.633 77.1803L185.878 84.0902L180 79.8197L174.122 84.0902L176.367 77.1803L170.489 72.9098H177.755L180 66Z" fill="#FE1419"/>
<path d="M0.651 80.913V78.624L7.581 69.3H11.151L4.368 78.624L2.709 78.141H14.28V80.913H0.651ZM8.568 84V80.913L8.673 78.141V75.39H11.886V84H8.568ZM17.6397 84.168C17.0797 84.168 16.5967 83.979 16.1907 83.601C15.7987 83.209 15.6027 82.712 15.6027 82.11C15.6027 81.508 15.7987 81.025 16.1907 80.661C16.5967 80.283 17.0797 80.094 17.6397 80.094C18.2137 80.094 18.6967 80.283 19.0887 80.661C19.4807 81.025 19.6767 81.508 19.6767 82.11C19.6767 82.712 19.4807 83.209 19.0887 83.601C18.6967 83.979 18.2137 84.168 17.6397 84.168ZM26.3698 69.048C27.7278 69.048 28.8968 69.328 29.8768 69.888C30.8568 70.448 31.6128 71.267 32.1448 72.345C32.6768 73.409 32.9428 74.739 32.9428 76.335C32.9428 78.029 32.6208 79.464 31.9768 80.64C31.3468 81.816 30.4718 82.712 29.3518 83.328C28.2318 83.944 26.9298 84.252 25.4458 84.252C24.6758 84.252 23.9338 84.168 23.2198 84C22.5058 83.832 21.8898 83.58 21.3718 83.244L22.6318 80.745C23.0378 81.025 23.4718 81.221 23.9338 81.333C24.3958 81.431 24.8788 81.48 25.3828 81.48C26.6428 81.48 27.6438 81.095 28.3858 80.325C29.1418 79.555 29.5198 78.414 29.5198 76.902C29.5198 76.65 29.5128 76.37 29.4988 76.062C29.4848 75.754 29.4498 75.446 29.3938 75.138L30.3178 76.02C30.0798 76.566 29.7438 77.028 29.3098 77.406C28.8758 77.77 28.3718 78.05 27.7978 78.246C27.2238 78.428 26.5798 78.519 25.8658 78.519C24.9278 78.519 24.0738 78.33 23.3038 77.952C22.5478 77.574 21.9388 77.042 21.4768 76.356C21.0288 75.67 20.8048 74.865 20.8048 73.941C20.8048 72.933 21.0498 72.065 21.5398 71.337C22.0438 70.609 22.7158 70.049 23.5558 69.657C24.4098 69.251 25.3478 69.048 26.3698 69.048ZM26.5798 71.589C26.0898 71.589 25.6628 71.68 25.2988 71.862C24.9348 72.03 24.6478 72.282 24.4378 72.618C24.2278 72.94 24.1228 73.325 24.1228 73.773C24.1228 74.445 24.3468 74.984 24.7948 75.39C25.2568 75.782 25.8658 75.978 26.6218 75.978C27.1118 75.978 27.5458 75.887 27.9238 75.705C28.3158 75.509 28.6168 75.243 28.8268 74.907C29.0368 74.571 29.1418 74.193 29.1418 73.773C29.1418 73.353 29.0368 72.982 28.8268 72.66C28.6308 72.324 28.3438 72.065 27.9658 71.883C27.5878 71.687 27.1258 71.589 26.5798 71.589ZM32.6527 86.1L39.5827 66.318H42.5017L35.5717 86.1H32.6527ZM47.3863 84.252C46.3643 84.252 45.3493 84.119 44.3413 83.853C43.3473 83.573 42.4933 83.181 41.7793 82.677L43.1233 80.073C43.6833 80.479 44.3273 80.801 45.0553 81.039C45.7973 81.277 46.5463 81.396 47.3023 81.396C48.1563 81.396 48.8283 81.228 49.3183 80.892C49.8083 80.556 50.0533 80.087 50.0533 79.485C50.0533 79.107 49.9553 78.771 49.7593 78.477C49.5633 78.183 49.2133 77.959 48.7093 77.805C48.2193 77.651 47.5263 77.574 46.6303 77.574H42.8713L43.6273 69.3H52.5943V72.03H44.8453L46.6093 70.476L46.0843 76.377L44.3203 74.823H47.4283C48.8843 74.823 50.0533 75.026 50.9353 75.432C51.8313 75.824 52.4823 76.363 52.8883 77.049C53.2943 77.735 53.4973 78.512 53.4973 79.38C53.4973 80.248 53.2803 81.053 52.8463 81.795C52.4123 82.523 51.7403 83.118 50.8303 83.58C49.9343 84.028 48.7863 84.252 47.3863 84.252ZM56.8096 84.168C56.2496 84.168 55.7666 83.979 55.3606 83.601C54.9686 83.209 54.7726 82.712 54.7726 82.11C54.7726 81.508 54.9686 81.025 55.3606 80.661C55.7666 80.283 56.2496 80.094 56.8096 80.094C57.3836 80.094 57.8666 80.283 58.2586 80.661C58.6506 81.025 58.8466 81.508 58.8466 82.11C58.8466 82.712 58.6506 83.209 58.2586 83.601C57.8666 83.979 57.3836 84.168 56.8096 84.168ZM66.4071 84.252C65.2031 84.252 64.1251 83.958 63.1731 83.37C62.2211 82.768 61.4721 81.9 60.9261 80.766C60.3801 79.632 60.1071 78.26 60.1071 76.65C60.1071 75.04 60.3801 73.668 60.9261 72.534C61.4721 71.4 62.2211 70.539 63.1731 69.951C64.1251 69.349 65.2031 69.048 66.4071 69.048C67.6251 69.048 68.7031 69.349 69.6411 69.951C70.5931 70.539 71.3421 71.4 71.8881 72.534C72.4341 73.668 72.7071 75.04 72.7071 76.65C72.7071 78.26 72.4341 79.632 71.8881 80.766C71.3421 81.9 70.5931 82.768 69.6411 83.37C68.7031 83.958 67.6251 84.252 66.4071 84.252ZM66.4071 81.375C66.9811 81.375 67.4781 81.214 67.8981 80.892C68.3321 80.57 68.6681 80.059 68.9061 79.359C69.1581 78.659 69.2841 77.756 69.2841 76.65C69.2841 75.544 69.1581 74.641 68.9061 73.941C68.6681 73.241 68.3321 72.73 67.8981 72.408C67.4781 72.086 66.9811 71.925 66.4071 71.925C65.8471 71.925 65.3501 72.086 64.9161 72.408C64.4961 72.73 64.1601 73.241 63.9081 73.941C63.6701 74.641 63.5511 75.544 63.5511 76.65C63.5511 77.756 63.6701 78.659 63.9081 79.359C64.1601 80.059 64.4961 80.57 64.9161 80.892C65.3501 81.214 65.8471 81.375 66.4071 81.375Z" fill="black"/>
</svg>
