<svg width="75" height="23" viewBox="0 0 75 23" fill="none" xmlns="http://www.w3.org/2000/svg">
<g clip-path="url(#clip0_176_96)">
<path d="M19.7852 0.0407715H23.1681V22.0406H19.7852V0.0407715ZM35.0085 15.0227C35.0085 18.3895 32.2878 18.6579 31.4784 18.6579C29.4562 18.6579 29.0883 16.6885 29.0883 15.5005V7.08073H25.7053V15.4829C25.7053 17.5685 26.3346 19.2898 27.4374 20.4373C28.4117 21.4519 29.8715 22.0063 31.453 22.0063C32.5745 22.0063 34.1628 21.6429 35.0085 20.8394V22.0406H38.3915V7.08073H35.0085V15.0227ZM45.1574 1.80076H41.7744V7.08073H39.2372V10.6007H41.7744V22.0406H45.1574V10.6007H47.6946V7.08073H45.1574V1.80076ZM58.3484 17.5676C57.6118 18.2567 56.6392 18.6386 55.5719 18.6386C53.219 18.6386 51.4912 16.8407 51.4912 14.3724C51.4912 11.904 53.164 10.1818 55.5719 10.1818C56.6206 10.1818 57.6118 10.5453 58.367 11.2343L58.8804 11.6937L61.1614 9.32119L60.5905 8.78528C59.2483 7.52425 57.4663 6.81673 55.571 6.81673C51.3423 6.81673 48.2714 9.99175 48.2714 14.3539C48.2714 18.6975 51.4159 21.9861 55.571 21.9861C57.5018 21.9861 59.3024 21.2786 60.6277 19.9973L61.1791 19.4614L58.8626 17.0907L58.3484 17.5676ZM73.236 8.38488C72.2617 7.37113 71.12 6.81673 69.5384 6.81673C68.417 6.81673 67.1467 7.18017 66.3009 7.98272V0.0407715H62.918V22.0406H66.3009V13.7995C66.3009 10.4326 68.5997 10.1651 69.409 10.1651C71.4312 10.1651 71.3754 12.1354 71.3754 13.3216V22.0406H74.7584V13.3401C74.7584 11.2545 74.3397 9.53327 73.236 8.38488Z" fill="white"/>
<path d="M55.4596 11.8662C56.1082 11.8662 56.7304 12.1343 57.1891 12.6116C57.6477 13.0889 57.9054 13.7362 57.9054 14.4112C57.9054 15.0861 57.6477 15.7334 57.1891 16.2107C56.7304 16.688 56.1082 16.9561 55.4596 16.9561C54.8109 16.9561 54.1887 16.688 53.7301 16.2107C53.2714 15.7334 53.0137 15.0861 53.0137 14.4112C53.0137 13.7362 53.2714 13.0889 53.7301 12.6116C54.1887 12.1343 54.8109 11.8662 55.4596 11.8662Z" fill="#FF3D2E"/>
<path d="M15.0476 16.5151C13.7612 17.8923 12.0139 18.6385 10.1752 18.6385C6.40662 18.6385 3.66642 15.5586 3.66642 11.3311C3.66642 7.08422 6.40662 4.00424 10.1752 4.00424C11.9961 4.00424 13.724 4.74959 15.0298 6.1083L15.544 6.64422L17.8055 4.29112L17.3091 3.7552C15.4341 1.74617 12.8968 0.656738 10.1752 0.656738C4.62295 0.656738 0.449219 5.24767 0.449219 11.3496C0.449219 17.433 4.64156 22.0054 10.1752 22.0054C12.9154 22.0054 15.4527 20.8966 17.3277 18.8876L17.8241 18.3517L15.5812 15.9607L15.0476 16.5151Z" fill="white"/>
</g>
<defs>
<clipPath id="clip0_176_96">
<rect width="74.3444" height="21.9999" fill="white" transform="translate(0.431641 0.0407715)"/>
</clipPath>
</defs>
</svg>
