<svg width="85" height="29" viewBox="0 0 85 29" fill="none" xmlns="http://www.w3.org/2000/svg">
<g clip-path="url(#clip0_176_72)">
<path d="M81.8293 17.9946L84.1597 19.5727C83.4033 20.7044 81.5944 22.6461 78.4669 22.6461C74.5832 22.6461 71.6909 19.5936 71.6909 15.7104C71.6909 11.5782 74.6139 8.7749 78.1399 8.7749C81.6863 8.7749 83.4237 11.6404 83.9859 13.1874L84.2926 13.9766L75.1556 17.8181C75.8506 19.2094 76.934 19.9154 78.4669 19.9154C80 19.9154 81.0628 19.1471 81.8293 17.9946ZM74.665 15.4926L80.7665 12.9176C80.4292 12.0559 79.4278 11.4434 78.2318 11.4434C76.7091 11.4434 74.5935 12.8139 74.665 15.4926Z" fill="#FF302F"/>
<path d="M67.2856 1.70435H70.2289V22.0127H67.2856V1.70435Z" fill="#20B15A"/>
<path d="M62.6457 9.31481H65.487V21.6493C65.487 26.7678 62.5128 28.8755 58.997 28.8755C55.6857 28.8755 53.6928 26.6121 52.9467 24.7745L55.5528 23.6738C56.0229 24.8055 57.1573 26.145 58.997 26.145C61.2556 26.145 62.6457 24.7225 62.6457 22.0646V21.068H62.5435C61.8689 21.8985 60.5812 22.646 58.946 22.646C55.5323 22.646 52.4048 19.6246 52.4048 15.7313C52.4048 11.817 55.5323 8.76465 58.946 8.76465C60.571 8.76465 61.8689 9.50182 62.5435 10.3116H62.6457V9.31481ZM62.85 15.7313C62.85 13.281 61.2455 11.4951 59.2014 11.4951C57.1368 11.4951 55.3994 13.281 55.3994 15.7313C55.3994 18.1503 57.1368 19.905 59.2014 19.905C61.2456 19.9155 62.8502 18.1503 62.8502 15.7313" fill="#3686F7"/>
<path d="M36.2465 15.6792C36.2465 19.6766 33.1805 22.6147 29.4194 22.6147C25.6584 22.6147 22.5923 19.6662 22.5923 15.6792C22.5923 11.6612 25.6584 8.7334 29.4194 8.7334C33.1805 8.7334 36.2465 11.6612 36.2465 15.6792ZM33.2623 15.6792C33.2623 13.1876 31.4838 11.4742 29.4194 11.4742C27.355 11.4742 25.5766 13.1876 25.5766 15.6792C25.5766 18.1502 27.355 19.8842 29.4194 19.8842C31.484 19.8842 33.2623 18.1502 33.2623 15.6792Z" fill="#FF302F"/>
<path d="M51.1582 15.7104C51.1582 19.7077 48.092 22.6459 44.331 22.6459C40.5699 22.6459 37.5039 19.7076 37.5039 15.7104C37.5039 11.6924 40.5699 8.7749 44.331 8.7749C48.092 8.7749 51.1582 11.6821 51.1582 15.7104ZM48.1635 15.7104C48.1635 13.2187 46.3853 11.5054 44.3207 11.5054C42.2561 11.5054 40.4779 13.2187 40.4779 15.7104C40.4779 18.1814 42.2563 19.9154 44.3207 19.9154C46.3954 19.9154 48.1635 18.1711 48.1635 15.7104Z" fill="#FFBA40"/>
<path d="M11.3707 19.6041C7.08837 19.6041 3.73625 16.0948 3.73625 11.7444C3.73625 7.39428 7.08837 3.88495 11.3707 3.88495C13.6806 3.88495 15.3668 4.80895 16.6137 5.99261L18.6681 3.90578C16.9306 2.21345 14.6106 0.925781 11.3707 0.925781C5.50435 0.925948 0.567871 5.78511 0.567871 11.7444C0.567871 17.7038 5.50435 22.5631 11.3707 22.5631C14.5391 22.5631 16.9306 21.5041 18.801 19.5314C20.7223 17.5794 21.3151 14.8384 21.3151 12.6166C21.3151 11.9209 21.2333 11.2046 21.1413 10.6751H11.3707V13.5614H18.3308C18.1263 15.3681 17.5643 16.6036 16.7364 17.4444C15.7348 18.4724 14.1508 19.6041 11.3707 19.6041Z" fill="#3686F7"/>
</g>
<defs>
<clipPath id="clip0_176_72">
<rect width="84" height="28" fill="white" transform="translate(0.121582 0.852295)"/>
</clipPath>
</defs>
</svg>
