<svg width="81" height="24" viewBox="0 0 81 24" fill="none" xmlns="http://www.w3.org/2000/svg">
<g clip-path="url(#clip0_176_42)">
<path d="M22.6811 15.1222C21.3809 15.1222 20.1626 14.5926 19.0557 13.7305L19.3253 12.5134L19.337 12.4683C19.577 11.1725 20.3384 8.99745 22.6811 8.99745C24.4379 8.99745 25.867 10.3723 25.867 12.0626C25.8611 13.7473 24.4321 15.1222 22.6811 15.1222ZM22.6811 5.8929C19.6882 5.8929 17.3692 7.76356 16.4264 10.84C14.9856 8.76083 13.8962 6.2648 13.2579 4.16309H10.0368V12.226C10.0368 13.815 8.6898 15.1108 7.03824 15.1108C5.38668 15.1108 4.0398 13.815 4.0398 12.226V4.16309H0.818396V12.226C0.806677 15.5279 3.60027 18.238 7.03215 18.238C10.464 18.238 13.2581 15.5279 13.2581 12.226V10.8738C13.8846 12.1303 14.6518 13.398 15.5831 14.525L13.6093 23.4499H16.9067L18.3356 16.9759C19.5889 17.7478 21.0296 18.2325 22.6812 18.2325C26.2126 18.2325 29.0882 15.449 29.0882 12.0513C29.0882 8.65936 26.2126 5.8929 22.6812 5.8929" fill="#52C126"/>
<path d="M38.9217 6.24241L41.0007 14.3053L43.2907 6.24241H46.0198L42.5001 17.8945H39.7709L37.6099 9.78081L35.4546 17.8888H32.7256L29.2056 6.23685H31.9348L34.2246 14.2998L36.3037 6.23685H38.9215L38.9217 6.24241ZM52.5498 5.89306C49.0067 5.89306 46.137 8.65952 46.137 12.0628C46.137 15.4717 49.0124 18.2326 52.5498 18.2326C56.0931 18.2326 58.9685 15.4717 58.9685 12.0628C58.9685 8.65396 56.0931 5.89306 52.5498 5.89306ZM52.5498 15.6971C50.4649 15.6971 48.7782 14.0743 48.7782 12.0685C48.7782 10.0627 50.4707 8.43989 52.5498 8.43989C54.6348 8.43989 56.3213 10.0625 56.3213 12.0685C56.3213 14.0687 54.6348 15.6971 52.5498 15.6971ZM66.7635 8.85119C64.9306 8.85119 63.4488 10.2823 63.4488 12.0402V17.8888H60.702V6.24241H63.4488V8.03416C63.4488 8.03416 64.6201 6.2367 67.0271 6.2367H67.8704V8.85119H66.7635ZM75.9818 11.6121C77.9318 10.5527 79.2556 8.54121 79.2556 6.2367H76.5087C76.5087 8.18058 74.869 9.75826 72.8485 9.75826H72.4795V0.619141H69.7329V17.8887H72.4795V12.4009H72.8076C73.077 12.4009 73.4284 12.57 73.5865 12.7783L77.4868 17.8888H80.7782L75.9818 11.6121Z" fill="white"/>
</g>
<defs>
<clipPath id="clip0_176_42">
<rect width="80" height="23" fill="white" transform="translate(0.470215 0.533447)"/>
</clipPath>
</defs>
</svg>
