<svg width="60" height="60" viewBox="0 0 60 60" fill="none" xmlns="http://www.w3.org/2000/svg">
<path d="M54 0.5H6C2.96243 0.5 0.5 2.96243 0.5 6V54C0.5 57.0376 2.96243 59.5 6 59.5H54C57.0376 59.5 59.5 57.0376 59.5 54V6C59.5 2.96243 57.0376 0.5 54 0.5Z" fill="white" fill-opacity="0.8" stroke="#BAD0F3"/>
<path d="M35.2225 37H22.0524V20C22.0524 19.4 22.4576 19 23.0655 19H34.2095C34.8173 19 35.2225 19.4 35.2225 20V24.1L39.2749 20.1V20C39.2749 17.2 37.0461 15 34.2095 15H23.0655C20.2288 15 18 17.2 18 20V38C18 40.8 20.2288 43 23.0655 43H34.2095C37.0461 43 39.2749 40.8 39.2749 38V27.2L35.2225 31.2V37ZM44.6443 18.3C43.5299 17.2 41.8076 19 41.4024 19.4L29.9545 30.7C29.2453 31.4 27.827 34.3 28.1309 34.6C28.4348 34.9 31.3728 33.5 32.082 32.8L43.5299 21.5C43.9351 21.1 45.7587 19.4 44.6443 18.3ZM30.1571 41H27.1178C26.51 41 26.1047 40.6 26.1047 40C26.1047 39.4 26.51 39 27.1178 39H30.1571C30.7649 39 31.1702 39.4 31.1702 40C31.1702 40.6 30.7649 41 30.1571 41Z" fill="#5984C6"/>
</svg>
